%TF.GenerationSoftware,KiCad,Pcbnew,8.0.5*%
%TF.CreationDate,2024-10-01T12:40:19+02:00*%
%TF.ProjectId,e,652e6b69-6361-4645-9f70-636258585858,rev?*%
%TF.SameCoordinates,Original*%
%TF.FileFunction,Soldermask,Bot*%
%TF.FilePolarity,Negative*%
%FSLAX46Y46*%
G04 Gerber Fmt 4.6, Leading zero omitted, Abs format (unit mm)*
G04 Created by KiCad (PCBNEW 8.0.5) date 2024-10-01 12:40:19*
%MOMM*%
%LPD*%
G01*
G04 APERTURE LIST*
%ADD10R,1.700000X1.700000*%
%ADD11O,1.700000X1.700000*%
%ADD12C,1.600000*%
%ADD13O,1.600000X1.600000*%
%ADD14R,1.500000X1.050000*%
%ADD15O,1.500000X1.050000*%
%ADD16R,0.850000X0.850000*%
%ADD17O,0.850000X0.850000*%
%ADD18R,3.200000X3.200000*%
%ADD19C,3.200000*%
%ADD20R,1.600000X1.600000*%
%ADD21R,2.000000X2.000000*%
%ADD22C,2.000000*%
%ADD23R,2.200000X2.200000*%
%ADD24O,2.200000X2.200000*%
%ADD25R,2.400000X2.400000*%
%ADD26C,2.400000*%
G04 APERTURE END LIST*
D10*
%TO.C,J9*%
X24920000Y-68500000D03*
D11*
X27460000Y-68500000D03*
X30000000Y-68500000D03*
X32540000Y-68500000D03*
%TD*%
D10*
%TO.C,J2*%
X46420000Y-68000000D03*
D11*
X48960000Y-68000000D03*
X51500000Y-68000000D03*
X54040000Y-68000000D03*
%TD*%
D10*
%TO.C,J5*%
X139120000Y-56500000D03*
%TD*%
%TO.C,J4*%
X130620000Y-57775000D03*
D11*
X130620000Y-55235000D03*
%TD*%
D10*
%TO.C,J3*%
X147120000Y-58040000D03*
D11*
X147120000Y-55500000D03*
%TD*%
D10*
%TO.C,J1*%
X17020000Y-57000000D03*
D11*
X19560000Y-57000000D03*
X22100000Y-57000000D03*
X24640000Y-57000000D03*
X27180000Y-57000000D03*
X29720000Y-57000000D03*
X32260000Y-57000000D03*
X34800000Y-57000000D03*
X37340000Y-57000000D03*
X39880000Y-57000000D03*
X42420000Y-57000000D03*
X44960000Y-57000000D03*
X47500000Y-57000000D03*
X50040000Y-57000000D03*
X52580000Y-57000000D03*
X55120000Y-57000000D03*
X57660000Y-57000000D03*
%TD*%
D12*
%TO.C,R39*%
X112500000Y-15420000D03*
D13*
X112500000Y-25580000D03*
%TD*%
D14*
%TO.C,Q19*%
X108140000Y-29650000D03*
D15*
X108140000Y-30920000D03*
X108140000Y-32190000D03*
%TD*%
D12*
%TO.C,R48*%
X132500000Y-35420000D03*
D13*
X132500000Y-45580000D03*
%TD*%
D16*
%TO.C,J6*%
X102620000Y-75000000D03*
D17*
X102620000Y-74000000D03*
%TD*%
D12*
%TO.C,R31*%
X22000000Y-15500000D03*
D13*
X22000000Y-25660000D03*
%TD*%
D14*
%TO.C,Q33*%
X178000000Y-29920000D03*
D15*
X178000000Y-31190000D03*
X178000000Y-32460000D03*
%TD*%
D14*
%TO.C,Q4*%
X83500000Y-31580000D03*
D15*
X83500000Y-30310000D03*
X83500000Y-29040000D03*
%TD*%
D14*
%TO.C,Q28*%
X153500000Y-30960000D03*
D15*
X153500000Y-29690000D03*
X153500000Y-28420000D03*
%TD*%
D12*
%TO.C,R34*%
X97500000Y-35420000D03*
D13*
X97500000Y-45580000D03*
%TD*%
D12*
%TO.C,R63*%
X172500000Y-15420000D03*
D13*
X172500000Y-25580000D03*
%TD*%
D12*
%TO.C,R7*%
X82500000Y-15460000D03*
D13*
X82500000Y-25620000D03*
%TD*%
D12*
%TO.C,R65*%
X177500000Y-15420000D03*
D13*
X177500000Y-25580000D03*
%TD*%
D12*
%TO.C,R15*%
X62370000Y-15500000D03*
D13*
X62370000Y-25660000D03*
%TD*%
D14*
%TO.C,Q22*%
X123500000Y-30960000D03*
D15*
X123500000Y-29690000D03*
X123500000Y-28420000D03*
%TD*%
D14*
%TO.C,Q12*%
X43500000Y-31040000D03*
D15*
X43500000Y-29770000D03*
X43500000Y-28500000D03*
%TD*%
D14*
%TO.C,Q2*%
X93500000Y-31040000D03*
D15*
X93500000Y-29770000D03*
X93500000Y-28500000D03*
%TD*%
D12*
%TO.C,R6*%
X77500000Y-35540000D03*
D13*
X77500000Y-45700000D03*
%TD*%
D12*
%TO.C,R51*%
X142500000Y-15420000D03*
D13*
X142500000Y-25580000D03*
%TD*%
D14*
%TO.C,Q7*%
X57870000Y-30000000D03*
D15*
X57870000Y-31270000D03*
X57870000Y-32540000D03*
%TD*%
D12*
%TO.C,R59*%
X162500000Y-15420000D03*
D13*
X162500000Y-25580000D03*
%TD*%
D12*
%TO.C,R18*%
X47500000Y-35500000D03*
D13*
X47500000Y-45660000D03*
%TD*%
D14*
%TO.C,Q20*%
X113000000Y-28380000D03*
D15*
X113000000Y-29650000D03*
X113000000Y-30920000D03*
%TD*%
D12*
%TO.C,R46*%
X127500000Y-35420000D03*
D13*
X127500000Y-45580000D03*
%TD*%
D12*
%TO.C,R35*%
X102500000Y-15420000D03*
D13*
X102500000Y-25580000D03*
%TD*%
D12*
%TO.C,R23*%
X42500000Y-15500000D03*
D13*
X42500000Y-25660000D03*
%TD*%
D14*
%TO.C,Q16*%
X23230000Y-31040000D03*
D15*
X23230000Y-29770000D03*
X23230000Y-28500000D03*
%TD*%
D14*
%TO.C,Q31*%
X168000000Y-29920000D03*
D15*
X168000000Y-31190000D03*
X168000000Y-32460000D03*
%TD*%
D12*
%TO.C,R67*%
X182500000Y-15420000D03*
D13*
X182500000Y-25580000D03*
%TD*%
D12*
%TO.C,R49*%
X137500000Y-15420000D03*
D13*
X137500000Y-25580000D03*
%TD*%
D12*
%TO.C,R38*%
X107500000Y-35420000D03*
D13*
X107500000Y-45580000D03*
%TD*%
D12*
%TO.C,R11*%
X72500000Y-15500000D03*
D13*
X72500000Y-25660000D03*
%TD*%
D12*
%TO.C,R58*%
X157500000Y-35420000D03*
D13*
X157500000Y-45580000D03*
%TD*%
D12*
%TO.C,R3*%
X87500000Y-35500000D03*
D13*
X87500000Y-45660000D03*
%TD*%
D12*
%TO.C,R45*%
X127500000Y-15420000D03*
D13*
X127500000Y-25580000D03*
%TD*%
D12*
%TO.C,R4*%
X92500000Y-35500000D03*
D13*
X92500000Y-45660000D03*
%TD*%
D12*
%TO.C,R32*%
X22000000Y-45660000D03*
D13*
X22000000Y-35500000D03*
%TD*%
D14*
%TO.C,Q26*%
X143500000Y-30960000D03*
D15*
X143500000Y-29690000D03*
X143500000Y-28420000D03*
%TD*%
D12*
%TO.C,R22*%
X37500000Y-35500000D03*
D13*
X37500000Y-45660000D03*
%TD*%
D14*
%TO.C,Q14*%
X33730000Y-31040000D03*
D15*
X33730000Y-29770000D03*
X33730000Y-28500000D03*
%TD*%
D14*
%TO.C,Q25*%
X138000000Y-29920000D03*
D15*
X138000000Y-31190000D03*
X138000000Y-32460000D03*
%TD*%
D14*
%TO.C,Q30*%
X163500000Y-30960000D03*
D15*
X163500000Y-29690000D03*
X163500000Y-28420000D03*
%TD*%
D12*
%TO.C,R12*%
X72500000Y-35500000D03*
D13*
X72500000Y-45660000D03*
%TD*%
D12*
%TO.C,R57*%
X157500000Y-15420000D03*
D13*
X157500000Y-25580000D03*
%TD*%
D12*
%TO.C,R26*%
X27500000Y-35500000D03*
D13*
X27500000Y-45660000D03*
%TD*%
D12*
%TO.C,R44*%
X122500000Y-35420000D03*
D13*
X122500000Y-45580000D03*
%TD*%
D12*
%TO.C,R1*%
X87500000Y-15500000D03*
D13*
X87500000Y-25660000D03*
%TD*%
D14*
%TO.C,Q15*%
X17500000Y-30000000D03*
D15*
X17500000Y-31270000D03*
X17500000Y-32540000D03*
%TD*%
D12*
%TO.C,R47*%
X132500000Y-15420000D03*
D13*
X132500000Y-25580000D03*
%TD*%
D12*
%TO.C,R66*%
X177500000Y-35420000D03*
D13*
X177500000Y-45580000D03*
%TD*%
D12*
%TO.C,R27*%
X32500000Y-15500000D03*
D13*
X32500000Y-25660000D03*
%TD*%
D12*
%TO.C,R53*%
X147500000Y-15420000D03*
D13*
X147500000Y-25580000D03*
%TD*%
D12*
%TO.C,R17*%
X47500000Y-15500000D03*
D13*
X47500000Y-25660000D03*
%TD*%
D12*
%TO.C,R61*%
X167500000Y-15420000D03*
D13*
X167500000Y-25580000D03*
%TD*%
D12*
%TO.C,R50*%
X137500000Y-35420000D03*
D13*
X137500000Y-45580000D03*
%TD*%
D12*
%TO.C,R5*%
X77500000Y-15540000D03*
D13*
X77500000Y-25700000D03*
%TD*%
D12*
%TO.C,R33*%
X97500000Y-15420000D03*
D13*
X97500000Y-25580000D03*
%TD*%
D12*
%TO.C,R24*%
X42500000Y-35500000D03*
D13*
X42500000Y-45660000D03*
%TD*%
D14*
%TO.C,Q3*%
X78000000Y-30040000D03*
D15*
X78000000Y-31310000D03*
X78000000Y-32580000D03*
%TD*%
D12*
%TO.C,R42*%
X117500000Y-35420000D03*
D13*
X117500000Y-45580000D03*
%TD*%
D12*
%TO.C,R20*%
X52500000Y-35500000D03*
D13*
X52500000Y-45660000D03*
%TD*%
D14*
%TO.C,Q24*%
X133500000Y-30960000D03*
D15*
X133500000Y-29690000D03*
X133500000Y-28420000D03*
%TD*%
D18*
%TO.C,D2*%
X146120000Y-71000000D03*
D19*
X141040000Y-71000000D03*
X135960000Y-71000000D03*
X130880000Y-71000000D03*
%TD*%
D14*
%TO.C,Q5*%
X68000000Y-30000000D03*
D15*
X68000000Y-31270000D03*
X68000000Y-32540000D03*
%TD*%
D12*
%TO.C,R54*%
X147500000Y-35420000D03*
D13*
X147500000Y-45580000D03*
%TD*%
D12*
%TO.C,R68*%
X182500000Y-35420000D03*
D13*
X182500000Y-45580000D03*
%TD*%
D14*
%TO.C,Q9*%
X48000000Y-30000000D03*
D15*
X48000000Y-31270000D03*
X48000000Y-32540000D03*
%TD*%
D12*
%TO.C,R8*%
X82500000Y-35540000D03*
D13*
X82500000Y-45700000D03*
%TD*%
D12*
%TO.C,R55*%
X152500000Y-15420000D03*
D13*
X152500000Y-25580000D03*
%TD*%
D12*
%TO.C,R60*%
X162500000Y-35420000D03*
D13*
X162500000Y-45580000D03*
%TD*%
D12*
%TO.C,R62*%
X167500000Y-35420000D03*
D13*
X167500000Y-45580000D03*
%TD*%
D12*
%TO.C,R36*%
X102500000Y-35420000D03*
D13*
X102500000Y-45580000D03*
%TD*%
%TO.C,U1*%
X182120000Y-54460000D03*
X182120000Y-57000000D03*
X182120000Y-59540000D03*
X182120000Y-62080000D03*
X182120000Y-64620000D03*
X182120000Y-67160000D03*
X182120000Y-69700000D03*
X182120000Y-72240000D03*
X174500000Y-72240000D03*
X174500000Y-69700000D03*
X174500000Y-67160000D03*
X174500000Y-64620000D03*
X174500000Y-62080000D03*
X174500000Y-59540000D03*
X174500000Y-57000000D03*
D20*
X174500000Y-54460000D03*
%TD*%
D12*
%TO.C,R14*%
X57370000Y-35500000D03*
D13*
X57370000Y-45660000D03*
%TD*%
D12*
%TO.C,R25*%
X27500000Y-15500000D03*
D13*
X27500000Y-25660000D03*
%TD*%
D21*
%TO.C,C1*%
X89120000Y-58500000D03*
D22*
X89120000Y-53500000D03*
%TD*%
D12*
%TO.C,R9*%
X67500000Y-15500000D03*
D13*
X67500000Y-25660000D03*
%TD*%
D14*
%TO.C,Q11*%
X38000000Y-30000000D03*
D15*
X38000000Y-31270000D03*
X38000000Y-32540000D03*
%TD*%
D12*
%TO.C,R19*%
X52500000Y-15500000D03*
D13*
X52500000Y-25660000D03*
%TD*%
D12*
%TO.C,R16*%
X62370000Y-35500000D03*
D13*
X62370000Y-45660000D03*
%TD*%
D20*
%TO.C,U3*%
X160000000Y-54460000D03*
D13*
X160000000Y-57000000D03*
X160000000Y-59540000D03*
X160000000Y-62080000D03*
X160000000Y-64620000D03*
X160000000Y-67160000D03*
X160000000Y-69700000D03*
X160000000Y-72240000D03*
X167620000Y-72240000D03*
X167620000Y-69700000D03*
X167620000Y-67160000D03*
X167620000Y-64620000D03*
X167620000Y-62080000D03*
X167620000Y-59540000D03*
X167620000Y-57000000D03*
X167620000Y-54460000D03*
%TD*%
D14*
%TO.C,Q17*%
X98000000Y-29920000D03*
D15*
X98000000Y-31190000D03*
X98000000Y-32460000D03*
%TD*%
D12*
%TO.C,R21*%
X37500000Y-15500000D03*
D13*
X37500000Y-25660000D03*
%TD*%
D12*
%TO.C,R13*%
X57370000Y-15500000D03*
D13*
X57370000Y-25660000D03*
%TD*%
D14*
%TO.C,Q10*%
X53500000Y-31270000D03*
D15*
X53500000Y-30000000D03*
X53500000Y-28730000D03*
%TD*%
D14*
%TO.C,Q21*%
X118000000Y-29650000D03*
D15*
X118000000Y-30920000D03*
X118000000Y-32190000D03*
%TD*%
D12*
%TO.C,R40*%
X112500000Y-35420000D03*
D13*
X112500000Y-45580000D03*
%TD*%
D12*
%TO.C,R37*%
X107500000Y-15420000D03*
D13*
X107500000Y-25580000D03*
%TD*%
D16*
%TO.C,J7*%
X87120000Y-75500000D03*
D17*
X87120000Y-74500000D03*
%TD*%
D14*
%TO.C,Q8*%
X63370000Y-31540000D03*
D15*
X63370000Y-30270000D03*
X63370000Y-29000000D03*
%TD*%
D23*
%TO.C,D1*%
X66960000Y-56000000D03*
D24*
X77120000Y-56000000D03*
%TD*%
D12*
%TO.C,R43*%
X122500000Y-15420000D03*
D13*
X122500000Y-25580000D03*
%TD*%
D12*
%TO.C,R28*%
X32500000Y-35500000D03*
D13*
X32500000Y-45660000D03*
%TD*%
D14*
%TO.C,Q29*%
X158000000Y-29920000D03*
D15*
X158000000Y-31190000D03*
X158000000Y-32460000D03*
%TD*%
D12*
%TO.C,R2*%
X92500000Y-15500000D03*
D13*
X92500000Y-25660000D03*
%TD*%
D12*
%TO.C,R52*%
X142500000Y-35420000D03*
D13*
X142500000Y-45580000D03*
%TD*%
D14*
%TO.C,Q18*%
X103500000Y-30960000D03*
D15*
X103500000Y-29690000D03*
X103500000Y-28420000D03*
%TD*%
D12*
%TO.C,R30*%
X17000000Y-35500000D03*
D13*
X17000000Y-45660000D03*
%TD*%
D14*
%TO.C,Q32*%
X173500000Y-31190000D03*
D15*
X173500000Y-29920000D03*
X173500000Y-28650000D03*
%TD*%
D14*
%TO.C,Q13*%
X28000000Y-30000000D03*
D15*
X28000000Y-31270000D03*
X28000000Y-32540000D03*
%TD*%
D14*
%TO.C,Q1*%
X88000000Y-30000000D03*
D15*
X88000000Y-31270000D03*
X88000000Y-32540000D03*
%TD*%
D12*
%TO.C,R29*%
X17000000Y-15500000D03*
D13*
X17000000Y-25660000D03*
%TD*%
D12*
%TO.C,R41*%
X117500000Y-15420000D03*
D13*
X117500000Y-25580000D03*
%TD*%
D12*
%TO.C,R56*%
X152500000Y-35420000D03*
D13*
X152500000Y-45580000D03*
%TD*%
D14*
%TO.C,Q6*%
X73500000Y-31540000D03*
D15*
X73500000Y-30270000D03*
X73500000Y-29000000D03*
%TD*%
D14*
%TO.C,Q27*%
X148000000Y-29920000D03*
D15*
X148000000Y-31190000D03*
X148000000Y-32460000D03*
%TD*%
D25*
%TO.C,C2*%
X116120000Y-73815200D03*
D26*
X116120000Y-68815200D03*
%TD*%
D12*
%TO.C,R10*%
X67500000Y-35500000D03*
D13*
X67500000Y-45660000D03*
%TD*%
D14*
%TO.C,Q23*%
X128000000Y-29650000D03*
D15*
X128000000Y-30920000D03*
X128000000Y-32190000D03*
%TD*%
D12*
%TO.C,R64*%
X172500000Y-35420000D03*
D13*
X172500000Y-45580000D03*
%TD*%
D18*
%TO.C,D3*%
X118360000Y-56500000D03*
D19*
X113280000Y-56500000D03*
X108200000Y-56500000D03*
X103120000Y-56500000D03*
%TD*%
D14*
%TO.C,Q34*%
X183500000Y-30960000D03*
D15*
X183500000Y-29690000D03*
X183500000Y-28420000D03*
%TD*%
M02*
