%TF.GenerationSoftware,KiCad,Pcbnew,8.0.5*%
%TF.CreationDate,2024-10-01T12:40:19+02:00*%
%TF.ProjectId,e,652e6b69-6361-4645-9f70-636258585858,rev?*%
%TF.SameCoordinates,Original*%
%TF.FileFunction,Legend,Top*%
%TF.FilePolarity,Positive*%
%FSLAX46Y46*%
G04 Gerber Fmt 4.6, Leading zero omitted, Abs format (unit mm)*
G04 Created by KiCad (PCBNEW 8.0.5) date 2024-10-01 12:40:19*
%MOMM*%
%LPD*%
G01*
G04 APERTURE LIST*
%ADD10C,0.150000*%
%ADD11C,0.120000*%
G04 APERTURE END LIST*
D10*
X22044819Y-68833333D02*
X22759104Y-68833333D01*
X22759104Y-68833333D02*
X22901961Y-68880952D01*
X22901961Y-68880952D02*
X22997200Y-68976190D01*
X22997200Y-68976190D02*
X23044819Y-69119047D01*
X23044819Y-69119047D02*
X23044819Y-69214285D01*
X23044819Y-68309523D02*
X23044819Y-68119047D01*
X23044819Y-68119047D02*
X22997200Y-68023809D01*
X22997200Y-68023809D02*
X22949580Y-67976190D01*
X22949580Y-67976190D02*
X22806723Y-67880952D01*
X22806723Y-67880952D02*
X22616247Y-67833333D01*
X22616247Y-67833333D02*
X22235295Y-67833333D01*
X22235295Y-67833333D02*
X22140057Y-67880952D01*
X22140057Y-67880952D02*
X22092438Y-67928571D01*
X22092438Y-67928571D02*
X22044819Y-68023809D01*
X22044819Y-68023809D02*
X22044819Y-68214285D01*
X22044819Y-68214285D02*
X22092438Y-68309523D01*
X22092438Y-68309523D02*
X22140057Y-68357142D01*
X22140057Y-68357142D02*
X22235295Y-68404761D01*
X22235295Y-68404761D02*
X22473390Y-68404761D01*
X22473390Y-68404761D02*
X22568628Y-68357142D01*
X22568628Y-68357142D02*
X22616247Y-68309523D01*
X22616247Y-68309523D02*
X22663866Y-68214285D01*
X22663866Y-68214285D02*
X22663866Y-68023809D01*
X22663866Y-68023809D02*
X22616247Y-67928571D01*
X22616247Y-67928571D02*
X22568628Y-67880952D01*
X22568628Y-67880952D02*
X22473390Y-67833333D01*
X43544819Y-68333333D02*
X44259104Y-68333333D01*
X44259104Y-68333333D02*
X44401961Y-68380952D01*
X44401961Y-68380952D02*
X44497200Y-68476190D01*
X44497200Y-68476190D02*
X44544819Y-68619047D01*
X44544819Y-68619047D02*
X44544819Y-68714285D01*
X43640057Y-67904761D02*
X43592438Y-67857142D01*
X43592438Y-67857142D02*
X43544819Y-67761904D01*
X43544819Y-67761904D02*
X43544819Y-67523809D01*
X43544819Y-67523809D02*
X43592438Y-67428571D01*
X43592438Y-67428571D02*
X43640057Y-67380952D01*
X43640057Y-67380952D02*
X43735295Y-67333333D01*
X43735295Y-67333333D02*
X43830533Y-67333333D01*
X43830533Y-67333333D02*
X43973390Y-67380952D01*
X43973390Y-67380952D02*
X44544819Y-67952380D01*
X44544819Y-67952380D02*
X44544819Y-67333333D01*
X138786666Y-55954819D02*
X138786666Y-56669104D01*
X138786666Y-56669104D02*
X138739047Y-56811961D01*
X138739047Y-56811961D02*
X138643809Y-56907200D01*
X138643809Y-56907200D02*
X138500952Y-56954819D01*
X138500952Y-56954819D02*
X138405714Y-56954819D01*
X139739047Y-55954819D02*
X139262857Y-55954819D01*
X139262857Y-55954819D02*
X139215238Y-56431009D01*
X139215238Y-56431009D02*
X139262857Y-56383390D01*
X139262857Y-56383390D02*
X139358095Y-56335771D01*
X139358095Y-56335771D02*
X139596190Y-56335771D01*
X139596190Y-56335771D02*
X139691428Y-56383390D01*
X139691428Y-56383390D02*
X139739047Y-56431009D01*
X139739047Y-56431009D02*
X139786666Y-56526247D01*
X139786666Y-56526247D02*
X139786666Y-56764342D01*
X139786666Y-56764342D02*
X139739047Y-56859580D01*
X139739047Y-56859580D02*
X139691428Y-56907200D01*
X139691428Y-56907200D02*
X139596190Y-56954819D01*
X139596190Y-56954819D02*
X139358095Y-56954819D01*
X139358095Y-56954819D02*
X139262857Y-56907200D01*
X139262857Y-56907200D02*
X139215238Y-56859580D01*
X130286666Y-59559819D02*
X130286666Y-60274104D01*
X130286666Y-60274104D02*
X130239047Y-60416961D01*
X130239047Y-60416961D02*
X130143809Y-60512200D01*
X130143809Y-60512200D02*
X130000952Y-60559819D01*
X130000952Y-60559819D02*
X129905714Y-60559819D01*
X131191428Y-59893152D02*
X131191428Y-60559819D01*
X130953333Y-59512200D02*
X130715238Y-60226485D01*
X130715238Y-60226485D02*
X131334285Y-60226485D01*
X146786666Y-59824819D02*
X146786666Y-60539104D01*
X146786666Y-60539104D02*
X146739047Y-60681961D01*
X146739047Y-60681961D02*
X146643809Y-60777200D01*
X146643809Y-60777200D02*
X146500952Y-60824819D01*
X146500952Y-60824819D02*
X146405714Y-60824819D01*
X147167619Y-59824819D02*
X147786666Y-59824819D01*
X147786666Y-59824819D02*
X147453333Y-60205771D01*
X147453333Y-60205771D02*
X147596190Y-60205771D01*
X147596190Y-60205771D02*
X147691428Y-60253390D01*
X147691428Y-60253390D02*
X147739047Y-60301009D01*
X147739047Y-60301009D02*
X147786666Y-60396247D01*
X147786666Y-60396247D02*
X147786666Y-60634342D01*
X147786666Y-60634342D02*
X147739047Y-60729580D01*
X147739047Y-60729580D02*
X147691428Y-60777200D01*
X147691428Y-60777200D02*
X147596190Y-60824819D01*
X147596190Y-60824819D02*
X147310476Y-60824819D01*
X147310476Y-60824819D02*
X147215238Y-60777200D01*
X147215238Y-60777200D02*
X147167619Y-60729580D01*
X14144819Y-57333333D02*
X14859104Y-57333333D01*
X14859104Y-57333333D02*
X15001961Y-57380952D01*
X15001961Y-57380952D02*
X15097200Y-57476190D01*
X15097200Y-57476190D02*
X15144819Y-57619047D01*
X15144819Y-57619047D02*
X15144819Y-57714285D01*
X15144819Y-56333333D02*
X15144819Y-56904761D01*
X15144819Y-56619047D02*
X14144819Y-56619047D01*
X14144819Y-56619047D02*
X14287676Y-56714285D01*
X14287676Y-56714285D02*
X14382914Y-56809523D01*
X14382914Y-56809523D02*
X14430533Y-56904761D01*
X102286666Y-76014819D02*
X102286666Y-76729104D01*
X102286666Y-76729104D02*
X102239047Y-76871961D01*
X102239047Y-76871961D02*
X102143809Y-76967200D01*
X102143809Y-76967200D02*
X102000952Y-77014819D01*
X102000952Y-77014819D02*
X101905714Y-77014819D01*
X103191428Y-76014819D02*
X103000952Y-76014819D01*
X103000952Y-76014819D02*
X102905714Y-76062438D01*
X102905714Y-76062438D02*
X102858095Y-76110057D01*
X102858095Y-76110057D02*
X102762857Y-76252914D01*
X102762857Y-76252914D02*
X102715238Y-76443390D01*
X102715238Y-76443390D02*
X102715238Y-76824342D01*
X102715238Y-76824342D02*
X102762857Y-76919580D01*
X102762857Y-76919580D02*
X102810476Y-76967200D01*
X102810476Y-76967200D02*
X102905714Y-77014819D01*
X102905714Y-77014819D02*
X103096190Y-77014819D01*
X103096190Y-77014819D02*
X103191428Y-76967200D01*
X103191428Y-76967200D02*
X103239047Y-76919580D01*
X103239047Y-76919580D02*
X103286666Y-76824342D01*
X103286666Y-76824342D02*
X103286666Y-76586247D01*
X103286666Y-76586247D02*
X103239047Y-76491009D01*
X103239047Y-76491009D02*
X103191428Y-76443390D01*
X103191428Y-76443390D02*
X103096190Y-76395771D01*
X103096190Y-76395771D02*
X102905714Y-76395771D01*
X102905714Y-76395771D02*
X102810476Y-76443390D01*
X102810476Y-76443390D02*
X102762857Y-76491009D01*
X102762857Y-76491009D02*
X102715238Y-76586247D01*
X137681905Y-68154819D02*
X137681905Y-67154819D01*
X137681905Y-67154819D02*
X137920000Y-67154819D01*
X137920000Y-67154819D02*
X138062857Y-67202438D01*
X138062857Y-67202438D02*
X138158095Y-67297676D01*
X138158095Y-67297676D02*
X138205714Y-67392914D01*
X138205714Y-67392914D02*
X138253333Y-67583390D01*
X138253333Y-67583390D02*
X138253333Y-67726247D01*
X138253333Y-67726247D02*
X138205714Y-67916723D01*
X138205714Y-67916723D02*
X138158095Y-68011961D01*
X138158095Y-68011961D02*
X138062857Y-68107200D01*
X138062857Y-68107200D02*
X137920000Y-68154819D01*
X137920000Y-68154819D02*
X137681905Y-68154819D01*
X138634286Y-67250057D02*
X138681905Y-67202438D01*
X138681905Y-67202438D02*
X138777143Y-67154819D01*
X138777143Y-67154819D02*
X139015238Y-67154819D01*
X139015238Y-67154819D02*
X139110476Y-67202438D01*
X139110476Y-67202438D02*
X139158095Y-67250057D01*
X139158095Y-67250057D02*
X139205714Y-67345295D01*
X139205714Y-67345295D02*
X139205714Y-67440533D01*
X139205714Y-67440533D02*
X139158095Y-67583390D01*
X139158095Y-67583390D02*
X138586667Y-68154819D01*
X138586667Y-68154819D02*
X139205714Y-68154819D01*
X177548095Y-51584819D02*
X177548095Y-52394342D01*
X177548095Y-52394342D02*
X177595714Y-52489580D01*
X177595714Y-52489580D02*
X177643333Y-52537200D01*
X177643333Y-52537200D02*
X177738571Y-52584819D01*
X177738571Y-52584819D02*
X177929047Y-52584819D01*
X177929047Y-52584819D02*
X178024285Y-52537200D01*
X178024285Y-52537200D02*
X178071904Y-52489580D01*
X178071904Y-52489580D02*
X178119523Y-52394342D01*
X178119523Y-52394342D02*
X178119523Y-51584819D01*
X179119523Y-52584819D02*
X178548095Y-52584819D01*
X178833809Y-52584819D02*
X178833809Y-51584819D01*
X178833809Y-51584819D02*
X178738571Y-51727676D01*
X178738571Y-51727676D02*
X178643333Y-51822914D01*
X178643333Y-51822914D02*
X178548095Y-51870533D01*
X83229580Y-56166666D02*
X83277200Y-56214285D01*
X83277200Y-56214285D02*
X83324819Y-56357142D01*
X83324819Y-56357142D02*
X83324819Y-56452380D01*
X83324819Y-56452380D02*
X83277200Y-56595237D01*
X83277200Y-56595237D02*
X83181961Y-56690475D01*
X83181961Y-56690475D02*
X83086723Y-56738094D01*
X83086723Y-56738094D02*
X82896247Y-56785713D01*
X82896247Y-56785713D02*
X82753390Y-56785713D01*
X82753390Y-56785713D02*
X82562914Y-56738094D01*
X82562914Y-56738094D02*
X82467676Y-56690475D01*
X82467676Y-56690475D02*
X82372438Y-56595237D01*
X82372438Y-56595237D02*
X82324819Y-56452380D01*
X82324819Y-56452380D02*
X82324819Y-56357142D01*
X82324819Y-56357142D02*
X82372438Y-56214285D01*
X82372438Y-56214285D02*
X82420057Y-56166666D01*
X83324819Y-55214285D02*
X83324819Y-55785713D01*
X83324819Y-55499999D02*
X82324819Y-55499999D01*
X82324819Y-55499999D02*
X82467676Y-55595237D01*
X82467676Y-55595237D02*
X82562914Y-55690475D01*
X82562914Y-55690475D02*
X82610533Y-55785713D01*
X163048095Y-51584819D02*
X163048095Y-52394342D01*
X163048095Y-52394342D02*
X163095714Y-52489580D01*
X163095714Y-52489580D02*
X163143333Y-52537200D01*
X163143333Y-52537200D02*
X163238571Y-52584819D01*
X163238571Y-52584819D02*
X163429047Y-52584819D01*
X163429047Y-52584819D02*
X163524285Y-52537200D01*
X163524285Y-52537200D02*
X163571904Y-52489580D01*
X163571904Y-52489580D02*
X163619523Y-52394342D01*
X163619523Y-52394342D02*
X163619523Y-51584819D01*
X164000476Y-51584819D02*
X164619523Y-51584819D01*
X164619523Y-51584819D02*
X164286190Y-51965771D01*
X164286190Y-51965771D02*
X164429047Y-51965771D01*
X164429047Y-51965771D02*
X164524285Y-52013390D01*
X164524285Y-52013390D02*
X164571904Y-52061009D01*
X164571904Y-52061009D02*
X164619523Y-52156247D01*
X164619523Y-52156247D02*
X164619523Y-52394342D01*
X164619523Y-52394342D02*
X164571904Y-52489580D01*
X164571904Y-52489580D02*
X164524285Y-52537200D01*
X164524285Y-52537200D02*
X164429047Y-52584819D01*
X164429047Y-52584819D02*
X164143333Y-52584819D01*
X164143333Y-52584819D02*
X164048095Y-52537200D01*
X164048095Y-52537200D02*
X164000476Y-52489580D01*
X86786666Y-76514819D02*
X86786666Y-77229104D01*
X86786666Y-77229104D02*
X86739047Y-77371961D01*
X86739047Y-77371961D02*
X86643809Y-77467200D01*
X86643809Y-77467200D02*
X86500952Y-77514819D01*
X86500952Y-77514819D02*
X86405714Y-77514819D01*
X87167619Y-76514819D02*
X87834285Y-76514819D01*
X87834285Y-76514819D02*
X87405714Y-77514819D01*
X71301905Y-53984819D02*
X71301905Y-52984819D01*
X71301905Y-52984819D02*
X71540000Y-52984819D01*
X71540000Y-52984819D02*
X71682857Y-53032438D01*
X71682857Y-53032438D02*
X71778095Y-53127676D01*
X71778095Y-53127676D02*
X71825714Y-53222914D01*
X71825714Y-53222914D02*
X71873333Y-53413390D01*
X71873333Y-53413390D02*
X71873333Y-53556247D01*
X71873333Y-53556247D02*
X71825714Y-53746723D01*
X71825714Y-53746723D02*
X71778095Y-53841961D01*
X71778095Y-53841961D02*
X71682857Y-53937200D01*
X71682857Y-53937200D02*
X71540000Y-53984819D01*
X71540000Y-53984819D02*
X71301905Y-53984819D01*
X72825714Y-53984819D02*
X72254286Y-53984819D01*
X72540000Y-53984819D02*
X72540000Y-52984819D01*
X72540000Y-52984819D02*
X72444762Y-53127676D01*
X72444762Y-53127676D02*
X72349524Y-53222914D01*
X72349524Y-53222914D02*
X72254286Y-53270533D01*
X66698095Y-54354819D02*
X66698095Y-53354819D01*
X67269523Y-54354819D02*
X66840952Y-53783390D01*
X67269523Y-53354819D02*
X66698095Y-53926247D01*
X69358095Y-65254819D02*
X69358095Y-66064342D01*
X69358095Y-66064342D02*
X69405714Y-66159580D01*
X69405714Y-66159580D02*
X69453333Y-66207200D01*
X69453333Y-66207200D02*
X69548571Y-66254819D01*
X69548571Y-66254819D02*
X69739047Y-66254819D01*
X69739047Y-66254819D02*
X69834285Y-66207200D01*
X69834285Y-66207200D02*
X69881904Y-66159580D01*
X69881904Y-66159580D02*
X69929523Y-66064342D01*
X69929523Y-66064342D02*
X69929523Y-65254819D01*
X70358095Y-65350057D02*
X70405714Y-65302438D01*
X70405714Y-65302438D02*
X70500952Y-65254819D01*
X70500952Y-65254819D02*
X70739047Y-65254819D01*
X70739047Y-65254819D02*
X70834285Y-65302438D01*
X70834285Y-65302438D02*
X70881904Y-65350057D01*
X70881904Y-65350057D02*
X70929523Y-65445295D01*
X70929523Y-65445295D02*
X70929523Y-65540533D01*
X70929523Y-65540533D02*
X70881904Y-65683390D01*
X70881904Y-65683390D02*
X70310476Y-66254819D01*
X70310476Y-66254819D02*
X70929523Y-66254819D01*
X108729580Y-71481866D02*
X108777200Y-71529485D01*
X108777200Y-71529485D02*
X108824819Y-71672342D01*
X108824819Y-71672342D02*
X108824819Y-71767580D01*
X108824819Y-71767580D02*
X108777200Y-71910437D01*
X108777200Y-71910437D02*
X108681961Y-72005675D01*
X108681961Y-72005675D02*
X108586723Y-72053294D01*
X108586723Y-72053294D02*
X108396247Y-72100913D01*
X108396247Y-72100913D02*
X108253390Y-72100913D01*
X108253390Y-72100913D02*
X108062914Y-72053294D01*
X108062914Y-72053294D02*
X107967676Y-72005675D01*
X107967676Y-72005675D02*
X107872438Y-71910437D01*
X107872438Y-71910437D02*
X107824819Y-71767580D01*
X107824819Y-71767580D02*
X107824819Y-71672342D01*
X107824819Y-71672342D02*
X107872438Y-71529485D01*
X107872438Y-71529485D02*
X107920057Y-71481866D01*
X107920057Y-71100913D02*
X107872438Y-71053294D01*
X107872438Y-71053294D02*
X107824819Y-70958056D01*
X107824819Y-70958056D02*
X107824819Y-70719961D01*
X107824819Y-70719961D02*
X107872438Y-70624723D01*
X107872438Y-70624723D02*
X107920057Y-70577104D01*
X107920057Y-70577104D02*
X108015295Y-70529485D01*
X108015295Y-70529485D02*
X108110533Y-70529485D01*
X108110533Y-70529485D02*
X108253390Y-70577104D01*
X108253390Y-70577104D02*
X108824819Y-71148532D01*
X108824819Y-71148532D02*
X108824819Y-70529485D01*
X109921905Y-53654819D02*
X109921905Y-52654819D01*
X109921905Y-52654819D02*
X110160000Y-52654819D01*
X110160000Y-52654819D02*
X110302857Y-52702438D01*
X110302857Y-52702438D02*
X110398095Y-52797676D01*
X110398095Y-52797676D02*
X110445714Y-52892914D01*
X110445714Y-52892914D02*
X110493333Y-53083390D01*
X110493333Y-53083390D02*
X110493333Y-53226247D01*
X110493333Y-53226247D02*
X110445714Y-53416723D01*
X110445714Y-53416723D02*
X110398095Y-53511961D01*
X110398095Y-53511961D02*
X110302857Y-53607200D01*
X110302857Y-53607200D02*
X110160000Y-53654819D01*
X110160000Y-53654819D02*
X109921905Y-53654819D01*
X110826667Y-52654819D02*
X111445714Y-52654819D01*
X111445714Y-52654819D02*
X111112381Y-53035771D01*
X111112381Y-53035771D02*
X111255238Y-53035771D01*
X111255238Y-53035771D02*
X111350476Y-53083390D01*
X111350476Y-53083390D02*
X111398095Y-53131009D01*
X111398095Y-53131009D02*
X111445714Y-53226247D01*
X111445714Y-53226247D02*
X111445714Y-53464342D01*
X111445714Y-53464342D02*
X111398095Y-53559580D01*
X111398095Y-53559580D02*
X111350476Y-53607200D01*
X111350476Y-53607200D02*
X111255238Y-53654819D01*
X111255238Y-53654819D02*
X110969524Y-53654819D01*
X110969524Y-53654819D02*
X110874286Y-53607200D01*
X110874286Y-53607200D02*
X110826667Y-53559580D01*
D11*
%TO.C,J9*%
X23590000Y-69830000D02*
X23590000Y-68500000D01*
X24920000Y-69830000D02*
X23590000Y-69830000D01*
X26190000Y-69830000D02*
X33870000Y-69830000D01*
X26190000Y-69830000D02*
X26190000Y-67170000D01*
X33870000Y-69830000D02*
X33870000Y-67170000D01*
X26190000Y-67170000D02*
X33870000Y-67170000D01*
%TO.C,J2*%
X45090000Y-69330000D02*
X45090000Y-68000000D01*
X46420000Y-69330000D02*
X45090000Y-69330000D01*
X47690000Y-69330000D02*
X55370000Y-69330000D01*
X47690000Y-69330000D02*
X47690000Y-66670000D01*
X55370000Y-69330000D02*
X55370000Y-66670000D01*
X47690000Y-66670000D02*
X55370000Y-66670000D01*
%TO.C,J5*%
X140450000Y-57830000D02*
X139120000Y-57830000D01*
X140450000Y-56500000D02*
X140450000Y-57830000D01*
X140450000Y-55230000D02*
X140450000Y-55170000D01*
X140450000Y-55230000D02*
X137790000Y-55230000D01*
X140450000Y-55170000D02*
X137790000Y-55170000D01*
X137790000Y-55230000D02*
X137790000Y-55170000D01*
%TO.C,J4*%
X131950000Y-59105000D02*
X130620000Y-59105000D01*
X131950000Y-57775000D02*
X131950000Y-59105000D01*
X131950000Y-56505000D02*
X131950000Y-53905000D01*
X131950000Y-56505000D02*
X129290000Y-56505000D01*
X131950000Y-53905000D02*
X129290000Y-53905000D01*
X129290000Y-56505000D02*
X129290000Y-53905000D01*
%TO.C,J3*%
X148450000Y-59370000D02*
X147120000Y-59370000D01*
X148450000Y-58040000D02*
X148450000Y-59370000D01*
X148450000Y-56770000D02*
X148450000Y-54170000D01*
X148450000Y-56770000D02*
X145790000Y-56770000D01*
X148450000Y-54170000D02*
X145790000Y-54170000D01*
X145790000Y-56770000D02*
X145790000Y-54170000D01*
%TO.C,J1*%
X15690000Y-58330000D02*
X15690000Y-57000000D01*
X17020000Y-58330000D02*
X15690000Y-58330000D01*
X18290000Y-58330000D02*
X58990000Y-58330000D01*
X18290000Y-58330000D02*
X18290000Y-55670000D01*
X58990000Y-58330000D02*
X58990000Y-55670000D01*
X18290000Y-55670000D02*
X58990000Y-55670000D01*
%TO.C,R39*%
X111130000Y-17230000D02*
X111130000Y-23770000D01*
X111130000Y-23770000D02*
X113870000Y-23770000D01*
X112500000Y-16460000D02*
X112500000Y-17230000D01*
X112500000Y-24540000D02*
X112500000Y-23770000D01*
X113870000Y-17230000D02*
X111130000Y-17230000D01*
X113870000Y-23770000D02*
X113870000Y-17230000D01*
%TO.C,Q19*%
X106290000Y-29120000D02*
X106290000Y-32720000D01*
X106301522Y-29081522D02*
G75*
G02*
X110740001Y-30920000I1838478J-1838478D01*
G01*
X110740000Y-30920000D02*
G75*
G02*
X106301522Y-32758478I-2600000J0D01*
G01*
%TO.C,R48*%
X131130000Y-37230000D02*
X131130000Y-43770000D01*
X131130000Y-43770000D02*
X133870000Y-43770000D01*
X132500000Y-36460000D02*
X132500000Y-37230000D01*
X132500000Y-44540000D02*
X132500000Y-43770000D01*
X133870000Y-37230000D02*
X131130000Y-37230000D01*
X133870000Y-43770000D02*
X133870000Y-37230000D01*
%TO.C,J6*%
X103315000Y-75685000D02*
X102620000Y-75685000D01*
X103315000Y-75000000D02*
X103315000Y-75685000D01*
X103315000Y-74315000D02*
X103315000Y-73440000D01*
X103315000Y-74315000D02*
X103228276Y-74315000D01*
X103315000Y-73440000D02*
X103014493Y-73440000D01*
X102225507Y-73440000D02*
X101925000Y-73440000D01*
X102011724Y-74315000D02*
X101925000Y-74315000D01*
X101925000Y-74315000D02*
X101925000Y-73440000D01*
%TO.C,R31*%
X20630000Y-17310000D02*
X20630000Y-23850000D01*
X20630000Y-23850000D02*
X23370000Y-23850000D01*
X22000000Y-16540000D02*
X22000000Y-17310000D01*
X22000000Y-24620000D02*
X22000000Y-23850000D01*
X23370000Y-17310000D02*
X20630000Y-17310000D01*
X23370000Y-23850000D02*
X23370000Y-17310000D01*
%TO.C,Q33*%
X176150000Y-29390000D02*
X176150000Y-32990000D01*
X176161522Y-29351522D02*
G75*
G02*
X180600001Y-31190000I1838478J-1838478D01*
G01*
X180600000Y-31190000D02*
G75*
G02*
X176161522Y-33028478I-2600000J0D01*
G01*
%TO.C,Q4*%
X85350000Y-32110000D02*
X85350000Y-28510000D01*
X80900000Y-30310000D02*
G75*
G02*
X85338478Y-28471522I2600000J0D01*
G01*
X85338478Y-32148478D02*
G75*
G02*
X80899999Y-30310000I-1838478J1838478D01*
G01*
%TO.C,Q28*%
X155350000Y-31490000D02*
X155350000Y-27890000D01*
X150900000Y-29690000D02*
G75*
G02*
X155338478Y-27851522I2600000J0D01*
G01*
X155338478Y-31528478D02*
G75*
G02*
X150899999Y-29690000I-1838478J1838478D01*
G01*
%TO.C,R34*%
X96130000Y-37230000D02*
X96130000Y-43770000D01*
X96130000Y-43770000D02*
X98870000Y-43770000D01*
X97500000Y-36460000D02*
X97500000Y-37230000D01*
X97500000Y-44540000D02*
X97500000Y-43770000D01*
X98870000Y-37230000D02*
X96130000Y-37230000D01*
X98870000Y-43770000D02*
X98870000Y-37230000D01*
%TO.C,R63*%
X171130000Y-17230000D02*
X171130000Y-23770000D01*
X171130000Y-23770000D02*
X173870000Y-23770000D01*
X172500000Y-16460000D02*
X172500000Y-17230000D01*
X172500000Y-24540000D02*
X172500000Y-23770000D01*
X173870000Y-17230000D02*
X171130000Y-17230000D01*
X173870000Y-23770000D02*
X173870000Y-17230000D01*
%TO.C,R7*%
X81130000Y-17270000D02*
X81130000Y-23810000D01*
X81130000Y-23810000D02*
X83870000Y-23810000D01*
X82500000Y-16500000D02*
X82500000Y-17270000D01*
X82500000Y-24580000D02*
X82500000Y-23810000D01*
X83870000Y-17270000D02*
X81130000Y-17270000D01*
X83870000Y-23810000D02*
X83870000Y-17270000D01*
%TO.C,R65*%
X176130000Y-17230000D02*
X176130000Y-23770000D01*
X176130000Y-23770000D02*
X178870000Y-23770000D01*
X177500000Y-16460000D02*
X177500000Y-17230000D01*
X177500000Y-24540000D02*
X177500000Y-23770000D01*
X178870000Y-17230000D02*
X176130000Y-17230000D01*
X178870000Y-23770000D02*
X178870000Y-17230000D01*
%TO.C,R15*%
X61000000Y-17310000D02*
X61000000Y-23850000D01*
X61000000Y-23850000D02*
X63740000Y-23850000D01*
X62370000Y-16540000D02*
X62370000Y-17310000D01*
X62370000Y-24620000D02*
X62370000Y-23850000D01*
X63740000Y-17310000D02*
X61000000Y-17310000D01*
X63740000Y-23850000D02*
X63740000Y-17310000D01*
%TO.C,Q22*%
X125350000Y-31490000D02*
X125350000Y-27890000D01*
X120900000Y-29690000D02*
G75*
G02*
X125338478Y-27851522I2600000J0D01*
G01*
X125338478Y-31528478D02*
G75*
G02*
X120899999Y-29690000I-1838478J1838478D01*
G01*
%TO.C,Q12*%
X45350000Y-31570000D02*
X45350000Y-27970000D01*
X40900000Y-29770000D02*
G75*
G02*
X45338478Y-27931522I2600000J0D01*
G01*
X45338478Y-31608478D02*
G75*
G02*
X40899999Y-29770000I-1838478J1838478D01*
G01*
%TO.C,Q2*%
X95350000Y-31570000D02*
X95350000Y-27970000D01*
X90900000Y-29770000D02*
G75*
G02*
X95338478Y-27931522I2600000J0D01*
G01*
X95338478Y-31608478D02*
G75*
G02*
X90899999Y-29770000I-1838478J1838478D01*
G01*
%TO.C,R6*%
X76130000Y-37350000D02*
X76130000Y-43890000D01*
X76130000Y-43890000D02*
X78870000Y-43890000D01*
X77500000Y-36580000D02*
X77500000Y-37350000D01*
X77500000Y-44660000D02*
X77500000Y-43890000D01*
X78870000Y-37350000D02*
X76130000Y-37350000D01*
X78870000Y-43890000D02*
X78870000Y-37350000D01*
%TO.C,R51*%
X141130000Y-17230000D02*
X141130000Y-23770000D01*
X141130000Y-23770000D02*
X143870000Y-23770000D01*
X142500000Y-16460000D02*
X142500000Y-17230000D01*
X142500000Y-24540000D02*
X142500000Y-23770000D01*
X143870000Y-17230000D02*
X141130000Y-17230000D01*
X143870000Y-23770000D02*
X143870000Y-17230000D01*
%TO.C,Q7*%
X56020000Y-29470000D02*
X56020000Y-33070000D01*
X56031522Y-29431522D02*
G75*
G02*
X60470001Y-31270000I1838478J-1838478D01*
G01*
X60470000Y-31270000D02*
G75*
G02*
X56031522Y-33108478I-2600000J0D01*
G01*
%TO.C,R59*%
X161130000Y-17230000D02*
X161130000Y-23770000D01*
X161130000Y-23770000D02*
X163870000Y-23770000D01*
X162500000Y-16460000D02*
X162500000Y-17230000D01*
X162500000Y-24540000D02*
X162500000Y-23770000D01*
X163870000Y-17230000D02*
X161130000Y-17230000D01*
X163870000Y-23770000D02*
X163870000Y-17230000D01*
%TO.C,R18*%
X46130000Y-37310000D02*
X46130000Y-43850000D01*
X46130000Y-43850000D02*
X48870000Y-43850000D01*
X47500000Y-36540000D02*
X47500000Y-37310000D01*
X47500000Y-44620000D02*
X47500000Y-43850000D01*
X48870000Y-37310000D02*
X46130000Y-37310000D01*
X48870000Y-43850000D02*
X48870000Y-37310000D01*
%TO.C,Q20*%
X111150000Y-27850000D02*
X111150000Y-31450000D01*
X111161522Y-27811522D02*
G75*
G02*
X115600001Y-29650000I1838478J-1838478D01*
G01*
X115600000Y-29650000D02*
G75*
G02*
X111161522Y-31488478I-2600000J0D01*
G01*
%TO.C,R46*%
X126130000Y-37230000D02*
X126130000Y-43770000D01*
X126130000Y-43770000D02*
X128870000Y-43770000D01*
X127500000Y-36460000D02*
X127500000Y-37230000D01*
X127500000Y-44540000D02*
X127500000Y-43770000D01*
X128870000Y-37230000D02*
X126130000Y-37230000D01*
X128870000Y-43770000D02*
X128870000Y-37230000D01*
%TO.C,R35*%
X101130000Y-17230000D02*
X101130000Y-23770000D01*
X101130000Y-23770000D02*
X103870000Y-23770000D01*
X102500000Y-16460000D02*
X102500000Y-17230000D01*
X102500000Y-24540000D02*
X102500000Y-23770000D01*
X103870000Y-17230000D02*
X101130000Y-17230000D01*
X103870000Y-23770000D02*
X103870000Y-17230000D01*
%TO.C,R23*%
X41130000Y-17310000D02*
X41130000Y-23850000D01*
X41130000Y-23850000D02*
X43870000Y-23850000D01*
X42500000Y-16540000D02*
X42500000Y-17310000D01*
X42500000Y-24620000D02*
X42500000Y-23850000D01*
X43870000Y-17310000D02*
X41130000Y-17310000D01*
X43870000Y-23850000D02*
X43870000Y-17310000D01*
%TO.C,Q16*%
X25080000Y-31570000D02*
X25080000Y-27970000D01*
X20630000Y-29770000D02*
G75*
G02*
X25068478Y-27931522I2600000J0D01*
G01*
X25068478Y-31608478D02*
G75*
G02*
X20629999Y-29770000I-1838478J1838478D01*
G01*
%TO.C,Q31*%
X166150000Y-29390000D02*
X166150000Y-32990000D01*
X166161522Y-29351522D02*
G75*
G02*
X170600001Y-31190000I1838478J-1838478D01*
G01*
X170600000Y-31190000D02*
G75*
G02*
X166161522Y-33028478I-2600000J0D01*
G01*
%TO.C,R67*%
X181130000Y-17230000D02*
X181130000Y-23770000D01*
X181130000Y-23770000D02*
X183870000Y-23770000D01*
X182500000Y-16460000D02*
X182500000Y-17230000D01*
X182500000Y-24540000D02*
X182500000Y-23770000D01*
X183870000Y-17230000D02*
X181130000Y-17230000D01*
X183870000Y-23770000D02*
X183870000Y-17230000D01*
%TO.C,R49*%
X136130000Y-17230000D02*
X136130000Y-23770000D01*
X136130000Y-23770000D02*
X138870000Y-23770000D01*
X137500000Y-16460000D02*
X137500000Y-17230000D01*
X137500000Y-24540000D02*
X137500000Y-23770000D01*
X138870000Y-17230000D02*
X136130000Y-17230000D01*
X138870000Y-23770000D02*
X138870000Y-17230000D01*
%TO.C,R38*%
X106130000Y-37230000D02*
X106130000Y-43770000D01*
X106130000Y-43770000D02*
X108870000Y-43770000D01*
X107500000Y-36460000D02*
X107500000Y-37230000D01*
X107500000Y-44540000D02*
X107500000Y-43770000D01*
X108870000Y-37230000D02*
X106130000Y-37230000D01*
X108870000Y-43770000D02*
X108870000Y-37230000D01*
%TO.C,R11*%
X71130000Y-17310000D02*
X71130000Y-23850000D01*
X71130000Y-23850000D02*
X73870000Y-23850000D01*
X72500000Y-16540000D02*
X72500000Y-17310000D01*
X72500000Y-24620000D02*
X72500000Y-23850000D01*
X73870000Y-17310000D02*
X71130000Y-17310000D01*
X73870000Y-23850000D02*
X73870000Y-17310000D01*
%TO.C,R58*%
X156130000Y-37230000D02*
X156130000Y-43770000D01*
X156130000Y-43770000D02*
X158870000Y-43770000D01*
X157500000Y-36460000D02*
X157500000Y-37230000D01*
X157500000Y-44540000D02*
X157500000Y-43770000D01*
X158870000Y-37230000D02*
X156130000Y-37230000D01*
X158870000Y-43770000D02*
X158870000Y-37230000D01*
%TO.C,R3*%
X86130000Y-37310000D02*
X86130000Y-43850000D01*
X86130000Y-43850000D02*
X88870000Y-43850000D01*
X87500000Y-36540000D02*
X87500000Y-37310000D01*
X87500000Y-44620000D02*
X87500000Y-43850000D01*
X88870000Y-37310000D02*
X86130000Y-37310000D01*
X88870000Y-43850000D02*
X88870000Y-37310000D01*
%TO.C,R45*%
X126130000Y-17230000D02*
X126130000Y-23770000D01*
X126130000Y-23770000D02*
X128870000Y-23770000D01*
X127500000Y-16460000D02*
X127500000Y-17230000D01*
X127500000Y-24540000D02*
X127500000Y-23770000D01*
X128870000Y-17230000D02*
X126130000Y-17230000D01*
X128870000Y-23770000D02*
X128870000Y-17230000D01*
%TO.C,R4*%
X91130000Y-37310000D02*
X91130000Y-43850000D01*
X91130000Y-43850000D02*
X93870000Y-43850000D01*
X92500000Y-36540000D02*
X92500000Y-37310000D01*
X92500000Y-44620000D02*
X92500000Y-43850000D01*
X93870000Y-37310000D02*
X91130000Y-37310000D01*
X93870000Y-43850000D02*
X93870000Y-37310000D01*
%TO.C,R32*%
X20630000Y-37310000D02*
X20630000Y-43850000D01*
X20630000Y-43850000D02*
X23370000Y-43850000D01*
X22000000Y-36540000D02*
X22000000Y-37310000D01*
X22000000Y-44620000D02*
X22000000Y-43850000D01*
X23370000Y-37310000D02*
X20630000Y-37310000D01*
X23370000Y-43850000D02*
X23370000Y-37310000D01*
%TO.C,Q26*%
X145350000Y-31490000D02*
X145350000Y-27890000D01*
X140900000Y-29690000D02*
G75*
G02*
X145338478Y-27851522I2600000J0D01*
G01*
X145338478Y-31528478D02*
G75*
G02*
X140899999Y-29690000I-1838478J1838478D01*
G01*
%TO.C,R22*%
X36130000Y-37310000D02*
X36130000Y-43850000D01*
X36130000Y-43850000D02*
X38870000Y-43850000D01*
X37500000Y-36540000D02*
X37500000Y-37310000D01*
X37500000Y-44620000D02*
X37500000Y-43850000D01*
X38870000Y-37310000D02*
X36130000Y-37310000D01*
X38870000Y-43850000D02*
X38870000Y-37310000D01*
%TO.C,Q14*%
X35580000Y-31570000D02*
X35580000Y-27970000D01*
X31130000Y-29770000D02*
G75*
G02*
X35568478Y-27931522I2600000J0D01*
G01*
X35568478Y-31608478D02*
G75*
G02*
X31129999Y-29770000I-1838478J1838478D01*
G01*
%TO.C,Q25*%
X136150000Y-29390000D02*
X136150000Y-32990000D01*
X136161522Y-29351522D02*
G75*
G02*
X140600001Y-31190000I1838478J-1838478D01*
G01*
X140600000Y-31190000D02*
G75*
G02*
X136161522Y-33028478I-2600000J0D01*
G01*
%TO.C,Q30*%
X165350000Y-31490000D02*
X165350000Y-27890000D01*
X160900000Y-29690000D02*
G75*
G02*
X165338478Y-27851522I2600000J0D01*
G01*
X165338478Y-31528478D02*
G75*
G02*
X160899999Y-29690000I-1838478J1838478D01*
G01*
%TO.C,R12*%
X71130000Y-37310000D02*
X71130000Y-43850000D01*
X71130000Y-43850000D02*
X73870000Y-43850000D01*
X72500000Y-36540000D02*
X72500000Y-37310000D01*
X72500000Y-44620000D02*
X72500000Y-43850000D01*
X73870000Y-37310000D02*
X71130000Y-37310000D01*
X73870000Y-43850000D02*
X73870000Y-37310000D01*
%TO.C,R57*%
X156130000Y-17230000D02*
X156130000Y-23770000D01*
X156130000Y-23770000D02*
X158870000Y-23770000D01*
X157500000Y-16460000D02*
X157500000Y-17230000D01*
X157500000Y-24540000D02*
X157500000Y-23770000D01*
X158870000Y-17230000D02*
X156130000Y-17230000D01*
X158870000Y-23770000D02*
X158870000Y-17230000D01*
%TO.C,R26*%
X26130000Y-37310000D02*
X26130000Y-43850000D01*
X26130000Y-43850000D02*
X28870000Y-43850000D01*
X27500000Y-36540000D02*
X27500000Y-37310000D01*
X27500000Y-44620000D02*
X27500000Y-43850000D01*
X28870000Y-37310000D02*
X26130000Y-37310000D01*
X28870000Y-43850000D02*
X28870000Y-37310000D01*
%TO.C,R44*%
X121130000Y-37230000D02*
X121130000Y-43770000D01*
X121130000Y-43770000D02*
X123870000Y-43770000D01*
X122500000Y-36460000D02*
X122500000Y-37230000D01*
X122500000Y-44540000D02*
X122500000Y-43770000D01*
X123870000Y-37230000D02*
X121130000Y-37230000D01*
X123870000Y-43770000D02*
X123870000Y-37230000D01*
%TO.C,R1*%
X86130000Y-17310000D02*
X86130000Y-23850000D01*
X86130000Y-23850000D02*
X88870000Y-23850000D01*
X87500000Y-16540000D02*
X87500000Y-17310000D01*
X87500000Y-24620000D02*
X87500000Y-23850000D01*
X88870000Y-17310000D02*
X86130000Y-17310000D01*
X88870000Y-23850000D02*
X88870000Y-17310000D01*
%TO.C,Q15*%
X15650000Y-29470000D02*
X15650000Y-33070000D01*
X15661522Y-29431522D02*
G75*
G02*
X20100001Y-31270000I1838478J-1838478D01*
G01*
X20100000Y-31270000D02*
G75*
G02*
X15661522Y-33108478I-2600000J0D01*
G01*
%TO.C,R47*%
X131130000Y-17230000D02*
X131130000Y-23770000D01*
X131130000Y-23770000D02*
X133870000Y-23770000D01*
X132500000Y-16460000D02*
X132500000Y-17230000D01*
X132500000Y-24540000D02*
X132500000Y-23770000D01*
X133870000Y-17230000D02*
X131130000Y-17230000D01*
X133870000Y-23770000D02*
X133870000Y-17230000D01*
%TO.C,R66*%
X176130000Y-37230000D02*
X176130000Y-43770000D01*
X176130000Y-43770000D02*
X178870000Y-43770000D01*
X177500000Y-36460000D02*
X177500000Y-37230000D01*
X177500000Y-44540000D02*
X177500000Y-43770000D01*
X178870000Y-37230000D02*
X176130000Y-37230000D01*
X178870000Y-43770000D02*
X178870000Y-37230000D01*
%TO.C,R27*%
X31130000Y-17310000D02*
X31130000Y-23850000D01*
X31130000Y-23850000D02*
X33870000Y-23850000D01*
X32500000Y-16540000D02*
X32500000Y-17310000D01*
X32500000Y-24620000D02*
X32500000Y-23850000D01*
X33870000Y-17310000D02*
X31130000Y-17310000D01*
X33870000Y-23850000D02*
X33870000Y-17310000D01*
%TO.C,R53*%
X146130000Y-17230000D02*
X146130000Y-23770000D01*
X146130000Y-23770000D02*
X148870000Y-23770000D01*
X147500000Y-16460000D02*
X147500000Y-17230000D01*
X147500000Y-24540000D02*
X147500000Y-23770000D01*
X148870000Y-17230000D02*
X146130000Y-17230000D01*
X148870000Y-23770000D02*
X148870000Y-17230000D01*
%TO.C,R17*%
X46130000Y-17310000D02*
X46130000Y-23850000D01*
X46130000Y-23850000D02*
X48870000Y-23850000D01*
X47500000Y-16540000D02*
X47500000Y-17310000D01*
X47500000Y-24620000D02*
X47500000Y-23850000D01*
X48870000Y-17310000D02*
X46130000Y-17310000D01*
X48870000Y-23850000D02*
X48870000Y-17310000D01*
%TO.C,R61*%
X166130000Y-17230000D02*
X166130000Y-23770000D01*
X166130000Y-23770000D02*
X168870000Y-23770000D01*
X167500000Y-16460000D02*
X167500000Y-17230000D01*
X167500000Y-24540000D02*
X167500000Y-23770000D01*
X168870000Y-17230000D02*
X166130000Y-17230000D01*
X168870000Y-23770000D02*
X168870000Y-17230000D01*
%TO.C,R50*%
X136130000Y-37230000D02*
X136130000Y-43770000D01*
X136130000Y-43770000D02*
X138870000Y-43770000D01*
X137500000Y-36460000D02*
X137500000Y-37230000D01*
X137500000Y-44540000D02*
X137500000Y-43770000D01*
X138870000Y-37230000D02*
X136130000Y-37230000D01*
X138870000Y-43770000D02*
X138870000Y-37230000D01*
%TO.C,R5*%
X76130000Y-17350000D02*
X76130000Y-23890000D01*
X76130000Y-23890000D02*
X78870000Y-23890000D01*
X77500000Y-16580000D02*
X77500000Y-17350000D01*
X77500000Y-24660000D02*
X77500000Y-23890000D01*
X78870000Y-17350000D02*
X76130000Y-17350000D01*
X78870000Y-23890000D02*
X78870000Y-17350000D01*
%TO.C,R33*%
X96130000Y-17230000D02*
X96130000Y-23770000D01*
X96130000Y-23770000D02*
X98870000Y-23770000D01*
X97500000Y-16460000D02*
X97500000Y-17230000D01*
X97500000Y-24540000D02*
X97500000Y-23770000D01*
X98870000Y-17230000D02*
X96130000Y-17230000D01*
X98870000Y-23770000D02*
X98870000Y-17230000D01*
%TO.C,R24*%
X41130000Y-37310000D02*
X41130000Y-43850000D01*
X41130000Y-43850000D02*
X43870000Y-43850000D01*
X42500000Y-36540000D02*
X42500000Y-37310000D01*
X42500000Y-44620000D02*
X42500000Y-43850000D01*
X43870000Y-37310000D02*
X41130000Y-37310000D01*
X43870000Y-43850000D02*
X43870000Y-37310000D01*
%TO.C,Q3*%
X76150000Y-29510000D02*
X76150000Y-33110000D01*
X76161522Y-29471522D02*
G75*
G02*
X80600001Y-31310000I1838478J-1838478D01*
G01*
X80600000Y-31310000D02*
G75*
G02*
X76161522Y-33148478I-2600000J0D01*
G01*
%TO.C,R42*%
X116130000Y-37230000D02*
X116130000Y-43770000D01*
X116130000Y-43770000D02*
X118870000Y-43770000D01*
X117500000Y-36460000D02*
X117500000Y-37230000D01*
X117500000Y-44540000D02*
X117500000Y-43770000D01*
X118870000Y-37230000D02*
X116130000Y-37230000D01*
X118870000Y-43770000D02*
X118870000Y-37230000D01*
%TO.C,R20*%
X51130000Y-37310000D02*
X51130000Y-43850000D01*
X51130000Y-43850000D02*
X53870000Y-43850000D01*
X52500000Y-36540000D02*
X52500000Y-37310000D01*
X52500000Y-44620000D02*
X52500000Y-43850000D01*
X53870000Y-37310000D02*
X51130000Y-37310000D01*
X53870000Y-43850000D02*
X53870000Y-37310000D01*
%TO.C,Q24*%
X135350000Y-31490000D02*
X135350000Y-27890000D01*
X130900000Y-29690000D02*
G75*
G02*
X135338478Y-27851522I2600000J0D01*
G01*
X135338478Y-31528478D02*
G75*
G02*
X130899999Y-29690000I-1838478J1838478D01*
G01*
%TO.C,D2*%
X149620000Y-72200000D02*
X148120000Y-72200000D01*
X149620000Y-68600000D02*
X149620000Y-72200000D01*
X146420000Y-68600000D02*
X146420000Y-69100000D01*
X144120000Y-72200000D02*
X142620000Y-72200000D01*
X139420000Y-72200000D02*
X137520000Y-72200000D01*
X134420000Y-72200000D02*
X132420000Y-72200000D01*
X129320000Y-72200000D02*
X127320000Y-72200000D01*
X127320000Y-72200000D02*
X127320000Y-68600000D01*
X127320000Y-68600000D02*
X149620000Y-68600000D01*
%TO.C,Q5*%
X66150000Y-29470000D02*
X66150000Y-33070000D01*
X66161522Y-29431522D02*
G75*
G02*
X70600001Y-31270000I1838478J-1838478D01*
G01*
X70600000Y-31270000D02*
G75*
G02*
X66161522Y-33108478I-2600000J0D01*
G01*
%TO.C,R54*%
X146130000Y-37230000D02*
X146130000Y-43770000D01*
X146130000Y-43770000D02*
X148870000Y-43770000D01*
X147500000Y-36460000D02*
X147500000Y-37230000D01*
X147500000Y-44540000D02*
X147500000Y-43770000D01*
X148870000Y-37230000D02*
X146130000Y-37230000D01*
X148870000Y-43770000D02*
X148870000Y-37230000D01*
%TO.C,R68*%
X181130000Y-37230000D02*
X181130000Y-43770000D01*
X181130000Y-43770000D02*
X183870000Y-43770000D01*
X182500000Y-36460000D02*
X182500000Y-37230000D01*
X182500000Y-44540000D02*
X182500000Y-43770000D01*
X183870000Y-37230000D02*
X181130000Y-37230000D01*
X183870000Y-43770000D02*
X183870000Y-37230000D01*
%TO.C,Q9*%
X46150000Y-29470000D02*
X46150000Y-33070000D01*
X46161522Y-29431522D02*
G75*
G02*
X50600001Y-31270000I1838478J-1838478D01*
G01*
X50600000Y-31270000D02*
G75*
G02*
X46161522Y-33108478I-2600000J0D01*
G01*
%TO.C,R8*%
X81130000Y-37350000D02*
X81130000Y-43890000D01*
X81130000Y-43890000D02*
X83870000Y-43890000D01*
X82500000Y-36580000D02*
X82500000Y-37350000D01*
X82500000Y-44660000D02*
X82500000Y-43890000D01*
X83870000Y-37350000D02*
X81130000Y-37350000D01*
X83870000Y-43890000D02*
X83870000Y-37350000D01*
%TO.C,R55*%
X151130000Y-17230000D02*
X151130000Y-23770000D01*
X151130000Y-23770000D02*
X153870000Y-23770000D01*
X152500000Y-16460000D02*
X152500000Y-17230000D01*
X152500000Y-24540000D02*
X152500000Y-23770000D01*
X153870000Y-17230000D02*
X151130000Y-17230000D01*
X153870000Y-23770000D02*
X153870000Y-17230000D01*
%TO.C,R60*%
X161130000Y-37230000D02*
X161130000Y-43770000D01*
X161130000Y-43770000D02*
X163870000Y-43770000D01*
X162500000Y-36460000D02*
X162500000Y-37230000D01*
X162500000Y-44540000D02*
X162500000Y-43770000D01*
X163870000Y-37230000D02*
X161130000Y-37230000D01*
X163870000Y-43770000D02*
X163870000Y-37230000D01*
%TO.C,R62*%
X166130000Y-37230000D02*
X166130000Y-43770000D01*
X166130000Y-43770000D02*
X168870000Y-43770000D01*
X167500000Y-36460000D02*
X167500000Y-37230000D01*
X167500000Y-44540000D02*
X167500000Y-43770000D01*
X168870000Y-37230000D02*
X166130000Y-37230000D01*
X168870000Y-43770000D02*
X168870000Y-37230000D01*
%TO.C,R36*%
X101130000Y-37230000D02*
X101130000Y-43770000D01*
X101130000Y-43770000D02*
X103870000Y-43770000D01*
X102500000Y-36460000D02*
X102500000Y-37230000D01*
X102500000Y-44540000D02*
X102500000Y-43770000D01*
X103870000Y-37230000D02*
X101130000Y-37230000D01*
X103870000Y-43770000D02*
X103870000Y-37230000D01*
%TO.C,U1*%
X179310000Y-53130000D02*
G75*
G02*
X177310000Y-53130000I-1000000J0D01*
G01*
X183450000Y-53070000D02*
X173170000Y-53070000D01*
X173170000Y-53070000D02*
X173170000Y-73630000D01*
X180960000Y-53130000D02*
X179310000Y-53130000D01*
X177310000Y-53130000D02*
X175660000Y-53130000D01*
X175660000Y-53130000D02*
X175660000Y-73570000D01*
X180960000Y-73570000D02*
X180960000Y-53130000D01*
X175660000Y-73570000D02*
X180960000Y-73570000D01*
X183450000Y-73630000D02*
X183450000Y-53070000D01*
X173170000Y-73630000D02*
X183450000Y-73630000D01*
%TO.C,R14*%
X56000000Y-37310000D02*
X56000000Y-43850000D01*
X56000000Y-43850000D02*
X58740000Y-43850000D01*
X57370000Y-36540000D02*
X57370000Y-37310000D01*
X57370000Y-44620000D02*
X57370000Y-43850000D01*
X58740000Y-37310000D02*
X56000000Y-37310000D01*
X58740000Y-43850000D02*
X58740000Y-37310000D01*
%TO.C,R25*%
X26130000Y-17310000D02*
X26130000Y-23850000D01*
X26130000Y-23850000D02*
X28870000Y-23850000D01*
X27500000Y-16540000D02*
X27500000Y-17310000D01*
X27500000Y-24620000D02*
X27500000Y-23850000D01*
X28870000Y-17310000D02*
X26130000Y-17310000D01*
X28870000Y-23850000D02*
X28870000Y-17310000D01*
%TO.C,C1*%
X90361000Y-54719000D02*
X94038000Y-54719000D01*
X90361000Y-54679000D02*
X94027000Y-54679000D01*
X90361000Y-54639000D02*
X94017000Y-54639000D01*
X90361000Y-54599000D02*
X94005000Y-54599000D01*
X90361000Y-54559000D02*
X93994000Y-54559000D01*
X90361000Y-54519000D02*
X93982000Y-54519000D01*
X90361000Y-54479000D02*
X93970000Y-54479000D01*
X90361000Y-54439000D02*
X93957000Y-54439000D01*
X90361000Y-54399000D02*
X93944000Y-54399000D01*
X90361000Y-54359000D02*
X93931000Y-54359000D01*
X90361000Y-54319000D02*
X93917000Y-54319000D01*
X90361000Y-54279000D02*
X93903000Y-54279000D01*
X90361000Y-54239000D02*
X93888000Y-54239000D01*
X90361000Y-54199000D02*
X93874000Y-54199000D01*
X90361000Y-54159000D02*
X93858000Y-54159000D01*
X90361000Y-54119000D02*
X93843000Y-54119000D01*
X90361000Y-54079000D02*
X93827000Y-54079000D01*
X90361000Y-54039000D02*
X93810000Y-54039000D01*
X90361000Y-53999000D02*
X93794000Y-53999000D01*
X90361000Y-53959000D02*
X93777000Y-53959000D01*
X90361000Y-53919000D02*
X93759000Y-53919000D01*
X90361000Y-53879000D02*
X93741000Y-53879000D01*
X90361000Y-53839000D02*
X93723000Y-53839000D01*
X90361000Y-53799000D02*
X93704000Y-53799000D01*
X90361000Y-53759000D02*
X93684000Y-53759000D01*
X90361000Y-53719000D02*
X93665000Y-53719000D01*
X90361000Y-53679000D02*
X93645000Y-53679000D01*
X90361000Y-53639000D02*
X93624000Y-53639000D01*
X90361000Y-53599000D02*
X93603000Y-53599000D01*
X90361000Y-53559000D02*
X93582000Y-53559000D01*
X90361000Y-53519000D02*
X93560000Y-53519000D01*
X90361000Y-53479000D02*
X93537000Y-53479000D01*
X90361000Y-53439000D02*
X93515000Y-53439000D01*
X90361000Y-53399000D02*
X93491000Y-53399000D01*
X90361000Y-53359000D02*
X93467000Y-53359000D01*
X90361000Y-53319000D02*
X93443000Y-53319000D01*
X90361000Y-53279000D02*
X93418000Y-53279000D01*
X90361000Y-53239000D02*
X93393000Y-53239000D01*
X90361000Y-53199000D02*
X93367000Y-53199000D01*
X90361000Y-53159000D02*
X93341000Y-53159000D01*
X90361000Y-53119000D02*
X93314000Y-53119000D01*
X90361000Y-53079000D02*
X93286000Y-53079000D01*
X90361000Y-53039000D02*
X93258000Y-53039000D01*
X90361000Y-52999000D02*
X93230000Y-52999000D01*
X90361000Y-52959000D02*
X93200000Y-52959000D01*
X90361000Y-52919000D02*
X93170000Y-52919000D01*
X90361000Y-52879000D02*
X93140000Y-52879000D01*
X90361000Y-52839000D02*
X93109000Y-52839000D01*
X90361000Y-52799000D02*
X93077000Y-52799000D01*
X90361000Y-52759000D02*
X93045000Y-52759000D01*
X90361000Y-52719000D02*
X93012000Y-52719000D01*
X90361000Y-52679000D02*
X92978000Y-52679000D01*
X90361000Y-52639000D02*
X92944000Y-52639000D01*
X90361000Y-52599000D02*
X92909000Y-52599000D01*
X90361000Y-52559000D02*
X92873000Y-52559000D01*
X90361000Y-52519000D02*
X92836000Y-52519000D01*
X90361000Y-52479000D02*
X92799000Y-52479000D01*
X90361000Y-52439000D02*
X92760000Y-52439000D01*
X90361000Y-52399000D02*
X92721000Y-52399000D01*
X90361000Y-52359000D02*
X92681000Y-52359000D01*
X90361000Y-52319000D02*
X92640000Y-52319000D01*
X90361000Y-52279000D02*
X92598000Y-52279000D01*
X88521000Y-50919000D02*
X89719000Y-50919000D01*
X88258000Y-50959000D02*
X89982000Y-50959000D01*
X88058000Y-50999000D02*
X90182000Y-50999000D01*
X87890000Y-51039000D02*
X90350000Y-51039000D01*
X87742000Y-51079000D02*
X90498000Y-51079000D01*
X87610000Y-51119000D02*
X90630000Y-51119000D01*
X87490000Y-51159000D02*
X90750000Y-51159000D01*
X87378000Y-51199000D02*
X90862000Y-51199000D01*
X87274000Y-51239000D02*
X90966000Y-51239000D01*
X87176000Y-51279000D02*
X91064000Y-51279000D01*
X87083000Y-51319000D02*
X91157000Y-51319000D01*
X86995000Y-51359000D02*
X91245000Y-51359000D01*
X86911000Y-51399000D02*
X91329000Y-51399000D01*
X86831000Y-51439000D02*
X91409000Y-51439000D01*
X86755000Y-51479000D02*
X91485000Y-51479000D01*
X86681000Y-51519000D02*
X91559000Y-51519000D01*
X86610000Y-51559000D02*
X91630000Y-51559000D01*
X86541000Y-51599000D02*
X91699000Y-51599000D01*
X86475000Y-51639000D02*
X91765000Y-51639000D01*
X86411000Y-51679000D02*
X91829000Y-51679000D01*
X86350000Y-51719000D02*
X91890000Y-51719000D01*
X86290000Y-51759000D02*
X91950000Y-51759000D01*
X86245000Y-61479646D02*
X86245000Y-60479646D01*
X86231000Y-51799000D02*
X92009000Y-51799000D01*
X86175000Y-51839000D02*
X92065000Y-51839000D01*
X86120000Y-51879000D02*
X92120000Y-51879000D01*
X86066000Y-51919000D02*
X92174000Y-51919000D01*
X86014000Y-51959000D02*
X92226000Y-51959000D01*
X85964000Y-51999000D02*
X92276000Y-51999000D01*
X85914000Y-52039000D02*
X92326000Y-52039000D01*
X85866000Y-52079000D02*
X92374000Y-52079000D01*
X85819000Y-52119000D02*
X92421000Y-52119000D01*
X85773000Y-52159000D02*
X92467000Y-52159000D01*
X85745000Y-60979646D02*
X86745000Y-60979646D01*
X85728000Y-52199000D02*
X92512000Y-52199000D01*
X85684000Y-52239000D02*
X92556000Y-52239000D01*
X85642000Y-52279000D02*
X87879000Y-52279000D01*
X85600000Y-52319000D02*
X87879000Y-52319000D01*
X85559000Y-52359000D02*
X87879000Y-52359000D01*
X85519000Y-52399000D02*
X87879000Y-52399000D01*
X85480000Y-52439000D02*
X87879000Y-52439000D01*
X85441000Y-52479000D02*
X87879000Y-52479000D01*
X85404000Y-52519000D02*
X87879000Y-52519000D01*
X85367000Y-52559000D02*
X87879000Y-52559000D01*
X85331000Y-52599000D02*
X87879000Y-52599000D01*
X85296000Y-52639000D02*
X87879000Y-52639000D01*
X85262000Y-52679000D02*
X87879000Y-52679000D01*
X85228000Y-52719000D02*
X87879000Y-52719000D01*
X85195000Y-52759000D02*
X87879000Y-52759000D01*
X85163000Y-52799000D02*
X87879000Y-52799000D01*
X85131000Y-52839000D02*
X87879000Y-52839000D01*
X85100000Y-52879000D02*
X87879000Y-52879000D01*
X85070000Y-52919000D02*
X87879000Y-52919000D01*
X85040000Y-52959000D02*
X87879000Y-52959000D01*
X85010000Y-52999000D02*
X87879000Y-52999000D01*
X84982000Y-53039000D02*
X87879000Y-53039000D01*
X84954000Y-53079000D02*
X87879000Y-53079000D01*
X84926000Y-53119000D02*
X87879000Y-53119000D01*
X84899000Y-53159000D02*
X87879000Y-53159000D01*
X84873000Y-53199000D02*
X87879000Y-53199000D01*
X84847000Y-53239000D02*
X87879000Y-53239000D01*
X84822000Y-53279000D02*
X87879000Y-53279000D01*
X84797000Y-53319000D02*
X87879000Y-53319000D01*
X84773000Y-53359000D02*
X87879000Y-53359000D01*
X84749000Y-53399000D02*
X87879000Y-53399000D01*
X84725000Y-53439000D02*
X87879000Y-53439000D01*
X84703000Y-53479000D02*
X87879000Y-53479000D01*
X84680000Y-53519000D02*
X87879000Y-53519000D01*
X84658000Y-53559000D02*
X87879000Y-53559000D01*
X84637000Y-53599000D02*
X87879000Y-53599000D01*
X84616000Y-53639000D02*
X87879000Y-53639000D01*
X84595000Y-53679000D02*
X87879000Y-53679000D01*
X84575000Y-53719000D02*
X87879000Y-53719000D01*
X84556000Y-53759000D02*
X87879000Y-53759000D01*
X84536000Y-53799000D02*
X87879000Y-53799000D01*
X84517000Y-53839000D02*
X87879000Y-53839000D01*
X84499000Y-53879000D02*
X87879000Y-53879000D01*
X84481000Y-53919000D02*
X87879000Y-53919000D01*
X84463000Y-53959000D02*
X87879000Y-53959000D01*
X84446000Y-53999000D02*
X87879000Y-53999000D01*
X84430000Y-54039000D02*
X87879000Y-54039000D01*
X84413000Y-54079000D02*
X87879000Y-54079000D01*
X84397000Y-54119000D02*
X87879000Y-54119000D01*
X84382000Y-54159000D02*
X87879000Y-54159000D01*
X84366000Y-54199000D02*
X87879000Y-54199000D01*
X84352000Y-54239000D02*
X87879000Y-54239000D01*
X84337000Y-54279000D02*
X87879000Y-54279000D01*
X84323000Y-54319000D02*
X87879000Y-54319000D01*
X84309000Y-54359000D02*
X87879000Y-54359000D01*
X84296000Y-54399000D02*
X87879000Y-54399000D01*
X84283000Y-54439000D02*
X87879000Y-54439000D01*
X84270000Y-54479000D02*
X87879000Y-54479000D01*
X84258000Y-54519000D02*
X87879000Y-54519000D01*
X84246000Y-54559000D02*
X87879000Y-54559000D01*
X84235000Y-54599000D02*
X87879000Y-54599000D01*
X84223000Y-54639000D02*
X87879000Y-54639000D01*
X84213000Y-54679000D02*
X87879000Y-54679000D01*
X84202000Y-54719000D02*
X87879000Y-54719000D01*
X84192000Y-54759000D02*
X94048000Y-54759000D01*
X84182000Y-54799000D02*
X94058000Y-54799000D01*
X84173000Y-54839000D02*
X94067000Y-54839000D01*
X84164000Y-54879000D02*
X94076000Y-54879000D01*
X84155000Y-54919000D02*
X94085000Y-54919000D01*
X84146000Y-54959000D02*
X94094000Y-54959000D01*
X84138000Y-54999000D02*
X94102000Y-54999000D01*
X84130000Y-55039000D02*
X94110000Y-55039000D01*
X84123000Y-55079000D02*
X94117000Y-55079000D01*
X84116000Y-55119000D02*
X94124000Y-55119000D01*
X84109000Y-55159000D02*
X94131000Y-55159000D01*
X84102000Y-55199000D02*
X94138000Y-55199000D01*
X84096000Y-55239000D02*
X94144000Y-55239000D01*
X84090000Y-55279000D02*
X94150000Y-55279000D01*
X84085000Y-55320000D02*
X94155000Y-55320000D01*
X84080000Y-55360000D02*
X94160000Y-55360000D01*
X84075000Y-55400000D02*
X94165000Y-55400000D01*
X84070000Y-55440000D02*
X94170000Y-55440000D01*
X84066000Y-55480000D02*
X94174000Y-55480000D01*
X84062000Y-55520000D02*
X94178000Y-55520000D01*
X84058000Y-55560000D02*
X94182000Y-55560000D01*
X84055000Y-55600000D02*
X94185000Y-55600000D01*
X84052000Y-55640000D02*
X94188000Y-55640000D01*
X84050000Y-55680000D02*
X94190000Y-55680000D01*
X84047000Y-55720000D02*
X94193000Y-55720000D01*
X84045000Y-55760000D02*
X94195000Y-55760000D01*
X84043000Y-55800000D02*
X94197000Y-55800000D01*
X84042000Y-55840000D02*
X94198000Y-55840000D01*
X84041000Y-55880000D02*
X94199000Y-55880000D01*
X84040000Y-56000000D02*
X94200000Y-56000000D01*
X84040000Y-55960000D02*
X94200000Y-55960000D01*
X84040000Y-55920000D02*
X94200000Y-55920000D01*
X94240000Y-56000000D02*
G75*
G02*
X84000000Y-56000000I-5120000J0D01*
G01*
X84000000Y-56000000D02*
G75*
G02*
X94240000Y-56000000I5120000J0D01*
G01*
%TO.C,R9*%
X66130000Y-17310000D02*
X66130000Y-23850000D01*
X66130000Y-23850000D02*
X68870000Y-23850000D01*
X67500000Y-16540000D02*
X67500000Y-17310000D01*
X67500000Y-24620000D02*
X67500000Y-23850000D01*
X68870000Y-17310000D02*
X66130000Y-17310000D01*
X68870000Y-23850000D02*
X68870000Y-17310000D01*
%TO.C,Q11*%
X36150000Y-29470000D02*
X36150000Y-33070000D01*
X36161522Y-29431522D02*
G75*
G02*
X40600001Y-31270000I1838478J-1838478D01*
G01*
X40600000Y-31270000D02*
G75*
G02*
X36161522Y-33108478I-2600000J0D01*
G01*
%TO.C,R19*%
X51130000Y-17310000D02*
X51130000Y-23850000D01*
X51130000Y-23850000D02*
X53870000Y-23850000D01*
X52500000Y-16540000D02*
X52500000Y-17310000D01*
X52500000Y-24620000D02*
X52500000Y-23850000D01*
X53870000Y-17310000D02*
X51130000Y-17310000D01*
X53870000Y-23850000D02*
X53870000Y-17310000D01*
%TO.C,R16*%
X61000000Y-37310000D02*
X61000000Y-43850000D01*
X61000000Y-43850000D02*
X63740000Y-43850000D01*
X62370000Y-36540000D02*
X62370000Y-37310000D01*
X62370000Y-44620000D02*
X62370000Y-43850000D01*
X63740000Y-37310000D02*
X61000000Y-37310000D01*
X63740000Y-43850000D02*
X63740000Y-37310000D01*
%TO.C,U3*%
X158670000Y-73630000D02*
X168950000Y-73630000D01*
X168950000Y-73630000D02*
X168950000Y-53070000D01*
X161160000Y-73570000D02*
X166460000Y-73570000D01*
X166460000Y-73570000D02*
X166460000Y-53130000D01*
X161160000Y-53130000D02*
X161160000Y-73570000D01*
X162810000Y-53130000D02*
X161160000Y-53130000D01*
X166460000Y-53130000D02*
X164810000Y-53130000D01*
X158670000Y-53070000D02*
X158670000Y-73630000D01*
X168950000Y-53070000D02*
X158670000Y-53070000D01*
X164810000Y-53130000D02*
G75*
G02*
X162810000Y-53130000I-1000000J0D01*
G01*
%TO.C,Q17*%
X96150000Y-29390000D02*
X96150000Y-32990000D01*
X96161522Y-29351522D02*
G75*
G02*
X100600001Y-31190000I1838478J-1838478D01*
G01*
X100600000Y-31190000D02*
G75*
G02*
X96161522Y-33028478I-2600000J0D01*
G01*
%TO.C,R21*%
X36130000Y-17310000D02*
X36130000Y-23850000D01*
X36130000Y-23850000D02*
X38870000Y-23850000D01*
X37500000Y-16540000D02*
X37500000Y-17310000D01*
X37500000Y-24620000D02*
X37500000Y-23850000D01*
X38870000Y-17310000D02*
X36130000Y-17310000D01*
X38870000Y-23850000D02*
X38870000Y-17310000D01*
%TO.C,R13*%
X56000000Y-17310000D02*
X56000000Y-23850000D01*
X56000000Y-23850000D02*
X58740000Y-23850000D01*
X57370000Y-16540000D02*
X57370000Y-17310000D01*
X57370000Y-24620000D02*
X57370000Y-23850000D01*
X58740000Y-17310000D02*
X56000000Y-17310000D01*
X58740000Y-23850000D02*
X58740000Y-17310000D01*
%TO.C,Q10*%
X55350000Y-31800000D02*
X55350000Y-28200000D01*
X50900000Y-30000000D02*
G75*
G02*
X55338478Y-28161522I2600000J0D01*
G01*
X55338478Y-31838478D02*
G75*
G02*
X50899999Y-30000000I-1838478J1838478D01*
G01*
%TO.C,Q21*%
X116150000Y-29120000D02*
X116150000Y-32720000D01*
X116161522Y-29081522D02*
G75*
G02*
X120600001Y-30920000I1838478J-1838478D01*
G01*
X120600000Y-30920000D02*
G75*
G02*
X116161522Y-32758478I-2600000J0D01*
G01*
%TO.C,R40*%
X111130000Y-37230000D02*
X111130000Y-43770000D01*
X111130000Y-43770000D02*
X113870000Y-43770000D01*
X112500000Y-36460000D02*
X112500000Y-37230000D01*
X112500000Y-44540000D02*
X112500000Y-43770000D01*
X113870000Y-37230000D02*
X111130000Y-37230000D01*
X113870000Y-43770000D02*
X113870000Y-37230000D01*
%TO.C,R37*%
X106130000Y-17230000D02*
X106130000Y-23770000D01*
X106130000Y-23770000D02*
X108870000Y-23770000D01*
X107500000Y-16460000D02*
X107500000Y-17230000D01*
X107500000Y-24540000D02*
X107500000Y-23770000D01*
X108870000Y-17230000D02*
X106130000Y-17230000D01*
X108870000Y-23770000D02*
X108870000Y-17230000D01*
%TO.C,J7*%
X87815000Y-76185000D02*
X87120000Y-76185000D01*
X87815000Y-75500000D02*
X87815000Y-76185000D01*
X87815000Y-74815000D02*
X87815000Y-73940000D01*
X87815000Y-74815000D02*
X87728276Y-74815000D01*
X87815000Y-73940000D02*
X87514493Y-73940000D01*
X86725507Y-73940000D02*
X86425000Y-73940000D01*
X86511724Y-74815000D02*
X86425000Y-74815000D01*
X86425000Y-74815000D02*
X86425000Y-73940000D01*
%TO.C,Q8*%
X65220000Y-32070000D02*
X65220000Y-28470000D01*
X60770000Y-30270000D02*
G75*
G02*
X65208478Y-28431522I2600000J0D01*
G01*
X65208478Y-32108478D02*
G75*
G02*
X60769999Y-30270000I-1838478J1838478D01*
G01*
%TO.C,D1*%
X75780000Y-56000000D02*
X74760000Y-56000000D01*
X74760000Y-57470000D02*
X74760000Y-54530000D01*
X74760000Y-54530000D02*
X69320000Y-54530000D01*
X70340000Y-54530000D02*
X70340000Y-57470000D01*
X70220000Y-54530000D02*
X70220000Y-57470000D01*
X70100000Y-54530000D02*
X70100000Y-57470000D01*
X69320000Y-57470000D02*
X74760000Y-57470000D01*
X69320000Y-54530000D02*
X69320000Y-57470000D01*
X68300000Y-56000000D02*
X69320000Y-56000000D01*
%TO.C,R43*%
X121130000Y-17230000D02*
X121130000Y-23770000D01*
X121130000Y-23770000D02*
X123870000Y-23770000D01*
X122500000Y-16460000D02*
X122500000Y-17230000D01*
X122500000Y-24540000D02*
X122500000Y-23770000D01*
X123870000Y-17230000D02*
X121130000Y-17230000D01*
X123870000Y-23770000D02*
X123870000Y-17230000D01*
%TO.C,R28*%
X31130000Y-37310000D02*
X31130000Y-43850000D01*
X31130000Y-43850000D02*
X33870000Y-43850000D01*
X32500000Y-36540000D02*
X32500000Y-37310000D01*
X32500000Y-44620000D02*
X32500000Y-43850000D01*
X33870000Y-37310000D02*
X31130000Y-37310000D01*
X33870000Y-43850000D02*
X33870000Y-37310000D01*
%TO.C,Q29*%
X156150000Y-29390000D02*
X156150000Y-32990000D01*
X156161522Y-29351522D02*
G75*
G02*
X160600001Y-31190000I1838478J-1838478D01*
G01*
X160600000Y-31190000D02*
G75*
G02*
X156161522Y-33028478I-2600000J0D01*
G01*
%TO.C,R2*%
X91130000Y-17310000D02*
X91130000Y-23850000D01*
X91130000Y-23850000D02*
X93870000Y-23850000D01*
X92500000Y-16540000D02*
X92500000Y-17310000D01*
X92500000Y-24620000D02*
X92500000Y-23850000D01*
X93870000Y-17310000D02*
X91130000Y-17310000D01*
X93870000Y-23850000D02*
X93870000Y-17310000D01*
%TO.C,R52*%
X141130000Y-37230000D02*
X141130000Y-43770000D01*
X141130000Y-43770000D02*
X143870000Y-43770000D01*
X142500000Y-36460000D02*
X142500000Y-37230000D01*
X142500000Y-44540000D02*
X142500000Y-43770000D01*
X143870000Y-37230000D02*
X141130000Y-37230000D01*
X143870000Y-43770000D02*
X143870000Y-37230000D01*
%TO.C,Q18*%
X105350000Y-31490000D02*
X105350000Y-27890000D01*
X100900000Y-29690000D02*
G75*
G02*
X105338478Y-27851522I2600000J0D01*
G01*
X105338478Y-31528478D02*
G75*
G02*
X100899999Y-29690000I-1838478J1838478D01*
G01*
%TO.C,R30*%
X15630000Y-37310000D02*
X15630000Y-43850000D01*
X15630000Y-43850000D02*
X18370000Y-43850000D01*
X17000000Y-36540000D02*
X17000000Y-37310000D01*
X17000000Y-44620000D02*
X17000000Y-43850000D01*
X18370000Y-37310000D02*
X15630000Y-37310000D01*
X18370000Y-43850000D02*
X18370000Y-37310000D01*
%TO.C,Q32*%
X175350000Y-31720000D02*
X175350000Y-28120000D01*
X170900000Y-29920000D02*
G75*
G02*
X175338478Y-28081522I2600000J0D01*
G01*
X175338478Y-31758478D02*
G75*
G02*
X170899999Y-29920000I-1838478J1838478D01*
G01*
%TO.C,Q13*%
X26150000Y-29470000D02*
X26150000Y-33070000D01*
X26161522Y-29431522D02*
G75*
G02*
X30600001Y-31270000I1838478J-1838478D01*
G01*
X30600000Y-31270000D02*
G75*
G02*
X26161522Y-33108478I-2600000J0D01*
G01*
%TO.C,Q1*%
X86150000Y-29470000D02*
X86150000Y-33070000D01*
X86161522Y-29431522D02*
G75*
G02*
X90600001Y-31270000I1838478J-1838478D01*
G01*
X90600000Y-31270000D02*
G75*
G02*
X86161522Y-33108478I-2600000J0D01*
G01*
%TO.C,R29*%
X15630000Y-17310000D02*
X15630000Y-23850000D01*
X15630000Y-23850000D02*
X18370000Y-23850000D01*
X17000000Y-16540000D02*
X17000000Y-17310000D01*
X17000000Y-24620000D02*
X17000000Y-23850000D01*
X18370000Y-17310000D02*
X15630000Y-17310000D01*
X18370000Y-23850000D02*
X18370000Y-17310000D01*
%TO.C,U2*%
X70120000Y-66615000D02*
X67920000Y-66615000D01*
X70120000Y-66615000D02*
X72320000Y-66615000D01*
X70120000Y-73385000D02*
X67920000Y-73385000D01*
X70120000Y-73385000D02*
X72320000Y-73385000D01*
X66260000Y-67075000D02*
X65930000Y-67315000D01*
X65930000Y-66835000D01*
X66260000Y-67075000D01*
G36*
X66260000Y-67075000D02*
G01*
X65930000Y-67315000D01*
X65930000Y-66835000D01*
X66260000Y-67075000D01*
G37*
%TO.C,R41*%
X116130000Y-17230000D02*
X116130000Y-23770000D01*
X116130000Y-23770000D02*
X118870000Y-23770000D01*
X117500000Y-16460000D02*
X117500000Y-17230000D01*
X117500000Y-24540000D02*
X117500000Y-23770000D01*
X118870000Y-17230000D02*
X116130000Y-17230000D01*
X118870000Y-23770000D02*
X118870000Y-17230000D01*
%TO.C,R56*%
X151130000Y-37230000D02*
X151130000Y-43770000D01*
X151130000Y-43770000D02*
X153870000Y-43770000D01*
X152500000Y-36460000D02*
X152500000Y-37230000D01*
X152500000Y-44540000D02*
X152500000Y-43770000D01*
X153870000Y-37230000D02*
X151130000Y-37230000D01*
X153870000Y-43770000D02*
X153870000Y-37230000D01*
%TO.C,Q6*%
X75350000Y-32070000D02*
X75350000Y-28470000D01*
X70900000Y-30270000D02*
G75*
G02*
X75338478Y-28431522I2600000J0D01*
G01*
X75338478Y-32108478D02*
G75*
G02*
X70899999Y-30270000I-1838478J1838478D01*
G01*
%TO.C,Q27*%
X146150000Y-29390000D02*
X146150000Y-32990000D01*
X146161522Y-29351522D02*
G75*
G02*
X150600001Y-31190000I1838478J-1838478D01*
G01*
X150600000Y-31190000D02*
G75*
G02*
X146161522Y-33028478I-2600000J0D01*
G01*
%TO.C,C2*%
X117560000Y-70234200D02*
X122612000Y-70234200D01*
X117560000Y-70194200D02*
X122605000Y-70194200D01*
X117560000Y-70154200D02*
X122598000Y-70154200D01*
X117560000Y-70114200D02*
X122591000Y-70114200D01*
X117560000Y-70074200D02*
X122583000Y-70074200D01*
X117560000Y-70034200D02*
X122576000Y-70034200D01*
X117560000Y-69994200D02*
X122568000Y-69994200D01*
X117560000Y-69954200D02*
X122559000Y-69954200D01*
X117560000Y-69914200D02*
X122551000Y-69914200D01*
X117560000Y-69874200D02*
X122542000Y-69874200D01*
X117560000Y-69834200D02*
X122533000Y-69834200D01*
X117560000Y-69794200D02*
X122524000Y-69794200D01*
X117560000Y-69754200D02*
X122514000Y-69754200D01*
X117560000Y-69714200D02*
X122504000Y-69714200D01*
X117560000Y-69674200D02*
X122494000Y-69674200D01*
X117560000Y-69634200D02*
X122484000Y-69634200D01*
X117560000Y-69594200D02*
X122473000Y-69594200D01*
X117560000Y-69554200D02*
X122462000Y-69554200D01*
X117560000Y-69514200D02*
X122451000Y-69514200D01*
X117560000Y-69474200D02*
X122440000Y-69474200D01*
X117560000Y-69434200D02*
X122428000Y-69434200D01*
X117560000Y-69394200D02*
X122416000Y-69394200D01*
X117560000Y-69354200D02*
X122404000Y-69354200D01*
X117560000Y-69314200D02*
X122391000Y-69314200D01*
X117560000Y-69274200D02*
X122378000Y-69274200D01*
X117560000Y-69234200D02*
X122365000Y-69234200D01*
X117560000Y-69194200D02*
X122352000Y-69194200D01*
X117560000Y-69154200D02*
X122338000Y-69154200D01*
X117560000Y-69114200D02*
X122324000Y-69114200D01*
X117560000Y-69074200D02*
X122310000Y-69074200D01*
X117560000Y-69034200D02*
X122295000Y-69034200D01*
X117560000Y-68994200D02*
X122281000Y-68994200D01*
X117560000Y-68954200D02*
X122266000Y-68954200D01*
X117560000Y-68914200D02*
X122250000Y-68914200D01*
X117560000Y-68874200D02*
X122234000Y-68874200D01*
X117560000Y-68834200D02*
X122218000Y-68834200D01*
X117560000Y-68794200D02*
X122202000Y-68794200D01*
X117560000Y-68754200D02*
X122185000Y-68754200D01*
X117560000Y-68714200D02*
X122169000Y-68714200D01*
X117560000Y-68674200D02*
X122151000Y-68674200D01*
X117560000Y-68634200D02*
X122134000Y-68634200D01*
X117560000Y-68594200D02*
X122116000Y-68594200D01*
X117560000Y-68554200D02*
X122098000Y-68554200D01*
X117560000Y-68514200D02*
X122079000Y-68514200D01*
X117560000Y-68474200D02*
X122060000Y-68474200D01*
X117560000Y-68434200D02*
X122041000Y-68434200D01*
X117560000Y-68394200D02*
X122022000Y-68394200D01*
X117560000Y-68354200D02*
X122002000Y-68354200D01*
X117560000Y-68314200D02*
X121982000Y-68314200D01*
X117560000Y-68274200D02*
X121961000Y-68274200D01*
X117560000Y-68234200D02*
X121940000Y-68234200D01*
X117560000Y-68194200D02*
X121919000Y-68194200D01*
X117560000Y-68154200D02*
X121898000Y-68154200D01*
X117560000Y-68114200D02*
X121876000Y-68114200D01*
X117560000Y-68074200D02*
X121853000Y-68074200D01*
X117560000Y-68034200D02*
X121831000Y-68034200D01*
X117560000Y-67994200D02*
X121808000Y-67994200D01*
X117560000Y-67954200D02*
X121784000Y-67954200D01*
X117560000Y-67914200D02*
X121761000Y-67914200D01*
X117560000Y-67874200D02*
X121737000Y-67874200D01*
X117560000Y-67834200D02*
X121712000Y-67834200D01*
X117560000Y-67794200D02*
X121687000Y-67794200D01*
X117560000Y-67754200D02*
X121662000Y-67754200D01*
X117560000Y-67714200D02*
X121636000Y-67714200D01*
X117560000Y-67674200D02*
X121610000Y-67674200D01*
X117560000Y-67634200D02*
X121583000Y-67634200D01*
X117560000Y-67594200D02*
X121556000Y-67594200D01*
X117560000Y-67554200D02*
X121529000Y-67554200D01*
X117560000Y-67514200D02*
X121501000Y-67514200D01*
X117560000Y-67474200D02*
X121473000Y-67474200D01*
X117560000Y-67434200D02*
X121444000Y-67434200D01*
X117560000Y-67394200D02*
X121415000Y-67394200D01*
X115645000Y-64714200D02*
X116595000Y-64714200D01*
X115270000Y-64754200D02*
X116970000Y-64754200D01*
X115013000Y-64794200D02*
X117227000Y-64794200D01*
X114805000Y-64834200D02*
X117435000Y-64834200D01*
X114626000Y-64874200D02*
X117614000Y-64874200D01*
X114467000Y-64914200D02*
X117773000Y-64914200D01*
X114322000Y-64954200D02*
X117918000Y-64954200D01*
X114189000Y-64994200D02*
X118051000Y-64994200D01*
X114065000Y-65034200D02*
X118175000Y-65034200D01*
X113949000Y-65074200D02*
X118291000Y-65074200D01*
X113839000Y-65114200D02*
X118401000Y-65114200D01*
X113735000Y-65154200D02*
X118505000Y-65154200D01*
X113636000Y-65194200D02*
X118604000Y-65194200D01*
X113541000Y-65234200D02*
X118699000Y-65234200D01*
X113450000Y-65274200D02*
X118790000Y-65274200D01*
X113362000Y-65314200D02*
X118878000Y-65314200D01*
X113278000Y-65354200D02*
X118962000Y-65354200D01*
X113197000Y-65394200D02*
X119043000Y-65394200D01*
X113118000Y-65434200D02*
X119122000Y-65434200D01*
X113042000Y-65474200D02*
X119198000Y-65474200D01*
X112968000Y-65514200D02*
X119272000Y-65514200D01*
X112897000Y-65554200D02*
X119343000Y-65554200D01*
X112827000Y-65594200D02*
X119413000Y-65594200D01*
X112759000Y-65634200D02*
X119481000Y-65634200D01*
X112693000Y-65674200D02*
X119547000Y-65674200D01*
X112629000Y-65714200D02*
X119611000Y-65714200D01*
X112566000Y-65754200D02*
X119674000Y-65754200D01*
X112505000Y-65794200D02*
X119735000Y-65794200D01*
X112445000Y-65834200D02*
X119795000Y-65834200D01*
X112405000Y-78399769D02*
X112405000Y-77099769D01*
X112387000Y-65874200D02*
X119853000Y-65874200D01*
X112330000Y-65914200D02*
X119910000Y-65914200D01*
X112274000Y-65954200D02*
X119966000Y-65954200D01*
X112220000Y-65994200D02*
X120020000Y-65994200D01*
X112166000Y-66034200D02*
X120074000Y-66034200D01*
X112114000Y-66074200D02*
X120126000Y-66074200D01*
X112063000Y-66114200D02*
X120177000Y-66114200D01*
X112012000Y-66154200D02*
X120228000Y-66154200D01*
X111963000Y-66194200D02*
X120277000Y-66194200D01*
X111915000Y-66234200D02*
X120325000Y-66234200D01*
X111867000Y-66274200D02*
X120373000Y-66274200D01*
X111821000Y-66314200D02*
X120419000Y-66314200D01*
X111775000Y-66354200D02*
X120465000Y-66354200D01*
X111755000Y-77749769D02*
X113055000Y-77749769D01*
X111730000Y-66394200D02*
X120510000Y-66394200D01*
X111686000Y-66434200D02*
X120554000Y-66434200D01*
X111643000Y-66474200D02*
X120597000Y-66474200D01*
X111601000Y-66514200D02*
X120639000Y-66514200D01*
X111559000Y-66554200D02*
X120681000Y-66554200D01*
X111518000Y-66594200D02*
X120722000Y-66594200D01*
X111477000Y-66634200D02*
X120763000Y-66634200D01*
X111438000Y-66674200D02*
X120802000Y-66674200D01*
X111399000Y-66714200D02*
X120841000Y-66714200D01*
X111360000Y-66754200D02*
X120880000Y-66754200D01*
X111323000Y-66794200D02*
X120917000Y-66794200D01*
X111286000Y-66834200D02*
X120954000Y-66834200D01*
X111249000Y-66874200D02*
X120991000Y-66874200D01*
X111213000Y-66914200D02*
X121027000Y-66914200D01*
X111178000Y-66954200D02*
X121062000Y-66954200D01*
X111143000Y-66994200D02*
X121097000Y-66994200D01*
X111109000Y-67034200D02*
X121131000Y-67034200D01*
X111076000Y-67074200D02*
X121164000Y-67074200D01*
X111042000Y-67114200D02*
X121198000Y-67114200D01*
X111010000Y-67154200D02*
X121230000Y-67154200D01*
X110978000Y-67194200D02*
X121262000Y-67194200D01*
X110946000Y-67234200D02*
X121294000Y-67234200D01*
X110915000Y-67274200D02*
X121325000Y-67274200D01*
X110885000Y-67314200D02*
X121355000Y-67314200D01*
X110855000Y-67354200D02*
X121385000Y-67354200D01*
X110825000Y-67394200D02*
X114680000Y-67394200D01*
X110796000Y-67434200D02*
X114680000Y-67434200D01*
X110767000Y-67474200D02*
X114680000Y-67474200D01*
X110739000Y-67514200D02*
X114680000Y-67514200D01*
X110711000Y-67554200D02*
X114680000Y-67554200D01*
X110684000Y-67594200D02*
X114680000Y-67594200D01*
X110657000Y-67634200D02*
X114680000Y-67634200D01*
X110630000Y-67674200D02*
X114680000Y-67674200D01*
X110604000Y-67714200D02*
X114680000Y-67714200D01*
X110578000Y-67754200D02*
X114680000Y-67754200D01*
X110553000Y-67794200D02*
X114680000Y-67794200D01*
X110528000Y-67834200D02*
X114680000Y-67834200D01*
X110503000Y-67874200D02*
X114680000Y-67874200D01*
X110479000Y-67914200D02*
X114680000Y-67914200D01*
X110456000Y-67954200D02*
X114680000Y-67954200D01*
X110432000Y-67994200D02*
X114680000Y-67994200D01*
X110409000Y-68034200D02*
X114680000Y-68034200D01*
X110387000Y-68074200D02*
X114680000Y-68074200D01*
X110364000Y-68114200D02*
X114680000Y-68114200D01*
X110342000Y-68154200D02*
X114680000Y-68154200D01*
X110321000Y-68194200D02*
X114680000Y-68194200D01*
X110300000Y-68234200D02*
X114680000Y-68234200D01*
X110279000Y-68274200D02*
X114680000Y-68274200D01*
X110258000Y-68314200D02*
X114680000Y-68314200D01*
X110238000Y-68354200D02*
X114680000Y-68354200D01*
X110218000Y-68394200D02*
X114680000Y-68394200D01*
X110199000Y-68434200D02*
X114680000Y-68434200D01*
X110180000Y-68474200D02*
X114680000Y-68474200D01*
X110161000Y-68514200D02*
X114680000Y-68514200D01*
X110142000Y-68554200D02*
X114680000Y-68554200D01*
X110124000Y-68594200D02*
X114680000Y-68594200D01*
X110106000Y-68634200D02*
X114680000Y-68634200D01*
X110089000Y-68674200D02*
X114680000Y-68674200D01*
X110071000Y-68714200D02*
X114680000Y-68714200D01*
X110055000Y-68754200D02*
X114680000Y-68754200D01*
X110038000Y-68794200D02*
X114680000Y-68794200D01*
X110022000Y-68834200D02*
X114680000Y-68834200D01*
X110006000Y-68874200D02*
X114680000Y-68874200D01*
X109990000Y-68914200D02*
X114680000Y-68914200D01*
X109974000Y-68954200D02*
X114680000Y-68954200D01*
X109959000Y-68994200D02*
X114680000Y-68994200D01*
X109945000Y-69034200D02*
X114680000Y-69034200D01*
X109930000Y-69074200D02*
X114680000Y-69074200D01*
X109916000Y-69114200D02*
X114680000Y-69114200D01*
X109902000Y-69154200D02*
X114680000Y-69154200D01*
X109888000Y-69194200D02*
X114680000Y-69194200D01*
X109875000Y-69234200D02*
X114680000Y-69234200D01*
X109862000Y-69274200D02*
X114680000Y-69274200D01*
X109849000Y-69314200D02*
X114680000Y-69314200D01*
X109836000Y-69354200D02*
X114680000Y-69354200D01*
X109824000Y-69394200D02*
X114680000Y-69394200D01*
X109812000Y-69434200D02*
X114680000Y-69434200D01*
X109800000Y-69474200D02*
X114680000Y-69474200D01*
X109789000Y-69514200D02*
X114680000Y-69514200D01*
X109778000Y-69554200D02*
X114680000Y-69554200D01*
X109767000Y-69594200D02*
X114680000Y-69594200D01*
X109756000Y-69634200D02*
X114680000Y-69634200D01*
X109746000Y-69674200D02*
X114680000Y-69674200D01*
X109736000Y-69714200D02*
X114680000Y-69714200D01*
X109726000Y-69754200D02*
X114680000Y-69754200D01*
X109716000Y-69794200D02*
X114680000Y-69794200D01*
X109707000Y-69834200D02*
X114680000Y-69834200D01*
X109698000Y-69874200D02*
X114680000Y-69874200D01*
X109689000Y-69914200D02*
X114680000Y-69914200D01*
X109681000Y-69954200D02*
X114680000Y-69954200D01*
X109672000Y-69994200D02*
X114680000Y-69994200D01*
X109664000Y-70034200D02*
X114680000Y-70034200D01*
X109657000Y-70074200D02*
X114680000Y-70074200D01*
X109649000Y-70114200D02*
X114680000Y-70114200D01*
X109642000Y-70154200D02*
X114680000Y-70154200D01*
X109635000Y-70194200D02*
X114680000Y-70194200D01*
X109628000Y-70234200D02*
X114680000Y-70234200D01*
X109622000Y-70274200D02*
X122618000Y-70274200D01*
X109615000Y-70314200D02*
X122625000Y-70314200D01*
X109609000Y-70354200D02*
X122631000Y-70354200D01*
X109604000Y-70394200D02*
X122636000Y-70394200D01*
X109598000Y-70434200D02*
X122642000Y-70434200D01*
X109593000Y-70474200D02*
X122647000Y-70474200D01*
X109588000Y-70514200D02*
X122652000Y-70514200D01*
X109583000Y-70554200D02*
X122657000Y-70554200D01*
X109579000Y-70594200D02*
X122661000Y-70594200D01*
X109575000Y-70635200D02*
X122665000Y-70635200D01*
X109571000Y-70675200D02*
X122669000Y-70675200D01*
X109567000Y-70715200D02*
X122673000Y-70715200D01*
X109563000Y-70755200D02*
X122677000Y-70755200D01*
X109560000Y-70795200D02*
X122680000Y-70795200D01*
X109557000Y-70835200D02*
X122683000Y-70835200D01*
X109554000Y-70875200D02*
X122686000Y-70875200D01*
X109552000Y-70915200D02*
X122688000Y-70915200D01*
X109549000Y-70955200D02*
X122691000Y-70955200D01*
X109547000Y-70995200D02*
X122693000Y-70995200D01*
X109545000Y-71035200D02*
X122695000Y-71035200D01*
X109544000Y-71075200D02*
X122696000Y-71075200D01*
X109543000Y-71115200D02*
X122697000Y-71115200D01*
X109541000Y-71195200D02*
X122699000Y-71195200D01*
X109541000Y-71155200D02*
X122699000Y-71155200D01*
X109540000Y-71315200D02*
X122700000Y-71315200D01*
X109540000Y-71275200D02*
X122700000Y-71275200D01*
X109540000Y-71235200D02*
X122700000Y-71235200D01*
X122740000Y-71315200D02*
G75*
G02*
X109500000Y-71315200I-6620000J0D01*
G01*
X109500000Y-71315200D02*
G75*
G02*
X122740000Y-71315200I6620000J0D01*
G01*
%TO.C,R10*%
X66130000Y-37310000D02*
X66130000Y-43850000D01*
X66130000Y-43850000D02*
X68870000Y-43850000D01*
X67500000Y-36540000D02*
X67500000Y-37310000D01*
X67500000Y-44620000D02*
X67500000Y-43850000D01*
X68870000Y-37310000D02*
X66130000Y-37310000D01*
X68870000Y-43850000D02*
X68870000Y-37310000D01*
%TO.C,Q23*%
X126150000Y-29120000D02*
X126150000Y-32720000D01*
X126161522Y-29081522D02*
G75*
G02*
X130600001Y-30920000I1838478J-1838478D01*
G01*
X130600000Y-30920000D02*
G75*
G02*
X126161522Y-32758478I-2600000J0D01*
G01*
%TO.C,R64*%
X171130000Y-37230000D02*
X171130000Y-43770000D01*
X171130000Y-43770000D02*
X173870000Y-43770000D01*
X172500000Y-36460000D02*
X172500000Y-37230000D01*
X172500000Y-44540000D02*
X172500000Y-43770000D01*
X173870000Y-37230000D02*
X171130000Y-37230000D01*
X173870000Y-43770000D02*
X173870000Y-37230000D01*
%TO.C,D3*%
X121860000Y-57700000D02*
X120360000Y-57700000D01*
X121860000Y-54100000D02*
X121860000Y-57700000D01*
X118660000Y-54100000D02*
X118660000Y-54600000D01*
X116360000Y-57700000D02*
X114860000Y-57700000D01*
X111660000Y-57700000D02*
X109760000Y-57700000D01*
X106660000Y-57700000D02*
X104660000Y-57700000D01*
X101560000Y-57700000D02*
X99560000Y-57700000D01*
X99560000Y-57700000D02*
X99560000Y-54100000D01*
X99560000Y-54100000D02*
X121860000Y-54100000D01*
%TO.C,Q34*%
X185350000Y-31490000D02*
X185350000Y-27890000D01*
X180900000Y-29690000D02*
G75*
G02*
X185338478Y-27851522I2600000J0D01*
G01*
X185338478Y-31528478D02*
G75*
G02*
X180899999Y-29690000I-1838478J1838478D01*
G01*
%TD*%
M02*
