M48
; DRILL file {KiCad 8.0.5} date 2024-10-01T12:40:22+0200
; FORMAT={-:-/ absolute / inch / decimal}
; #@! TF.CreationDate,2024-10-01T12:40:22+02:00
; #@! TF.GenerationSoftware,Kicad,Pcbnew,8.0.5
; #@! TF.FileFunction,Plated,1,2,PTH
FMAT,2
INCH
; #@! TA.AperFunction,Plated,PTH,ViaDrill
T1C0.0118
; #@! TA.AperFunction,Plated,PTH,ComponentDrill
T2C0.0197
; #@! TA.AperFunction,Plated,PTH,ComponentDrill
T3C0.0295
; #@! TA.AperFunction,Plated,PTH,ComponentDrill
T4C0.0315
; #@! TA.AperFunction,Plated,PTH,ComponentDrill
T5C0.0394
; #@! TA.AperFunction,Plated,PTH,ComponentDrill
T6C0.0433
; #@! TA.AperFunction,Plated,PTH,ComponentDrill
T7C0.0472
; #@! TA.AperFunction,Plated,PTH,ComponentDrill
T8C0.0630
%
G90
G05
T1
X1.6635Y-1.6888
X1.7146Y-1.6727
X1.8908Y-1.6538
X1.8988Y-1.5869
X1.9124Y-1.6298
X2.4485Y-2.5884
X2.702Y-2.8199
X2.7328Y-2.7832
X2.7328Y-2.6668
X2.7565Y-2.7621
X2.7649Y-1.9372
X2.8027Y-2.7404
X2.8245Y-2.7643
X2.9054Y-1.9072
X2.9224Y-2.7621
X2.9228Y-2.7305
X2.9256Y-2.6989
X4.6557Y-1.6854
X4.7095Y-2.1107
X4.9019Y-1.7091
X6.673Y-2.4441
X6.6851Y-2.1851
T2
X3.4299Y-2.9331
X3.4299Y-2.9724
X4.0402Y-2.9134
X4.0402Y-2.9528
T3
X0.689Y-1.1811
X0.689Y-1.2311
X0.689Y-1.2811
X0.9146Y-1.122
X0.9146Y-1.172
X0.9146Y-1.222
X1.1024Y-1.1811
X1.1024Y-1.2311
X1.1024Y-1.2811
X1.328Y-1.122
X1.328Y-1.172
X1.328Y-1.222
X1.4961Y-1.1811
X1.4961Y-1.2311
X1.4961Y-1.2811
X1.7126Y-1.122
X1.7126Y-1.172
X1.7126Y-1.222
X1.8898Y-1.1811
X1.8898Y-1.2311
X1.8898Y-1.2811
X2.1063Y-1.1311
X2.1063Y-1.1811
X2.1063Y-1.2311
X2.2783Y-1.1811
X2.2783Y-1.2311
X2.2783Y-1.2811
X2.4949Y-1.1417
X2.4949Y-1.1917
X2.4949Y-1.2417
X2.6772Y-1.1811
X2.6772Y-1.2311
X2.6772Y-1.2811
X2.8937Y-1.1417
X2.8937Y-1.1917
X2.8937Y-1.2417
X3.0709Y-1.1827
X3.0709Y-1.2327
X3.0709Y-1.2827
X3.2874Y-1.1433
X3.2874Y-1.1933
X3.2874Y-1.2433
X3.4646Y-1.1811
X3.4646Y-1.2311
X3.4646Y-1.2811
X3.6811Y-1.122
X3.6811Y-1.172
X3.6811Y-1.222
X3.8583Y-1.178
X3.8583Y-1.228
X3.8583Y-1.278
X4.0748Y-1.1189
X4.0748Y-1.1689
X4.0748Y-1.2189
X4.2575Y-1.1673
X4.2575Y-1.2173
X4.2575Y-1.2673
X4.4488Y-1.1173
X4.4488Y-1.1673
X4.4488Y-1.2173
X4.6457Y-1.1673
X4.6457Y-1.2173
X4.6457Y-1.2673
X4.8622Y-1.1189
X4.8622Y-1.1689
X4.8622Y-1.2189
X5.0394Y-1.1673
X5.0394Y-1.2173
X5.0394Y-1.2673
X5.2559Y-1.1189
X5.2559Y-1.1689
X5.2559Y-1.2189
X5.4331Y-1.178
X5.4331Y-1.228
X5.4331Y-1.278
X5.6496Y-1.1189
X5.6496Y-1.1689
X5.6496Y-1.2189
X5.8268Y-1.178
X5.8268Y-1.228
X5.8268Y-1.278
X6.0433Y-1.1189
X6.0433Y-1.1689
X6.0433Y-1.2189
X6.2205Y-1.178
X6.2205Y-1.228
X6.2205Y-1.278
X6.437Y-1.1189
X6.437Y-1.1689
X6.437Y-1.2189
X6.6142Y-1.178
X6.6142Y-1.228
X6.6142Y-1.278
X6.8307Y-1.128
X6.8307Y-1.178
X6.8307Y-1.228
X7.0079Y-1.178
X7.0079Y-1.228
X7.0079Y-1.278
X7.2244Y-1.1189
X7.2244Y-1.1689
X7.2244Y-1.2189
T4
X0.6693Y-0.6102
X0.6693Y-1.0102
X0.6693Y-1.3976
X0.6693Y-1.7976
X0.8661Y-0.6102
X0.8661Y-1.0102
X0.8661Y-1.3976
X0.8661Y-1.7976
X1.0827Y-0.6102
X1.0827Y-1.0102
X1.0827Y-1.3976
X1.0827Y-1.7976
X1.2795Y-0.6102
X1.2795Y-1.0102
X1.2795Y-1.3976
X1.2795Y-1.7976
X1.4764Y-0.6102
X1.4764Y-1.0102
X1.4764Y-1.3976
X1.4764Y-1.7976
X1.6732Y-0.6102
X1.6732Y-1.0102
X1.6732Y-1.3976
X1.6732Y-1.7976
X1.8701Y-0.6102
X1.8701Y-1.0102
X1.8701Y-1.3976
X1.8701Y-1.7976
X2.0669Y-0.6102
X2.0669Y-1.0102
X2.0669Y-1.3976
X2.0669Y-1.7976
X2.2587Y-0.6102
X2.2587Y-1.0102
X2.2587Y-1.3976
X2.2587Y-1.7976
X2.4555Y-0.6102
X2.4555Y-1.0102
X2.4555Y-1.3976
X2.4555Y-1.7976
X2.6575Y-0.6102
X2.6575Y-1.0102
X2.6575Y-1.3976
X2.6575Y-1.7976
X2.8543Y-0.6102
X2.8543Y-1.0102
X2.8543Y-1.3976
X2.8543Y-1.7976
X3.0512Y-0.6118
X3.0512Y-1.0118
X3.0512Y-1.3992
X3.0512Y-1.7992
X3.248Y-0.6087
X3.248Y-1.0087
X3.248Y-1.3992
X3.248Y-1.7992
X3.4449Y-0.6102
X3.4449Y-1.0102
X3.4449Y-1.3976
X3.4449Y-1.7976
X3.6417Y-0.6102
X3.6417Y-1.0102
X3.6417Y-1.3976
X3.6417Y-1.7976
X3.8386Y-0.6071
X3.8386Y-1.0071
X3.8386Y-1.3945
X3.8386Y-1.7945
X4.0354Y-0.6071
X4.0354Y-1.0071
X4.0354Y-1.3945
X4.0354Y-1.7945
X4.2323Y-0.6071
X4.2323Y-1.0071
X4.2323Y-1.3945
X4.2323Y-1.7945
X4.4291Y-0.6071
X4.4291Y-1.0071
X4.4291Y-1.3945
X4.4291Y-1.7945
X4.626Y-0.6071
X4.626Y-1.0071
X4.626Y-1.3945
X4.626Y-1.7945
X4.8228Y-0.6071
X4.8228Y-1.0071
X4.8228Y-1.3945
X4.8228Y-1.7945
X5.0197Y-0.6071
X5.0197Y-1.0071
X5.0197Y-1.3945
X5.0197Y-1.7945
X5.2165Y-0.6071
X5.2165Y-1.0071
X5.2165Y-1.3945
X5.2165Y-1.7945
X5.4134Y-0.6071
X5.4134Y-1.0071
X5.4134Y-1.3945
X5.4134Y-1.7945
X5.6102Y-0.6071
X5.6102Y-1.0071
X5.6102Y-1.3945
X5.6102Y-1.7945
X5.8071Y-0.6071
X5.8071Y-1.0071
X5.8071Y-1.3945
X5.8071Y-1.7945
X6.0039Y-0.6071
X6.0039Y-1.0071
X6.0039Y-1.3945
X6.0039Y-1.7945
X6.2008Y-0.6071
X6.2008Y-1.0071
X6.2008Y-1.3945
X6.2008Y-1.7945
X6.2992Y-2.1441
X6.2992Y-2.2441
X6.2992Y-2.3441
X6.2992Y-2.4441
X6.2992Y-2.5441
X6.2992Y-2.6441
X6.2992Y-2.7441
X6.2992Y-2.8441
X6.3976Y-0.6071
X6.3976Y-1.0071
X6.3976Y-1.3945
X6.3976Y-1.7945
X6.5945Y-0.6071
X6.5945Y-1.0071
X6.5945Y-1.3945
X6.5945Y-1.7945
X6.5992Y-2.1441
X6.5992Y-2.2441
X6.5992Y-2.3441
X6.5992Y-2.4441
X6.5992Y-2.5441
X6.5992Y-2.6441
X6.5992Y-2.7441
X6.5992Y-2.8441
X6.7913Y-0.6071
X6.7913Y-1.0071
X6.7913Y-1.3945
X6.7913Y-1.7945
X6.8701Y-2.1441
X6.8701Y-2.2441
X6.8701Y-2.3441
X6.8701Y-2.4441
X6.8701Y-2.5441
X6.8701Y-2.6441
X6.8701Y-2.7441
X6.8701Y-2.8441
X6.9882Y-0.6071
X6.9882Y-1.0071
X6.9882Y-1.3945
X6.9882Y-1.7945
X7.1701Y-2.1441
X7.1701Y-2.2441
X7.1701Y-2.3441
X7.1701Y-2.4441
X7.1701Y-2.5441
X7.1701Y-2.6441
X7.1701Y-2.7441
X7.1701Y-2.8441
X7.185Y-0.6071
X7.185Y-1.0071
X7.185Y-1.3945
X7.185Y-1.7945
T5
X0.6701Y-2.2441
X0.7701Y-2.2441
X0.8701Y-2.2441
X0.9701Y-2.2441
X0.9811Y-2.6969
X1.0701Y-2.2441
X1.0811Y-2.6969
X1.1701Y-2.2441
X1.1811Y-2.6969
X1.2701Y-2.2441
X1.2811Y-2.6969
X1.3701Y-2.2441
X1.4701Y-2.2441
X1.5701Y-2.2441
X1.6701Y-2.2441
X1.7701Y-2.2441
X1.8276Y-2.6772
X1.8701Y-2.2441
X1.9276Y-2.6772
X1.9701Y-2.2441
X2.0276Y-2.6772
X2.0701Y-2.2441
X2.1276Y-2.6772
X2.1701Y-2.2441
X2.2701Y-2.2441
X3.5087Y-2.1063
X3.5087Y-2.3031
X5.1425Y-2.1746
X5.1425Y-2.2746
X5.4772Y-2.2244
X5.7921Y-2.185
X5.7921Y-2.285
T6
X2.6362Y-2.2047
X3.0362Y-2.2047
T7
X4.5717Y-2.7093
X4.5717Y-2.9061
T8
X4.0598Y-2.2244
X4.2598Y-2.2244
X4.4598Y-2.2244
X4.6598Y-2.2244
X5.1528Y-2.7953
X5.3528Y-2.7953
X5.5528Y-2.7953
X5.7528Y-2.7953
M30
