%TF.GenerationSoftware,KiCad,Pcbnew,8.0.7*%
%TF.CreationDate,2025-02-03T18:08:29+01:00*%
%TF.ProjectId,e,652e6b69-6361-4645-9f70-636258585858,rev?*%
%TF.SameCoordinates,Original*%
%TF.FileFunction,Copper,L2,Bot*%
%TF.FilePolarity,Positive*%
%FSLAX46Y46*%
G04 Gerber Fmt 4.6, Leading zero omitted, Abs format (unit mm)*
G04 Created by KiCad (PCBNEW 8.0.7) date 2025-02-03 18:08:29*
%MOMM*%
%LPD*%
G01*
G04 APERTURE LIST*
%TA.AperFunction,ComponentPad*%
%ADD10R,2.400000X2.400000*%
%TD*%
%TA.AperFunction,ComponentPad*%
%ADD11C,2.400000*%
%TD*%
%TA.AperFunction,ComponentPad*%
%ADD12R,1.700000X1.700000*%
%TD*%
%TA.AperFunction,ComponentPad*%
%ADD13O,1.700000X1.700000*%
%TD*%
%TA.AperFunction,ComponentPad*%
%ADD14R,2.200000X2.200000*%
%TD*%
%TA.AperFunction,ComponentPad*%
%ADD15O,2.200000X2.200000*%
%TD*%
%TA.AperFunction,ComponentPad*%
%ADD16R,3.200000X3.200000*%
%TD*%
%TA.AperFunction,ComponentPad*%
%ADD17C,3.200000*%
%TD*%
%TA.AperFunction,ComponentPad*%
%ADD18R,2.000000X2.000000*%
%TD*%
%TA.AperFunction,ComponentPad*%
%ADD19C,2.000000*%
%TD*%
%TA.AperFunction,ViaPad*%
%ADD20C,0.600000*%
%TD*%
%TA.AperFunction,Conductor*%
%ADD21C,0.200000*%
%TD*%
G04 APERTURE END LIST*
D10*
%TO.P,C2,1*%
%TO.N,Net-(D2-+)*%
X100000000Y-53500000D03*
D11*
%TO.P,C2,2*%
%TO.N,Net-(D2--)*%
X105000000Y-53500000D03*
%TD*%
D12*
%TO.P,J1,1,Pin_1*%
%TO.N,/SEG9_HIGH*%
X18000000Y-60360000D03*
D13*
%TO.P,J1,2,Pin_2*%
%TO.N,/SEG8_HIGH*%
X18000000Y-57820000D03*
%TO.P,J1,3,Pin_3*%
%TO.N,/SEG7_HIGH*%
X18000000Y-55280000D03*
%TO.P,J1,4,Pin_4*%
%TO.N,/SEG6_HIGH*%
X18000000Y-52740000D03*
%TO.P,J1,5,Pin_5*%
%TO.N,/SEG5_HIGH*%
X18000000Y-50200000D03*
%TO.P,J1,6,Pin_6*%
%TO.N,/SEG4_HIGH*%
X18000000Y-47660000D03*
%TO.P,J1,7,Pin_7*%
%TO.N,/SEG3_HIGH*%
X18000000Y-45120000D03*
%TO.P,J1,8,Pin_8*%
%TO.N,/SEG2_HIGH*%
X18000000Y-42580000D03*
%TO.P,J1,9,Pin_9*%
%TO.N,/SEG1_HIGH*%
X18000000Y-40040000D03*
%TO.P,J1,10,Pin_10*%
%TO.N,/A_HIGH*%
X18000000Y-37500000D03*
%TO.P,J1,11,Pin_11*%
%TO.N,/B_HIGH*%
X18000000Y-34960000D03*
%TO.P,J1,12,Pin_12*%
%TO.N,/C_HIGH*%
X18000000Y-32420000D03*
%TO.P,J1,13,Pin_13*%
%TO.N,/D_HIGH*%
X18000000Y-29880000D03*
%TO.P,J1,14,Pin_14*%
%TO.N,/E_HIGH*%
X18000000Y-27340000D03*
%TO.P,J1,15,Pin_15*%
%TO.N,/F_HIGH*%
X18000000Y-24800000D03*
%TO.P,J1,16,Pin_16*%
%TO.N,/G_HIGH*%
X18000000Y-22260000D03*
%TO.P,J1,17,Pin_17*%
%TO.N,/H_HIGH*%
X18000000Y-19720000D03*
%TD*%
D12*
%TO.P,J9,1,Pin_1*%
%TO.N,+5V*%
X43040000Y-48000000D03*
D13*
%TO.P,J9,2,Pin_2*%
%TO.N,/RX*%
X40500000Y-48000000D03*
%TO.P,J9,3,Pin_3*%
%TO.N,/TX*%
X37960000Y-48000000D03*
%TO.P,J9,4,Pin_4*%
%TO.N,GND*%
X35420000Y-48000000D03*
%TD*%
D12*
%TO.P,J10,1,Pin_1*%
%TO.N,GND*%
X79500000Y-43500000D03*
%TD*%
%TO.P,J8,1,Pin_1*%
%TO.N,Net-(D1-A)*%
X89500000Y-43500000D03*
%TD*%
%TO.P,J3,1,Pin_1*%
%TO.N,Net-(J3-Pin_1)*%
X93225000Y-74500000D03*
D13*
%TO.P,J3,2,Pin_2*%
%TO.N,Net-(J3-Pin_2)*%
X95765000Y-74500000D03*
%TD*%
D12*
%TO.P,J2,1,Pin_1*%
%TO.N,GND*%
X54200000Y-54500000D03*
D13*
%TO.P,J2,2,Pin_2*%
%TO.N,/NRST*%
X56740000Y-54500000D03*
%TO.P,J2,3,Pin_3*%
%TO.N,/SWIO*%
X59280000Y-54500000D03*
%TO.P,J2,4,Pin_4*%
%TO.N,+5V*%
X61820000Y-54500000D03*
%TD*%
D12*
%TO.P,J7,1,Pin_1*%
%TO.N,Net-(D2--)*%
X79500000Y-58500000D03*
%TD*%
%TO.P,J5,1,Pin_1*%
%TO.N,GND*%
X18000000Y-14500000D03*
%TD*%
D14*
%TO.P,D1,1,K*%
%TO.N,+5V*%
X72000000Y-48080000D03*
D15*
%TO.P,D1,2,A*%
%TO.N,Net-(D1-A)*%
X72000000Y-37920000D03*
%TD*%
D16*
%TO.P,D3,1,+*%
%TO.N,+27V*%
X72000000Y-76740000D03*
D17*
%TO.P,D3,2*%
%TO.N,Net-(J4-Pin_1)*%
X72000000Y-71660000D03*
%TO.P,D3,3*%
%TO.N,Net-(J4-Pin_2)*%
X72000000Y-66580000D03*
%TO.P,D3,4,-*%
%TO.N,GND*%
X72000000Y-61500000D03*
%TD*%
D18*
%TO.P,C1,1*%
%TO.N,+27V*%
X61000000Y-74367700D03*
D19*
%TO.P,C1,2*%
%TO.N,GND*%
X61000000Y-69367700D03*
%TD*%
D12*
%TO.P,J4,1,Pin_1*%
%TO.N,Net-(J4-Pin_1)*%
X84000000Y-75775000D03*
D13*
%TO.P,J4,2,Pin_2*%
%TO.N,Net-(J4-Pin_2)*%
X84000000Y-73235000D03*
%TD*%
D12*
%TO.P,J6,1,Pin_1*%
%TO.N,Net-(D2-+)*%
X89500000Y-58500000D03*
%TD*%
D16*
%TO.P,D2,1,+*%
%TO.N,Net-(D2-+)*%
X89260000Y-66500000D03*
D17*
%TO.P,D2,2*%
%TO.N,Net-(J3-Pin_1)*%
X94340000Y-66500000D03*
%TO.P,D2,3*%
%TO.N,Net-(J3-Pin_2)*%
X99420000Y-66500000D03*
%TO.P,D2,4,-*%
%TO.N,Net-(D2--)*%
X104500000Y-66500000D03*
%TD*%
D20*
%TO.N,GND*%
X86513800Y-32165000D03*
X80965300Y-33645900D03*
X53919100Y-35698700D03*
X72075850Y-52075850D03*
X51563500Y-38604500D03*
%TO.N,+27V*%
X78209800Y-17631900D03*
X75262700Y-18675200D03*
X78209800Y-15000000D03*
X75262700Y-19934100D03*
%TO.N,Net-(D1-A)*%
X77276200Y-44451400D03*
%TO.N,/H_HIGH*%
X105436200Y-15825100D03*
X105436200Y-22563400D03*
%TO.N,/SEG2_HIGH*%
X60850600Y-22190000D03*
X48332200Y-42162300D03*
%TO.N,/SEG6_HIGH*%
X41825200Y-52814900D03*
X43500000Y-24309600D03*
%TO.N,/SEG7_HIGH*%
X33721500Y-26277400D03*
%TO.N,/SEG5_HIGH*%
X42757400Y-52327400D03*
X48550000Y-24429300D03*
%TO.N,/A_HIGH*%
X73500000Y-21805600D03*
X69368500Y-15246300D03*
X22422600Y-15246300D03*
%TO.N,/E_HIGH*%
X93450000Y-17246000D03*
X93450000Y-21882700D03*
%TO.N,/SEG1_HIGH*%
X48308600Y-43038500D03*
X66538600Y-23000000D03*
%TO.N,/SEG8_HIGH*%
X33093500Y-22021200D03*
%TO.N,/SEG9_HIGH*%
X26155300Y-23673700D03*
%TO.N,/SEG4_HIGH*%
X53424400Y-24366500D03*
X46058500Y-51879500D03*
%TO.N,/SEG3_HIGH*%
X46660300Y-45120000D03*
X58452100Y-24263000D03*
%TO.N,/B_HIGH*%
X28165800Y-19925800D03*
X72770900Y-19925800D03*
X75398200Y-22553100D03*
%TO.N,/NRST*%
X57391700Y-39180000D03*
%TO.N,/SWIO*%
X59280000Y-38530000D03*
%TO.N,+5V*%
X44210800Y-42055000D03*
%TO.N,/TX*%
X44653400Y-47450000D03*
%TO.N,/F_LOW*%
X92264100Y-41647700D03*
X95334100Y-30757500D03*
%TO.N,/G_LOW*%
X99506700Y-31359800D03*
X93352500Y-42249500D03*
%TO.N,/H_LOW*%
X105000000Y-31000000D03*
X94500000Y-44000000D03*
%TO.N,/SEG2_LOW*%
X52825200Y-39009200D03*
X60151500Y-30751200D03*
%TO.N,/SEG3_LOW*%
X54928600Y-30692300D03*
X48101500Y-39796300D03*
%TO.N,/SEG4_LOW*%
X50406200Y-30773500D03*
X50122200Y-36639600D03*
%TO.N,/SEG5_LOW*%
X46814400Y-31676700D03*
X46813200Y-38805000D03*
%TO.N,/SEG8_LOW*%
X34649200Y-30788700D03*
X39904200Y-40755000D03*
%TO.N,/SEG9_LOW*%
X27233682Y-34211291D03*
X27244000Y-30985900D03*
%TO.N,/SRCLK*%
X35748500Y-38050000D03*
X44225000Y-38155000D03*
%TD*%
D21*
%TO.N,GND*%
X54200000Y-62567700D02*
X54200000Y-54500000D01*
X85032900Y-33645900D02*
X86513800Y-32165000D01*
X80965300Y-42152400D02*
X80965300Y-33645900D01*
X53919100Y-36248900D02*
X51563500Y-38604500D01*
X79500000Y-43617700D02*
X79500000Y-44651700D01*
X79500000Y-43617700D02*
X80965300Y-42152400D01*
X72075850Y-52075850D02*
X79500000Y-44651700D01*
X72000000Y-52151700D02*
X72075850Y-52075850D01*
X54200000Y-54500000D02*
X54200000Y-41241000D01*
X61000000Y-69367700D02*
X54200000Y-62567700D01*
X80965300Y-33645900D02*
X85032900Y-33645900D01*
X79500000Y-43500000D02*
X79500000Y-43617700D01*
X53919100Y-35698700D02*
X53919100Y-36248900D01*
X54200000Y-41241000D02*
X51563500Y-38604500D01*
%TO.N,+27V*%
X75585200Y-20256500D02*
X78209800Y-17631900D01*
X75585200Y-20256500D02*
X75262700Y-19934100D01*
X76019800Y-20691200D02*
X75585200Y-20256500D01*
X61000000Y-74367700D02*
X67500000Y-67867700D01*
X78209800Y-15000000D02*
X78209800Y-17631900D01*
X75262700Y-19934100D02*
X75262700Y-18675200D01*
X67500000Y-31734400D02*
X76019800Y-23214600D01*
X76019800Y-23214600D02*
X76019800Y-20691200D01*
X67500000Y-67867700D02*
X67500000Y-31734400D01*
%TO.N,Net-(D2--)*%
X104500000Y-66500000D02*
X105000000Y-66000000D01*
X105000000Y-66000000D02*
X105000000Y-53500000D01*
%TO.N,Net-(D2-+)*%
X89260000Y-66500000D02*
X89260000Y-64240000D01*
X89260000Y-64240000D02*
X100000000Y-53500000D01*
%TO.N,Net-(D1-A)*%
X76863800Y-44451400D02*
X77276200Y-44451400D01*
X72000000Y-37920000D02*
X72000000Y-39587600D01*
X72000000Y-39587600D02*
X76863800Y-44451400D01*
%TO.N,/H_HIGH*%
X105436200Y-22563400D02*
X105436200Y-15825100D01*
%TO.N,/SEG2_HIGH*%
X60850600Y-27485900D02*
X53641200Y-34695300D01*
X50336300Y-38412600D02*
X50336300Y-40158200D01*
X52915700Y-35283300D02*
X52915700Y-35833200D01*
X52915700Y-35833200D02*
X50336300Y-38412600D01*
X60850600Y-22190000D02*
X60850600Y-27485900D01*
X50336300Y-40158200D02*
X48332200Y-42162300D01*
X53503700Y-34695300D02*
X52915700Y-35283300D01*
X53641200Y-34695300D02*
X53503700Y-34695300D01*
%TO.N,/SEG6_HIGH*%
X45255100Y-26064700D02*
X45255100Y-48970600D01*
X43500000Y-24309600D02*
X45255100Y-26064700D01*
X45255100Y-48970600D02*
X41825200Y-52400500D01*
X41825200Y-52400500D02*
X41825200Y-52814900D01*
%TO.N,/SEG7_HIGH*%
X18000000Y-55280000D02*
X18000000Y-55000000D01*
X18000000Y-55000000D02*
X20000000Y-53000000D01*
X20000000Y-47363600D02*
X33721500Y-33642100D01*
X20000000Y-53000000D02*
X20000000Y-47363600D01*
X33721500Y-33642100D02*
X33721500Y-26277400D01*
%TO.N,/SEG5_HIGH*%
X48550000Y-24429300D02*
X45656800Y-27322500D01*
X45656800Y-27322500D02*
X45656800Y-49428000D01*
X45656800Y-49428000D02*
X42757400Y-52327400D01*
%TO.N,/A_HIGH*%
X17637100Y-31150000D02*
X18394500Y-31150000D01*
X16800300Y-31986800D02*
X17637100Y-31150000D01*
X69368500Y-17674100D02*
X73500000Y-21805600D01*
X18394500Y-31150000D02*
X19151700Y-30392800D01*
X69368500Y-15246300D02*
X69368500Y-17674100D01*
X17712100Y-36348300D02*
X16800300Y-35436500D01*
X18000000Y-36348300D02*
X17712100Y-36348300D01*
X19151700Y-30392800D02*
X19151700Y-18517200D01*
X16800300Y-35436500D02*
X16800300Y-31986800D01*
X19151700Y-18517200D02*
X22422600Y-15246300D01*
X18000000Y-37500000D02*
X18000000Y-36348300D01*
%TO.N,/E_HIGH*%
X93450000Y-21882700D02*
X93450000Y-17246000D01*
%TO.N,/SEG1_HIGH*%
X66538600Y-23000000D02*
X54441600Y-35097000D01*
X53317400Y-35999500D02*
X50779300Y-38537600D01*
X53670000Y-35097000D02*
X53317400Y-35449600D01*
X54441600Y-35097000D02*
X53670000Y-35097000D01*
X53317400Y-35449600D02*
X53317400Y-35999500D01*
X50779300Y-38537600D02*
X50779300Y-40567800D01*
X50779300Y-40567800D02*
X48308600Y-43038500D01*
%TO.N,/SEG8_HIGH*%
X18443500Y-43850000D02*
X33093500Y-29200000D01*
X16411400Y-45037600D02*
X17599000Y-43850000D01*
X18000000Y-57820000D02*
X18000000Y-57500000D01*
X33093500Y-29200000D02*
X33093500Y-22021200D01*
X16411400Y-55911400D02*
X16411400Y-45037600D01*
X17599000Y-43850000D02*
X18443500Y-43850000D01*
X18000000Y-57500000D02*
X16411400Y-55911400D01*
%TO.N,/SEG9_HIGH*%
X16009700Y-58369700D02*
X18000000Y-60360000D01*
X17690300Y-38650000D02*
X16009700Y-40330600D01*
X16009700Y-40330600D02*
X16009700Y-58369700D01*
X20000000Y-33500000D02*
X20000000Y-37500000D01*
X26155300Y-23673700D02*
X26155300Y-27344700D01*
X20000000Y-37500000D02*
X18850000Y-38650000D01*
X26155300Y-27344700D02*
X20000000Y-33500000D01*
X18850000Y-38650000D02*
X17690300Y-38650000D01*
%TO.N,/SEG4_HIGH*%
X53424400Y-24366500D02*
X53273400Y-24366500D01*
X46058500Y-31581400D02*
X46058500Y-51879500D01*
X53273400Y-24366500D02*
X46058500Y-31581400D01*
%TO.N,/SEG3_HIGH*%
X49934600Y-38814300D02*
X46660300Y-42088600D01*
X58452100Y-29178900D02*
X52514000Y-35117000D01*
X58452100Y-24263000D02*
X58452100Y-29178900D01*
X49934600Y-38246300D02*
X49934600Y-38814300D01*
X46660300Y-42088600D02*
X46660300Y-45120000D01*
X52514000Y-35117000D02*
X52514000Y-35666900D01*
X52514000Y-35666900D02*
X49934600Y-38246300D01*
%TO.N,/B_HIGH*%
X22043400Y-26048200D02*
X28165800Y-19925800D01*
X18288000Y-33808300D02*
X22043400Y-30052900D01*
X22043400Y-30052900D02*
X22043400Y-26048200D01*
X18000000Y-34960000D02*
X18000000Y-33808300D01*
X18000000Y-33808300D02*
X18288000Y-33808300D01*
X75398200Y-22553100D02*
X72770900Y-19925800D01*
%TO.N,/NRST*%
X56740000Y-54500000D02*
X56740000Y-39831700D01*
X56740000Y-39831700D02*
X57391700Y-39180000D01*
%TO.N,/SWIO*%
X59280000Y-54500000D02*
X59280000Y-38530000D01*
%TO.N,+5V*%
X43040000Y-48000000D02*
X43040000Y-43225800D01*
X43040000Y-43225800D02*
X44210800Y-42055000D01*
%TO.N,/TX*%
X44653400Y-48538500D02*
X43954300Y-49237600D01*
X40080800Y-49237600D02*
X39111700Y-48268500D01*
X44653400Y-47450000D02*
X44653400Y-48538500D01*
X43954300Y-49237600D02*
X40080800Y-49237600D01*
X37960000Y-48000000D02*
X39111700Y-48000000D01*
X39111700Y-48268500D02*
X39111700Y-48000000D01*
%TO.N,/F_LOW*%
X92264100Y-33827500D02*
X92264100Y-41647700D01*
X95334100Y-30757500D02*
X92264100Y-33827500D01*
%TO.N,/G_LOW*%
X99506700Y-36095300D02*
X93352500Y-42249500D01*
X99506700Y-31359800D02*
X99506700Y-36095300D01*
%TO.N,/H_LOW*%
X105000000Y-31000000D02*
X105000000Y-33500000D01*
X105000000Y-33500000D02*
X94500000Y-44000000D01*
%TO.N,/SEG2_LOW*%
X60151500Y-31682900D02*
X52825200Y-39009200D01*
X60151500Y-30751200D02*
X60151500Y-31682900D01*
%TO.N,/SEG3_LOW*%
X52112300Y-33508600D02*
X52112300Y-35500600D01*
X54928600Y-30692300D02*
X52112300Y-33508600D01*
X48101500Y-39511400D02*
X48101500Y-39796300D01*
X52112300Y-35500600D02*
X48101500Y-39511400D01*
%TO.N,/SEG4_LOW*%
X50406200Y-30773500D02*
X50406200Y-36355600D01*
X50406200Y-36355600D02*
X50122200Y-36639600D01*
%TO.N,/SEG5_LOW*%
X46813200Y-38805000D02*
X46813200Y-31677900D01*
X46813200Y-31677900D02*
X46814400Y-31676700D01*
%TO.N,/SEG8_LOW*%
X34649200Y-37872900D02*
X37531300Y-40755000D01*
X37531300Y-40755000D02*
X39904200Y-40755000D01*
X34649200Y-30788700D02*
X34649200Y-37872900D01*
%TO.N,/SEG9_LOW*%
X27233682Y-34211291D02*
X27244000Y-34200973D01*
X27244000Y-34200973D02*
X27244000Y-30985900D01*
%TO.N,/SRCLK*%
X35853500Y-38155000D02*
X35748500Y-38050000D01*
X44225000Y-38155000D02*
X35853500Y-38155000D01*
%TD*%
M02*
