%TF.GenerationSoftware,KiCad,Pcbnew,8.0.7*%
%TF.CreationDate,2025-02-03T18:08:29+01:00*%
%TF.ProjectId,e,652e6b69-6361-4645-9f70-636258585858,rev?*%
%TF.SameCoordinates,Original*%
%TF.FileFunction,Paste,Top*%
%TF.FilePolarity,Positive*%
%FSLAX46Y46*%
G04 Gerber Fmt 4.6, Leading zero omitted, Abs format (unit mm)*
G04 Created by KiCad (PCBNEW 8.0.7) date 2025-02-03 18:08:29*
%MOMM*%
%LPD*%
G01*
G04 APERTURE LIST*
G04 Aperture macros list*
%AMRoundRect*
0 Rectangle with rounded corners*
0 $1 Rounding radius*
0 $2 $3 $4 $5 $6 $7 $8 $9 X,Y pos of 4 corners*
0 Add a 4 corners polygon primitive as box body*
4,1,4,$2,$3,$4,$5,$6,$7,$8,$9,$2,$3,0*
0 Add four circle primitives for the rounded corners*
1,1,$1+$1,$2,$3*
1,1,$1+$1,$4,$5*
1,1,$1+$1,$6,$7*
1,1,$1+$1,$8,$9*
0 Add four rect primitives between the rounded corners*
20,1,$1+$1,$2,$3,$4,$5,0*
20,1,$1+$1,$4,$5,$6,$7,0*
20,1,$1+$1,$6,$7,$8,$9,0*
20,1,$1+$1,$8,$9,$2,$3,0*%
G04 Aperture macros list end*
%ADD10RoundRect,0.150000X0.150000X-0.587500X0.150000X0.587500X-0.150000X0.587500X-0.150000X-0.587500X0*%
%ADD11RoundRect,0.079500X-0.100500X0.079500X-0.100500X-0.079500X0.100500X-0.079500X0.100500X0.079500X0*%
%ADD12RoundRect,0.079500X0.079500X0.100500X-0.079500X0.100500X-0.079500X-0.100500X0.079500X-0.100500X0*%
%ADD13R,1.200000X0.400000*%
%ADD14RoundRect,0.100000X-0.637500X-0.100000X0.637500X-0.100000X0.637500X0.100000X-0.637500X0.100000X0*%
G04 APERTURE END LIST*
D10*
%TO.C,Q13*%
X101550000Y-29875000D03*
X103450000Y-29875000D03*
X102500000Y-28000000D03*
%TD*%
%TO.C,Q20*%
X62550000Y-24875000D03*
X64450000Y-24875000D03*
X63500000Y-23000000D03*
%TD*%
%TO.C,Q23*%
X51550000Y-29875000D03*
X53450000Y-29875000D03*
X52500000Y-28000000D03*
%TD*%
D11*
%TO.C,R62*%
X33550000Y-31562500D03*
X33550000Y-32252500D03*
%TD*%
%TO.C,R23*%
X99500000Y-20655000D03*
X99500000Y-21345000D03*
%TD*%
D12*
%TO.C,R40*%
X15345000Y-42500000D03*
X14655000Y-42500000D03*
%TD*%
D11*
%TO.C,R51*%
X49845000Y-20562500D03*
X49845000Y-21252500D03*
%TD*%
%TO.C,R11*%
X84500000Y-20655000D03*
X84500000Y-21345000D03*
%TD*%
%TO.C,R13*%
X87500000Y-20655000D03*
X87500000Y-21345000D03*
%TD*%
D10*
%TO.C,Q31*%
X31600000Y-29937500D03*
X33500000Y-29937500D03*
X32550000Y-28062500D03*
%TD*%
%TO.C,Q7*%
X86550000Y-29875000D03*
X88450000Y-29875000D03*
X87500000Y-28000000D03*
%TD*%
%TO.C,Q30*%
X37550000Y-24937500D03*
X39450000Y-24937500D03*
X38500000Y-23062500D03*
%TD*%
D11*
%TO.C,R58*%
X38500000Y-31562500D03*
X38500000Y-32252500D03*
%TD*%
%TO.C,R3*%
X73500000Y-31500000D03*
X73500000Y-32190000D03*
%TD*%
D10*
%TO.C,Q6*%
X82550000Y-24937500D03*
X84450000Y-24937500D03*
X83500000Y-23062500D03*
%TD*%
D13*
%TO.C,U3*%
X36950000Y-41950000D03*
X36950000Y-41300000D03*
X36950000Y-40650000D03*
X36950000Y-40000000D03*
X36950000Y-39350000D03*
X36950000Y-38700000D03*
X36950000Y-38050000D03*
X30050000Y-38050000D03*
X30050000Y-38700000D03*
X30050000Y-39350000D03*
X30050000Y-40000000D03*
X30050000Y-40650000D03*
X30050000Y-41300000D03*
X30050000Y-41950000D03*
%TD*%
D11*
%TO.C,R55*%
X44500000Y-20562500D03*
X44500000Y-21252500D03*
%TD*%
D12*
%TO.C,R56*%
X15345000Y-52500000D03*
X14655000Y-52500000D03*
%TD*%
D11*
%TO.C,R38*%
X63500000Y-31500000D03*
X63500000Y-32190000D03*
%TD*%
%TO.C,R34*%
X68500000Y-31500000D03*
X68500000Y-32190000D03*
%TD*%
D10*
%TO.C,Q8*%
X87550000Y-24937500D03*
X89450000Y-24937500D03*
X88500000Y-23062500D03*
%TD*%
D11*
%TO.C,R14*%
X88500000Y-31500000D03*
X88500000Y-32190000D03*
%TD*%
D10*
%TO.C,Q33*%
X26600000Y-29937500D03*
X28500000Y-29937500D03*
X27550000Y-28062500D03*
%TD*%
D11*
%TO.C,R21*%
X97500000Y-20655000D03*
X97500000Y-21345000D03*
%TD*%
%TO.C,R41*%
X57500000Y-20592500D03*
X57500000Y-21282500D03*
%TD*%
D10*
%TO.C,Q15*%
X106550000Y-29875000D03*
X108450000Y-29875000D03*
X107500000Y-28000000D03*
%TD*%
D11*
%TO.C,R6*%
X78500000Y-31500000D03*
X78500000Y-32190000D03*
%TD*%
%TO.C,R9*%
X82500000Y-20655000D03*
X82500000Y-21345000D03*
%TD*%
D10*
%TO.C,Q22*%
X57550000Y-24875000D03*
X59450000Y-24875000D03*
X58500000Y-23000000D03*
%TD*%
%TO.C,Q16*%
X107550000Y-24937500D03*
X109450000Y-24937500D03*
X108500000Y-23062500D03*
%TD*%
D11*
%TO.C,R37*%
X62500000Y-20655000D03*
X62500000Y-21345000D03*
%TD*%
D10*
%TO.C,Q1*%
X71550000Y-29875000D03*
X73450000Y-29875000D03*
X72500000Y-28000000D03*
%TD*%
%TO.C,Q26*%
X47600000Y-25062500D03*
X49500000Y-25062500D03*
X48550000Y-23187500D03*
%TD*%
D11*
%TO.C,R10*%
X83500000Y-31500000D03*
X83500000Y-32190000D03*
%TD*%
D12*
%TO.C,R60*%
X15345000Y-55155000D03*
X14655000Y-55155000D03*
%TD*%
D10*
%TO.C,Q4*%
X77550000Y-24875000D03*
X79450000Y-24875000D03*
X78500000Y-23000000D03*
%TD*%
%TO.C,Q9*%
X91550000Y-29875000D03*
X93450000Y-29875000D03*
X92500000Y-28000000D03*
%TD*%
%TO.C,Q32*%
X32650000Y-25062500D03*
X34550000Y-25062500D03*
X33600000Y-23187500D03*
%TD*%
D11*
%TO.C,R5*%
X77500000Y-20655000D03*
X77500000Y-21345000D03*
%TD*%
D10*
%TO.C,Q19*%
X61550000Y-29875000D03*
X63450000Y-29875000D03*
X62500000Y-28000000D03*
%TD*%
D11*
%TO.C,R1*%
X72500000Y-20655000D03*
X72500000Y-21345000D03*
%TD*%
%TO.C,R39*%
X64500000Y-20655000D03*
X64500000Y-21345000D03*
%TD*%
D12*
%TO.C,R28*%
X15345000Y-22500000D03*
X14655000Y-22500000D03*
%TD*%
D11*
%TO.C,R42*%
X58500000Y-31475000D03*
X58500000Y-32165000D03*
%TD*%
%TO.C,R19*%
X94500000Y-20655000D03*
X94500000Y-21345000D03*
%TD*%
D10*
%TO.C,Q12*%
X97550000Y-24937500D03*
X99450000Y-24937500D03*
X98500000Y-23062500D03*
%TD*%
D12*
%TO.C,R36*%
X15345000Y-40000000D03*
X14655000Y-40000000D03*
%TD*%
D10*
%TO.C,Q34*%
X27600000Y-24937500D03*
X29500000Y-24937500D03*
X28550000Y-23062500D03*
%TD*%
D11*
%TO.C,R59*%
X39500000Y-20562500D03*
X39500000Y-21252500D03*
%TD*%
%TO.C,R33*%
X67500000Y-20655000D03*
X67500000Y-21345000D03*
%TD*%
%TO.C,R25*%
X102500000Y-20592500D03*
X102500000Y-21282500D03*
%TD*%
%TO.C,R31*%
X109500000Y-20655000D03*
X109500000Y-21345000D03*
%TD*%
%TO.C,R22*%
X98500000Y-31500000D03*
X98500000Y-32190000D03*
%TD*%
%TO.C,R15*%
X89500000Y-20655000D03*
X89500000Y-21345000D03*
%TD*%
D12*
%TO.C,R16*%
X15345000Y-30000000D03*
X14655000Y-30000000D03*
%TD*%
%TO.C,R68*%
X15345000Y-60000000D03*
X14655000Y-60000000D03*
%TD*%
D11*
%TO.C,R50*%
X48500000Y-31562500D03*
X48500000Y-32252500D03*
%TD*%
%TO.C,R30*%
X108500000Y-31500000D03*
X108500000Y-32190000D03*
%TD*%
%TO.C,R67*%
X29550000Y-20537500D03*
X29550000Y-21227500D03*
%TD*%
%TO.C,R7*%
X79500000Y-20655000D03*
X79500000Y-21345000D03*
%TD*%
D12*
%TO.C,R48*%
X15345000Y-47500000D03*
X14655000Y-47500000D03*
%TD*%
D11*
%TO.C,R27*%
X104500000Y-20655000D03*
X104500000Y-21345000D03*
%TD*%
D10*
%TO.C,Q28*%
X42550000Y-24937500D03*
X44450000Y-24937500D03*
X43500000Y-23062500D03*
%TD*%
D12*
%TO.C,R20*%
X15345000Y-27500000D03*
X14655000Y-27500000D03*
%TD*%
%TO.C,R8*%
X15345000Y-35000000D03*
X14655000Y-35000000D03*
%TD*%
D10*
%TO.C,Q24*%
X52600000Y-25000000D03*
X54500000Y-25000000D03*
X53550000Y-23125000D03*
%TD*%
D11*
%TO.C,R65*%
X27370000Y-20562500D03*
X27370000Y-21252500D03*
%TD*%
%TO.C,R2*%
X74500000Y-20655000D03*
X74500000Y-21345000D03*
%TD*%
D12*
%TO.C,R32*%
X15345000Y-20000000D03*
X14655000Y-20000000D03*
%TD*%
D10*
%TO.C,Q5*%
X81550000Y-29875000D03*
X83450000Y-29875000D03*
X82500000Y-28000000D03*
%TD*%
%TO.C,Q29*%
X36487500Y-29950000D03*
X38387500Y-29950000D03*
X37437500Y-28075000D03*
%TD*%
D12*
%TO.C,R52*%
X15345000Y-50000000D03*
X14655000Y-50000000D03*
%TD*%
D11*
%TO.C,R43*%
X59500000Y-20655000D03*
X59500000Y-21345000D03*
%TD*%
D12*
%TO.C,R4*%
X15345000Y-37500000D03*
X14655000Y-37500000D03*
%TD*%
D11*
%TO.C,R61*%
X32550000Y-20562500D03*
X32550000Y-21252500D03*
%TD*%
%TO.C,R49*%
X47500000Y-20562500D03*
X47500000Y-21252500D03*
%TD*%
D12*
%TO.C,R44*%
X15345000Y-45000000D03*
X14655000Y-45000000D03*
%TD*%
D10*
%TO.C,Q25*%
X46550000Y-29937500D03*
X48450000Y-29937500D03*
X47500000Y-28062500D03*
%TD*%
D11*
%TO.C,R63*%
X34730000Y-20562500D03*
X34730000Y-21252500D03*
%TD*%
%TO.C,R47*%
X54500000Y-20655000D03*
X54500000Y-21345000D03*
%TD*%
D10*
%TO.C,Q11*%
X96550000Y-29875000D03*
X98450000Y-29875000D03*
X97500000Y-28000000D03*
%TD*%
%TO.C,Q18*%
X67550000Y-24875000D03*
X69450000Y-24875000D03*
X68500000Y-23000000D03*
%TD*%
D13*
%TO.C,U1*%
X50000000Y-42055000D03*
X50000000Y-41405000D03*
X50000000Y-40755000D03*
X50000000Y-40105000D03*
X50000000Y-39455000D03*
X50000000Y-38805000D03*
X50000000Y-38155000D03*
X43100000Y-38155000D03*
X43100000Y-38805000D03*
X43100000Y-39455000D03*
X43100000Y-40105000D03*
X43100000Y-40755000D03*
X43100000Y-41405000D03*
X43100000Y-42055000D03*
%TD*%
D10*
%TO.C,Q17*%
X66550000Y-29875000D03*
X68450000Y-29875000D03*
X67500000Y-28000000D03*
%TD*%
D11*
%TO.C,R53*%
X42500000Y-20562500D03*
X42500000Y-21252500D03*
%TD*%
%TO.C,R54*%
X43500000Y-31562500D03*
X43500000Y-32252500D03*
%TD*%
D14*
%TO.C,U2*%
X56137500Y-37230000D03*
X56137500Y-37880000D03*
X56137500Y-38530000D03*
X56137500Y-39180000D03*
X56137500Y-39830000D03*
X56137500Y-40480000D03*
X56137500Y-41130000D03*
X56137500Y-41780000D03*
X56137500Y-42430000D03*
X56137500Y-43080000D03*
X61862500Y-43080000D03*
X61862500Y-42430000D03*
X61862500Y-41780000D03*
X61862500Y-41130000D03*
X61862500Y-40480000D03*
X61862500Y-39830000D03*
X61862500Y-39180000D03*
X61862500Y-38530000D03*
X61862500Y-37880000D03*
X61862500Y-37230000D03*
%TD*%
D11*
%TO.C,R17*%
X92500000Y-20655000D03*
X92500000Y-21345000D03*
%TD*%
D10*
%TO.C,Q2*%
X72550000Y-24937500D03*
X74450000Y-24937500D03*
X73500000Y-23062500D03*
%TD*%
D11*
%TO.C,R18*%
X93500000Y-31500000D03*
X93500000Y-32190000D03*
%TD*%
D12*
%TO.C,R12*%
X15345000Y-32500000D03*
X14655000Y-32500000D03*
%TD*%
D11*
%TO.C,R57*%
X37345000Y-20562500D03*
X37345000Y-21252500D03*
%TD*%
%TO.C,R26*%
X103500000Y-31500000D03*
X103500000Y-32190000D03*
%TD*%
D10*
%TO.C,Q21*%
X56550000Y-29875000D03*
X58450000Y-29875000D03*
X57500000Y-28000000D03*
%TD*%
%TO.C,Q3*%
X76550000Y-29875000D03*
X78450000Y-29875000D03*
X77500000Y-28000000D03*
%TD*%
D11*
%TO.C,R29*%
X107500000Y-20655000D03*
X107500000Y-21345000D03*
%TD*%
D10*
%TO.C,Q10*%
X92500000Y-25000000D03*
X94400000Y-25000000D03*
X93450000Y-23125000D03*
%TD*%
%TO.C,Q14*%
X102550000Y-24937500D03*
X104450000Y-24937500D03*
X103500000Y-23062500D03*
%TD*%
D11*
%TO.C,R46*%
X53500000Y-31500000D03*
X53500000Y-32190000D03*
%TD*%
%TO.C,R66*%
X28550000Y-31562500D03*
X28550000Y-32252500D03*
%TD*%
%TO.C,R35*%
X69500000Y-20655000D03*
X69500000Y-21345000D03*
%TD*%
%TO.C,R45*%
X52500000Y-20655000D03*
X52500000Y-21345000D03*
%TD*%
D12*
%TO.C,R24*%
X15345000Y-25000000D03*
X14655000Y-25000000D03*
%TD*%
D10*
%TO.C,Q27*%
X41550000Y-29937500D03*
X43450000Y-29937500D03*
X42500000Y-28062500D03*
%TD*%
D12*
%TO.C,R64*%
X15345000Y-57820000D03*
X14655000Y-57820000D03*
%TD*%
M02*
