M48
; DRILL file {KiCad 8.0.7} date 2025-02-03T18:08:29+0100
; FORMAT={-:-/ absolute / inch / decimal}
; #@! TF.CreationDate,2025-02-03T18:08:29+01:00
; #@! TF.GenerationSoftware,Kicad,Pcbnew,8.0.7
; #@! TF.FileFunction,Plated,1,2,PTH
FMAT,2
INCH
; #@! TA.AperFunction,Plated,PTH,ViaDrill
T1C0.0118
; #@! TA.AperFunction,Plated,PTH,ComponentDrill
T2C0.0394
; #@! TA.AperFunction,Plated,PTH,ComponentDrill
T3C0.0433
; #@! TA.AperFunction,Plated,PTH,ComponentDrill
T4C0.0472
; #@! TA.AperFunction,Plated,PTH,ComponentDrill
T5C0.0630
%
G90
G05
T1
X0.8828Y-0.6002
X1.0297Y-0.932
X1.0722Y-1.3469
X1.0726Y-1.2199
X1.1089Y-0.7845
X1.3029Y-0.867
X1.3276Y-1.0345
X1.3641Y-1.2122
X1.4074Y-1.498
X1.571Y-1.6045
X1.6467Y-2.0793
X1.6834Y-2.0601
X1.7126Y-0.9571
X1.7406Y-1.6557
X1.7411Y-1.5022
X1.758Y-1.8681
X1.8133Y-2.0425
X1.837Y-1.7764
X1.843Y-1.5278
X1.8431Y-1.2471
X1.8938Y-1.5668
X1.9019Y-1.6944
X1.9028Y-1.6599
X1.9114Y-0.9618
X1.9733Y-1.4425
X1.9845Y-1.2116
X2.0301Y-1.5199
X2.0797Y-1.5358
X2.1033Y-0.9593
X2.1228Y-1.4055
X2.1625Y-1.2084
X2.2595Y-1.5425
X2.3013Y-0.9552
X2.3339Y-1.5169
X2.3682Y-1.2107
X2.3957Y-0.8736
X2.6196Y-0.9055
X2.731Y-0.6002
X2.8376Y-2.0502
X2.865Y-0.7845
X2.8937Y-0.8585
X2.9631Y-0.7352
X2.9631Y-0.7848
X2.9684Y-0.8879
X3.0424Y-1.7501
X3.0791Y-0.5906
X3.0791Y-0.6942
X3.1876Y-1.3246
X3.4061Y-1.2663
X3.6324Y-1.6397
X3.6753Y-1.6634
X3.6791Y-0.679
X3.6791Y-0.8615
X3.7205Y-1.7323
X3.7533Y-1.2109
X3.9176Y-1.2346
X4.1339Y-1.2205
X4.151Y-0.623
X4.151Y-0.8883
T2
X0.7087Y-0.5709
X0.7087Y-0.7764
X0.7087Y-0.8764
X0.7087Y-0.9764
X0.7087Y-1.0764
X0.7087Y-1.1764
X0.7087Y-1.2764
X0.7087Y-1.3764
X0.7087Y-1.4764
X0.7087Y-1.5764
X0.7087Y-1.6764
X0.7087Y-1.7764
X0.7087Y-1.8764
X0.7087Y-1.9764
X0.7087Y-2.0764
X0.7087Y-2.1764
X0.7087Y-2.2764
X0.7087Y-2.3764
X1.3945Y-1.8898
X1.4945Y-1.8898
X1.5945Y-1.8898
X1.6945Y-1.8898
X2.1339Y-2.1457
X2.2339Y-2.1457
X2.3339Y-2.1457
X2.4016Y-2.731
X2.4016Y-2.9279
X2.4339Y-2.1457
X3.1299Y-1.7126
X3.1299Y-2.3031
X3.3071Y-2.8833
X3.3071Y-2.9833
X3.5236Y-1.7126
X3.5236Y-2.3031
X3.6703Y-2.9331
X3.7703Y-2.9331
T3
X2.8346Y-1.4929
X2.8346Y-1.8929
T4
X3.937Y-2.1063
X4.1339Y-2.1063
T5
X2.8346Y-2.4213
X2.8346Y-2.6213
X2.8346Y-2.8213
X2.8346Y-3.0213
X3.5142Y-2.6181
X3.7142Y-2.6181
X3.9142Y-2.6181
X4.1142Y-2.6181
M30
