%TF.GenerationSoftware,KiCad,Pcbnew,8.0.7*%
%TF.CreationDate,2025-02-03T18:08:29+01:00*%
%TF.ProjectId,e,652e6b69-6361-4645-9f70-636258585858,rev?*%
%TF.SameCoordinates,Original*%
%TF.FileFunction,Legend,Top*%
%TF.FilePolarity,Positive*%
%FSLAX46Y46*%
G04 Gerber Fmt 4.6, Leading zero omitted, Abs format (unit mm)*
G04 Created by KiCad (PCBNEW 8.0.7) date 2025-02-03 18:08:29*
%MOMM*%
%LPD*%
G01*
G04 APERTURE LIST*
G04 Aperture macros list*
%AMRoundRect*
0 Rectangle with rounded corners*
0 $1 Rounding radius*
0 $2 $3 $4 $5 $6 $7 $8 $9 X,Y pos of 4 corners*
0 Add a 4 corners polygon primitive as box body*
4,1,4,$2,$3,$4,$5,$6,$7,$8,$9,$2,$3,0*
0 Add four circle primitives for the rounded corners*
1,1,$1+$1,$2,$3*
1,1,$1+$1,$4,$5*
1,1,$1+$1,$6,$7*
1,1,$1+$1,$8,$9*
0 Add four rect primitives between the rounded corners*
20,1,$1+$1,$2,$3,$4,$5,0*
20,1,$1+$1,$4,$5,$6,$7,0*
20,1,$1+$1,$6,$7,$8,$9,0*
20,1,$1+$1,$8,$9,$2,$3,0*%
G04 Aperture macros list end*
%ADD10C,0.300000*%
%ADD11C,0.150000*%
%ADD12C,0.120000*%
%ADD13RoundRect,0.150000X0.150000X-0.587500X0.150000X0.587500X-0.150000X0.587500X-0.150000X-0.587500X0*%
%ADD14R,2.400000X2.400000*%
%ADD15C,2.400000*%
%ADD16RoundRect,0.100000X-0.100000X0.130000X-0.100000X-0.130000X0.100000X-0.130000X0.100000X0.130000X0*%
%ADD17RoundRect,0.100000X0.130000X0.100000X-0.130000X0.100000X-0.130000X-0.100000X0.130000X-0.100000X0*%
%ADD18R,1.700000X1.700000*%
%ADD19O,1.700000X1.700000*%
%ADD20R,1.200000X0.400000*%
%ADD21R,2.200000X2.200000*%
%ADD22O,2.200000X2.200000*%
%ADD23R,3.200000X3.200000*%
%ADD24C,3.200000*%
%ADD25R,2.000000X2.000000*%
%ADD26C,2.000000*%
%ADD27RoundRect,0.100000X-0.637500X-0.100000X0.637500X-0.100000X0.637500X0.100000X-0.637500X0.100000X0*%
G04 APERTURE END LIST*
D10*
X16197368Y-74617257D02*
X16197368Y-76617257D01*
X14911653Y-74617257D02*
X14911653Y-76188685D01*
X14911653Y-76188685D02*
X15054510Y-76474400D01*
X15054510Y-76474400D02*
X15340225Y-76617257D01*
X15340225Y-76617257D02*
X15768796Y-76617257D01*
X15768796Y-76617257D02*
X16054510Y-76474400D01*
X16054510Y-76474400D02*
X16197368Y-76331542D01*
X17483082Y-76474400D02*
X17768796Y-76617257D01*
X17768796Y-76617257D02*
X18340225Y-76617257D01*
X18340225Y-76617257D02*
X18625939Y-76474400D01*
X18625939Y-76474400D02*
X18768796Y-76188685D01*
X18768796Y-76188685D02*
X18768796Y-76045828D01*
X18768796Y-76045828D02*
X18625939Y-75760114D01*
X18625939Y-75760114D02*
X18340225Y-75617257D01*
X18340225Y-75617257D02*
X17911654Y-75617257D01*
X17911654Y-75617257D02*
X17625939Y-75474400D01*
X17625939Y-75474400D02*
X17483082Y-75188685D01*
X17483082Y-75188685D02*
X17483082Y-75045828D01*
X17483082Y-75045828D02*
X17625939Y-74760114D01*
X17625939Y-74760114D02*
X17911654Y-74617257D01*
X17911654Y-74617257D02*
X18340225Y-74617257D01*
X18340225Y-74617257D02*
X18625939Y-74760114D01*
X20483082Y-76617257D02*
X20197367Y-76474400D01*
X20197367Y-76474400D02*
X20054510Y-76331542D01*
X20054510Y-76331542D02*
X19911653Y-76045828D01*
X19911653Y-76045828D02*
X19911653Y-75188685D01*
X19911653Y-75188685D02*
X20054510Y-74902971D01*
X20054510Y-74902971D02*
X20197367Y-74760114D01*
X20197367Y-74760114D02*
X20483082Y-74617257D01*
X20483082Y-74617257D02*
X20911653Y-74617257D01*
X20911653Y-74617257D02*
X21197367Y-74760114D01*
X21197367Y-74760114D02*
X21340225Y-74902971D01*
X21340225Y-74902971D02*
X21483082Y-75188685D01*
X21483082Y-75188685D02*
X21483082Y-76045828D01*
X21483082Y-76045828D02*
X21340225Y-76331542D01*
X21340225Y-76331542D02*
X21197367Y-76474400D01*
X21197367Y-76474400D02*
X20911653Y-76617257D01*
X20911653Y-76617257D02*
X20483082Y-76617257D01*
X22768796Y-76331542D02*
X22911653Y-76474400D01*
X22911653Y-76474400D02*
X22768796Y-76617257D01*
X22768796Y-76617257D02*
X22625939Y-76474400D01*
X22625939Y-76474400D02*
X22768796Y-76331542D01*
X22768796Y-76331542D02*
X22768796Y-76617257D01*
X24625939Y-76617257D02*
X24340224Y-76474400D01*
X24340224Y-76474400D02*
X24197367Y-76188685D01*
X24197367Y-76188685D02*
X24197367Y-73617257D01*
X26197368Y-76617257D02*
X25911653Y-76474400D01*
X25911653Y-76474400D02*
X25768796Y-76331542D01*
X25768796Y-76331542D02*
X25625939Y-76045828D01*
X25625939Y-76045828D02*
X25625939Y-75188685D01*
X25625939Y-75188685D02*
X25768796Y-74902971D01*
X25768796Y-74902971D02*
X25911653Y-74760114D01*
X25911653Y-74760114D02*
X26197368Y-74617257D01*
X26197368Y-74617257D02*
X26625939Y-74617257D01*
X26625939Y-74617257D02*
X26911653Y-74760114D01*
X26911653Y-74760114D02*
X27054511Y-74902971D01*
X27054511Y-74902971D02*
X27197368Y-75188685D01*
X27197368Y-75188685D02*
X27197368Y-76045828D01*
X27197368Y-76045828D02*
X27054511Y-76331542D01*
X27054511Y-76331542D02*
X26911653Y-76474400D01*
X26911653Y-76474400D02*
X26625939Y-76617257D01*
X26625939Y-76617257D02*
X26197368Y-76617257D01*
X28197368Y-74617257D02*
X28911654Y-76617257D01*
X28911654Y-76617257D02*
X29625939Y-74617257D01*
X31911653Y-76474400D02*
X31625939Y-76617257D01*
X31625939Y-76617257D02*
X31054511Y-76617257D01*
X31054511Y-76617257D02*
X30768796Y-76474400D01*
X30768796Y-76474400D02*
X30625939Y-76188685D01*
X30625939Y-76188685D02*
X30625939Y-75045828D01*
X30625939Y-75045828D02*
X30768796Y-74760114D01*
X30768796Y-74760114D02*
X31054511Y-74617257D01*
X31054511Y-74617257D02*
X31625939Y-74617257D01*
X31625939Y-74617257D02*
X31911653Y-74760114D01*
X31911653Y-74760114D02*
X32054511Y-75045828D01*
X32054511Y-75045828D02*
X32054511Y-75331542D01*
X32054511Y-75331542D02*
X30625939Y-75617257D01*
X33197368Y-76474400D02*
X33483082Y-76617257D01*
X33483082Y-76617257D02*
X34054511Y-76617257D01*
X34054511Y-76617257D02*
X34340225Y-76474400D01*
X34340225Y-76474400D02*
X34483082Y-76188685D01*
X34483082Y-76188685D02*
X34483082Y-76045828D01*
X34483082Y-76045828D02*
X34340225Y-75760114D01*
X34340225Y-75760114D02*
X34054511Y-75617257D01*
X34054511Y-75617257D02*
X33625940Y-75617257D01*
X33625940Y-75617257D02*
X33340225Y-75474400D01*
X33340225Y-75474400D02*
X33197368Y-75188685D01*
X33197368Y-75188685D02*
X33197368Y-75045828D01*
X33197368Y-75045828D02*
X33340225Y-74760114D01*
X33340225Y-74760114D02*
X33625940Y-74617257D01*
X33625940Y-74617257D02*
X34054511Y-74617257D01*
X34054511Y-74617257D02*
X34340225Y-74760114D01*
X35483082Y-74617257D02*
X36197368Y-76617257D01*
X36911653Y-74617257D02*
X36197368Y-76617257D01*
X36197368Y-76617257D02*
X35911653Y-77331542D01*
X35911653Y-77331542D02*
X35768796Y-77474400D01*
X35768796Y-77474400D02*
X35483082Y-77617257D01*
X38483082Y-76617257D02*
X38197367Y-76474400D01*
X38197367Y-76474400D02*
X38054510Y-76331542D01*
X38054510Y-76331542D02*
X37911653Y-76045828D01*
X37911653Y-76045828D02*
X37911653Y-75188685D01*
X37911653Y-75188685D02*
X38054510Y-74902971D01*
X38054510Y-74902971D02*
X38197367Y-74760114D01*
X38197367Y-74760114D02*
X38483082Y-74617257D01*
X38483082Y-74617257D02*
X38911653Y-74617257D01*
X38911653Y-74617257D02*
X39197367Y-74760114D01*
X39197367Y-74760114D02*
X39340225Y-74902971D01*
X39340225Y-74902971D02*
X39483082Y-75188685D01*
X39483082Y-75188685D02*
X39483082Y-76045828D01*
X39483082Y-76045828D02*
X39340225Y-76331542D01*
X39340225Y-76331542D02*
X39197367Y-76474400D01*
X39197367Y-76474400D02*
X38911653Y-76617257D01*
X38911653Y-76617257D02*
X38483082Y-76617257D01*
X42054511Y-74617257D02*
X42054511Y-76617257D01*
X40768796Y-74617257D02*
X40768796Y-76188685D01*
X40768796Y-76188685D02*
X40911653Y-76474400D01*
X40911653Y-76474400D02*
X41197368Y-76617257D01*
X41197368Y-76617257D02*
X41625939Y-76617257D01*
X41625939Y-76617257D02*
X41911653Y-76474400D01*
X41911653Y-76474400D02*
X42054511Y-76331542D01*
X43483082Y-76331542D02*
X43625939Y-76474400D01*
X43625939Y-76474400D02*
X43483082Y-76617257D01*
X43483082Y-76617257D02*
X43340225Y-76474400D01*
X43340225Y-76474400D02*
X43483082Y-76331542D01*
X43483082Y-76331542D02*
X43483082Y-76617257D01*
X44483082Y-74617257D02*
X45625939Y-74617257D01*
X44911653Y-76617257D02*
X44911653Y-74045828D01*
X44911653Y-74045828D02*
X45054510Y-73760114D01*
X45054510Y-73760114D02*
X45340225Y-73617257D01*
X45340225Y-73617257D02*
X45625939Y-73617257D01*
X46625939Y-76617257D02*
X46625939Y-74617257D01*
X46625939Y-75188685D02*
X46768796Y-74902971D01*
X46768796Y-74902971D02*
X46911654Y-74760114D01*
X46911654Y-74760114D02*
X47197368Y-74617257D01*
X47197368Y-74617257D02*
X47483082Y-74617257D01*
X23173558Y-57739638D02*
X23173558Y-55739638D01*
X23364034Y-56977733D02*
X23935463Y-57739638D01*
X23935463Y-56406304D02*
X23173558Y-57168209D01*
X24792606Y-57739638D02*
X24792606Y-56406304D01*
X24792606Y-55739638D02*
X24697368Y-55834876D01*
X24697368Y-55834876D02*
X24792606Y-55930114D01*
X24792606Y-55930114D02*
X24887844Y-55834876D01*
X24887844Y-55834876D02*
X24792606Y-55739638D01*
X24792606Y-55739638D02*
X24792606Y-55930114D01*
X26030701Y-57739638D02*
X25840225Y-57644400D01*
X25840225Y-57644400D02*
X25744987Y-57453923D01*
X25744987Y-57453923D02*
X25744987Y-55739638D01*
X27078320Y-57739638D02*
X26887844Y-57644400D01*
X26887844Y-57644400D02*
X26792606Y-57453923D01*
X26792606Y-57453923D02*
X26792606Y-55739638D01*
X29364035Y-57739638D02*
X29364035Y-56406304D01*
X29364035Y-56596780D02*
X29459273Y-56501542D01*
X29459273Y-56501542D02*
X29649749Y-56406304D01*
X29649749Y-56406304D02*
X29935464Y-56406304D01*
X29935464Y-56406304D02*
X30125940Y-56501542D01*
X30125940Y-56501542D02*
X30221178Y-56692019D01*
X30221178Y-56692019D02*
X30221178Y-57739638D01*
X30221178Y-56692019D02*
X30316416Y-56501542D01*
X30316416Y-56501542D02*
X30506892Y-56406304D01*
X30506892Y-56406304D02*
X30792606Y-56406304D01*
X30792606Y-56406304D02*
X30983083Y-56501542D01*
X30983083Y-56501542D02*
X31078321Y-56692019D01*
X31078321Y-56692019D02*
X31078321Y-57739638D01*
X32792607Y-57644400D02*
X32602131Y-57739638D01*
X32602131Y-57739638D02*
X32221178Y-57739638D01*
X32221178Y-57739638D02*
X32030702Y-57644400D01*
X32030702Y-57644400D02*
X31935464Y-57453923D01*
X31935464Y-57453923D02*
X31935464Y-56692019D01*
X31935464Y-56692019D02*
X32030702Y-56501542D01*
X32030702Y-56501542D02*
X32221178Y-56406304D01*
X32221178Y-56406304D02*
X32602131Y-56406304D01*
X32602131Y-56406304D02*
X32792607Y-56501542D01*
X32792607Y-56501542D02*
X32887845Y-56692019D01*
X32887845Y-56692019D02*
X32887845Y-56882495D01*
X32887845Y-56882495D02*
X31935464Y-57072971D01*
X35268798Y-56406304D02*
X35268798Y-58406304D01*
X35268798Y-56501542D02*
X35459274Y-56406304D01*
X35459274Y-56406304D02*
X35840227Y-56406304D01*
X35840227Y-56406304D02*
X36030703Y-56501542D01*
X36030703Y-56501542D02*
X36125941Y-56596780D01*
X36125941Y-56596780D02*
X36221179Y-56787257D01*
X36221179Y-56787257D02*
X36221179Y-57358685D01*
X36221179Y-57358685D02*
X36125941Y-57549161D01*
X36125941Y-57549161D02*
X36030703Y-57644400D01*
X36030703Y-57644400D02*
X35840227Y-57739638D01*
X35840227Y-57739638D02*
X35459274Y-57739638D01*
X35459274Y-57739638D02*
X35268798Y-57644400D01*
X37364036Y-57739638D02*
X37173560Y-57644400D01*
X37173560Y-57644400D02*
X37078322Y-57453923D01*
X37078322Y-57453923D02*
X37078322Y-55739638D01*
X38030703Y-57644400D02*
X38221179Y-57739638D01*
X38221179Y-57739638D02*
X38602131Y-57739638D01*
X38602131Y-57739638D02*
X38792608Y-57644400D01*
X38792608Y-57644400D02*
X38887846Y-57453923D01*
X38887846Y-57453923D02*
X38887846Y-57358685D01*
X38887846Y-57358685D02*
X38792608Y-57168209D01*
X38792608Y-57168209D02*
X38602131Y-57072971D01*
X38602131Y-57072971D02*
X38316417Y-57072971D01*
X38316417Y-57072971D02*
X38125941Y-56977733D01*
X38125941Y-56977733D02*
X38030703Y-56787257D01*
X38030703Y-56787257D02*
X38030703Y-56692019D01*
X38030703Y-56692019D02*
X38125941Y-56501542D01*
X38125941Y-56501542D02*
X38316417Y-56406304D01*
X38316417Y-56406304D02*
X38602131Y-56406304D01*
X38602131Y-56406304D02*
X38792608Y-56501542D01*
X42792609Y-56406304D02*
X41268799Y-56977733D01*
X41268799Y-56977733D02*
X42792609Y-57549161D01*
X43554513Y-55739638D02*
X44792608Y-55739638D01*
X44792608Y-55739638D02*
X44125941Y-56501542D01*
X44125941Y-56501542D02*
X44411656Y-56501542D01*
X44411656Y-56501542D02*
X44602132Y-56596780D01*
X44602132Y-56596780D02*
X44697370Y-56692019D01*
X44697370Y-56692019D02*
X44792608Y-56882495D01*
X44792608Y-56882495D02*
X44792608Y-57358685D01*
X44792608Y-57358685D02*
X44697370Y-57549161D01*
X44697370Y-57549161D02*
X44602132Y-57644400D01*
X44602132Y-57644400D02*
X44411656Y-57739638D01*
X44411656Y-57739638D02*
X43840227Y-57739638D01*
X43840227Y-57739638D02*
X43649751Y-57644400D01*
X43649751Y-57644400D02*
X43554513Y-57549161D01*
D11*
X102333333Y-46109580D02*
X102285714Y-46157200D01*
X102285714Y-46157200D02*
X102142857Y-46204819D01*
X102142857Y-46204819D02*
X102047619Y-46204819D01*
X102047619Y-46204819D02*
X101904762Y-46157200D01*
X101904762Y-46157200D02*
X101809524Y-46061961D01*
X101809524Y-46061961D02*
X101761905Y-45966723D01*
X101761905Y-45966723D02*
X101714286Y-45776247D01*
X101714286Y-45776247D02*
X101714286Y-45633390D01*
X101714286Y-45633390D02*
X101761905Y-45442914D01*
X101761905Y-45442914D02*
X101809524Y-45347676D01*
X101809524Y-45347676D02*
X101904762Y-45252438D01*
X101904762Y-45252438D02*
X102047619Y-45204819D01*
X102047619Y-45204819D02*
X102142857Y-45204819D01*
X102142857Y-45204819D02*
X102285714Y-45252438D01*
X102285714Y-45252438D02*
X102333333Y-45300057D01*
X102714286Y-45300057D02*
X102761905Y-45252438D01*
X102761905Y-45252438D02*
X102857143Y-45204819D01*
X102857143Y-45204819D02*
X103095238Y-45204819D01*
X103095238Y-45204819D02*
X103190476Y-45252438D01*
X103190476Y-45252438D02*
X103238095Y-45300057D01*
X103238095Y-45300057D02*
X103285714Y-45395295D01*
X103285714Y-45395295D02*
X103285714Y-45490533D01*
X103285714Y-45490533D02*
X103238095Y-45633390D01*
X103238095Y-45633390D02*
X102666667Y-46204819D01*
X102666667Y-46204819D02*
X103285714Y-46204819D01*
X32738095Y-43654819D02*
X32738095Y-44464342D01*
X32738095Y-44464342D02*
X32785714Y-44559580D01*
X32785714Y-44559580D02*
X32833333Y-44607200D01*
X32833333Y-44607200D02*
X32928571Y-44654819D01*
X32928571Y-44654819D02*
X33119047Y-44654819D01*
X33119047Y-44654819D02*
X33214285Y-44607200D01*
X33214285Y-44607200D02*
X33261904Y-44559580D01*
X33261904Y-44559580D02*
X33309523Y-44464342D01*
X33309523Y-44464342D02*
X33309523Y-43654819D01*
X33690476Y-43654819D02*
X34309523Y-43654819D01*
X34309523Y-43654819D02*
X33976190Y-44035771D01*
X33976190Y-44035771D02*
X34119047Y-44035771D01*
X34119047Y-44035771D02*
X34214285Y-44083390D01*
X34214285Y-44083390D02*
X34261904Y-44131009D01*
X34261904Y-44131009D02*
X34309523Y-44226247D01*
X34309523Y-44226247D02*
X34309523Y-44464342D01*
X34309523Y-44464342D02*
X34261904Y-44559580D01*
X34261904Y-44559580D02*
X34214285Y-44607200D01*
X34214285Y-44607200D02*
X34119047Y-44654819D01*
X34119047Y-44654819D02*
X33833333Y-44654819D01*
X33833333Y-44654819D02*
X33738095Y-44607200D01*
X33738095Y-44607200D02*
X33690476Y-44559580D01*
X44824819Y-48333333D02*
X45539104Y-48333333D01*
X45539104Y-48333333D02*
X45681961Y-48380952D01*
X45681961Y-48380952D02*
X45777200Y-48476190D01*
X45777200Y-48476190D02*
X45824819Y-48619047D01*
X45824819Y-48619047D02*
X45824819Y-48714285D01*
X45824819Y-47809523D02*
X45824819Y-47619047D01*
X45824819Y-47619047D02*
X45777200Y-47523809D01*
X45777200Y-47523809D02*
X45729580Y-47476190D01*
X45729580Y-47476190D02*
X45586723Y-47380952D01*
X45586723Y-47380952D02*
X45396247Y-47333333D01*
X45396247Y-47333333D02*
X45015295Y-47333333D01*
X45015295Y-47333333D02*
X44920057Y-47380952D01*
X44920057Y-47380952D02*
X44872438Y-47428571D01*
X44872438Y-47428571D02*
X44824819Y-47523809D01*
X44824819Y-47523809D02*
X44824819Y-47714285D01*
X44824819Y-47714285D02*
X44872438Y-47809523D01*
X44872438Y-47809523D02*
X44920057Y-47857142D01*
X44920057Y-47857142D02*
X45015295Y-47904761D01*
X45015295Y-47904761D02*
X45253390Y-47904761D01*
X45253390Y-47904761D02*
X45348628Y-47857142D01*
X45348628Y-47857142D02*
X45396247Y-47809523D01*
X45396247Y-47809523D02*
X45443866Y-47714285D01*
X45443866Y-47714285D02*
X45443866Y-47523809D01*
X45443866Y-47523809D02*
X45396247Y-47428571D01*
X45396247Y-47428571D02*
X45348628Y-47380952D01*
X45348628Y-47380952D02*
X45253390Y-47333333D01*
X51324819Y-54833333D02*
X52039104Y-54833333D01*
X52039104Y-54833333D02*
X52181961Y-54880952D01*
X52181961Y-54880952D02*
X52277200Y-54976190D01*
X52277200Y-54976190D02*
X52324819Y-55119047D01*
X52324819Y-55119047D02*
X52324819Y-55214285D01*
X51420057Y-54404761D02*
X51372438Y-54357142D01*
X51372438Y-54357142D02*
X51324819Y-54261904D01*
X51324819Y-54261904D02*
X51324819Y-54023809D01*
X51324819Y-54023809D02*
X51372438Y-53928571D01*
X51372438Y-53928571D02*
X51420057Y-53880952D01*
X51420057Y-53880952D02*
X51515295Y-53833333D01*
X51515295Y-53833333D02*
X51610533Y-53833333D01*
X51610533Y-53833333D02*
X51753390Y-53880952D01*
X51753390Y-53880952D02*
X52324819Y-54452380D01*
X52324819Y-54452380D02*
X52324819Y-53833333D01*
X75754819Y-69778094D02*
X74754819Y-69778094D01*
X74754819Y-69778094D02*
X74754819Y-69539999D01*
X74754819Y-69539999D02*
X74802438Y-69397142D01*
X74802438Y-69397142D02*
X74897676Y-69301904D01*
X74897676Y-69301904D02*
X74992914Y-69254285D01*
X74992914Y-69254285D02*
X75183390Y-69206666D01*
X75183390Y-69206666D02*
X75326247Y-69206666D01*
X75326247Y-69206666D02*
X75516723Y-69254285D01*
X75516723Y-69254285D02*
X75611961Y-69301904D01*
X75611961Y-69301904D02*
X75707200Y-69397142D01*
X75707200Y-69397142D02*
X75754819Y-69539999D01*
X75754819Y-69539999D02*
X75754819Y-69778094D01*
X74754819Y-68873332D02*
X74754819Y-68254285D01*
X74754819Y-68254285D02*
X75135771Y-68587618D01*
X75135771Y-68587618D02*
X75135771Y-68444761D01*
X75135771Y-68444761D02*
X75183390Y-68349523D01*
X75183390Y-68349523D02*
X75231009Y-68301904D01*
X75231009Y-68301904D02*
X75326247Y-68254285D01*
X75326247Y-68254285D02*
X75564342Y-68254285D01*
X75564342Y-68254285D02*
X75659580Y-68301904D01*
X75659580Y-68301904D02*
X75707200Y-68349523D01*
X75707200Y-68349523D02*
X75754819Y-68444761D01*
X75754819Y-68444761D02*
X75754819Y-68730475D01*
X75754819Y-68730475D02*
X75707200Y-68825713D01*
X75707200Y-68825713D02*
X75659580Y-68873332D01*
X55109580Y-72034366D02*
X55157200Y-72081985D01*
X55157200Y-72081985D02*
X55204819Y-72224842D01*
X55204819Y-72224842D02*
X55204819Y-72320080D01*
X55204819Y-72320080D02*
X55157200Y-72462937D01*
X55157200Y-72462937D02*
X55061961Y-72558175D01*
X55061961Y-72558175D02*
X54966723Y-72605794D01*
X54966723Y-72605794D02*
X54776247Y-72653413D01*
X54776247Y-72653413D02*
X54633390Y-72653413D01*
X54633390Y-72653413D02*
X54442914Y-72605794D01*
X54442914Y-72605794D02*
X54347676Y-72558175D01*
X54347676Y-72558175D02*
X54252438Y-72462937D01*
X54252438Y-72462937D02*
X54204819Y-72320080D01*
X54204819Y-72320080D02*
X54204819Y-72224842D01*
X54204819Y-72224842D02*
X54252438Y-72081985D01*
X54252438Y-72081985D02*
X54300057Y-72034366D01*
X55204819Y-71081985D02*
X55204819Y-71653413D01*
X55204819Y-71367699D02*
X54204819Y-71367699D01*
X54204819Y-71367699D02*
X54347676Y-71462937D01*
X54347676Y-71462937D02*
X54442914Y-71558175D01*
X54442914Y-71558175D02*
X54490533Y-71653413D01*
X45788095Y-43759819D02*
X45788095Y-44569342D01*
X45788095Y-44569342D02*
X45835714Y-44664580D01*
X45835714Y-44664580D02*
X45883333Y-44712200D01*
X45883333Y-44712200D02*
X45978571Y-44759819D01*
X45978571Y-44759819D02*
X46169047Y-44759819D01*
X46169047Y-44759819D02*
X46264285Y-44712200D01*
X46264285Y-44712200D02*
X46311904Y-44664580D01*
X46311904Y-44664580D02*
X46359523Y-44569342D01*
X46359523Y-44569342D02*
X46359523Y-43759819D01*
X47359523Y-44759819D02*
X46788095Y-44759819D01*
X47073809Y-44759819D02*
X47073809Y-43759819D01*
X47073809Y-43759819D02*
X46978571Y-43902676D01*
X46978571Y-43902676D02*
X46883333Y-43997914D01*
X46883333Y-43997914D02*
X46788095Y-44045533D01*
X58238095Y-35409819D02*
X58238095Y-36219342D01*
X58238095Y-36219342D02*
X58285714Y-36314580D01*
X58285714Y-36314580D02*
X58333333Y-36362200D01*
X58333333Y-36362200D02*
X58428571Y-36409819D01*
X58428571Y-36409819D02*
X58619047Y-36409819D01*
X58619047Y-36409819D02*
X58714285Y-36362200D01*
X58714285Y-36362200D02*
X58761904Y-36314580D01*
X58761904Y-36314580D02*
X58809523Y-36219342D01*
X58809523Y-36219342D02*
X58809523Y-35409819D01*
X59238095Y-35505057D02*
X59285714Y-35457438D01*
X59285714Y-35457438D02*
X59380952Y-35409819D01*
X59380952Y-35409819D02*
X59619047Y-35409819D01*
X59619047Y-35409819D02*
X59714285Y-35457438D01*
X59714285Y-35457438D02*
X59761904Y-35505057D01*
X59761904Y-35505057D02*
X59809523Y-35600295D01*
X59809523Y-35600295D02*
X59809523Y-35695533D01*
X59809523Y-35695533D02*
X59761904Y-35838390D01*
X59761904Y-35838390D02*
X59190476Y-36409819D01*
X59190476Y-36409819D02*
X59809523Y-36409819D01*
X96221905Y-70254819D02*
X96221905Y-69254819D01*
X96221905Y-69254819D02*
X96460000Y-69254819D01*
X96460000Y-69254819D02*
X96602857Y-69302438D01*
X96602857Y-69302438D02*
X96698095Y-69397676D01*
X96698095Y-69397676D02*
X96745714Y-69492914D01*
X96745714Y-69492914D02*
X96793333Y-69683390D01*
X96793333Y-69683390D02*
X96793333Y-69826247D01*
X96793333Y-69826247D02*
X96745714Y-70016723D01*
X96745714Y-70016723D02*
X96698095Y-70111961D01*
X96698095Y-70111961D02*
X96602857Y-70207200D01*
X96602857Y-70207200D02*
X96460000Y-70254819D01*
X96460000Y-70254819D02*
X96221905Y-70254819D01*
X97174286Y-69350057D02*
X97221905Y-69302438D01*
X97221905Y-69302438D02*
X97317143Y-69254819D01*
X97317143Y-69254819D02*
X97555238Y-69254819D01*
X97555238Y-69254819D02*
X97650476Y-69302438D01*
X97650476Y-69302438D02*
X97698095Y-69350057D01*
X97698095Y-69350057D02*
X97745714Y-69445295D01*
X97745714Y-69445295D02*
X97745714Y-69540533D01*
X97745714Y-69540533D02*
X97698095Y-69683390D01*
X97698095Y-69683390D02*
X97126667Y-70254819D01*
X97126667Y-70254819D02*
X97745714Y-70254819D01*
D12*
%TO.C,Q13*%
X100940000Y-28937500D02*
X100940000Y-28287500D01*
X100940000Y-28937500D02*
X100940000Y-29587500D01*
X104060000Y-28937500D02*
X104060000Y-28287500D01*
X104060000Y-28937500D02*
X104060000Y-29587500D01*
X100990000Y-30100000D02*
X100660000Y-30340000D01*
X100660000Y-29860000D01*
X100990000Y-30100000D01*
G36*
X100990000Y-30100000D02*
G01*
X100660000Y-30340000D01*
X100660000Y-29860000D01*
X100990000Y-30100000D01*
G37*
%TO.C,Q20*%
X61940000Y-23937500D02*
X61940000Y-23287500D01*
X61940000Y-23937500D02*
X61940000Y-24587500D01*
X65060000Y-23937500D02*
X65060000Y-23287500D01*
X65060000Y-23937500D02*
X65060000Y-24587500D01*
X61990000Y-25100000D02*
X61660000Y-25340000D01*
X61660000Y-24860000D01*
X61990000Y-25100000D01*
G36*
X61990000Y-25100000D02*
G01*
X61660000Y-25340000D01*
X61660000Y-24860000D01*
X61990000Y-25100000D01*
G37*
%TO.C,Q23*%
X50940000Y-28937500D02*
X50940000Y-28287500D01*
X50940000Y-28937500D02*
X50940000Y-29587500D01*
X54060000Y-28937500D02*
X54060000Y-28287500D01*
X54060000Y-28937500D02*
X54060000Y-29587500D01*
X50990000Y-30100000D02*
X50660000Y-30340000D01*
X50660000Y-29860000D01*
X50990000Y-30100000D01*
G36*
X50990000Y-30100000D02*
G01*
X50660000Y-30340000D01*
X50660000Y-29860000D01*
X50990000Y-30100000D01*
G37*
%TO.C,C2*%
X95415431Y-49785000D02*
X96715431Y-49785000D01*
X96065431Y-49135000D02*
X96065431Y-50435000D01*
X102500000Y-46920000D02*
X102500000Y-60080000D01*
X102540000Y-46920000D02*
X102540000Y-60080000D01*
X102580000Y-46920000D02*
X102580000Y-60080000D01*
X102620000Y-46921000D02*
X102620000Y-60079000D01*
X102660000Y-46921000D02*
X102660000Y-60079000D01*
X102700000Y-46923000D02*
X102700000Y-60077000D01*
X102740000Y-46924000D02*
X102740000Y-60076000D01*
X102780000Y-46925000D02*
X102780000Y-60075000D01*
X102820000Y-46927000D02*
X102820000Y-60073000D01*
X102860000Y-46929000D02*
X102860000Y-60071000D01*
X102900000Y-46932000D02*
X102900000Y-60068000D01*
X102940000Y-46934000D02*
X102940000Y-60066000D01*
X102980000Y-46937000D02*
X102980000Y-60063000D01*
X103020000Y-46940000D02*
X103020000Y-60060000D01*
X103060000Y-46943000D02*
X103060000Y-60057000D01*
X103100000Y-46947000D02*
X103100000Y-60053000D01*
X103140000Y-46951000D02*
X103140000Y-60049000D01*
X103180000Y-46955000D02*
X103180000Y-60045000D01*
X103221000Y-46959000D02*
X103221000Y-60041000D01*
X103261000Y-46963000D02*
X103261000Y-60037000D01*
X103301000Y-46968000D02*
X103301000Y-60032000D01*
X103341000Y-46973000D02*
X103341000Y-60027000D01*
X103381000Y-46978000D02*
X103381000Y-60022000D01*
X103421000Y-46984000D02*
X103421000Y-60016000D01*
X103461000Y-46989000D02*
X103461000Y-60011000D01*
X103501000Y-46995000D02*
X103501000Y-60005000D01*
X103541000Y-47002000D02*
X103541000Y-59998000D01*
X103581000Y-47008000D02*
X103581000Y-52060000D01*
X103581000Y-54940000D02*
X103581000Y-59992000D01*
X103621000Y-47015000D02*
X103621000Y-52060000D01*
X103621000Y-54940000D02*
X103621000Y-59985000D01*
X103661000Y-47022000D02*
X103661000Y-52060000D01*
X103661000Y-54940000D02*
X103661000Y-59978000D01*
X103701000Y-47029000D02*
X103701000Y-52060000D01*
X103701000Y-54940000D02*
X103701000Y-59971000D01*
X103741000Y-47037000D02*
X103741000Y-52060000D01*
X103741000Y-54940000D02*
X103741000Y-59963000D01*
X103781000Y-47044000D02*
X103781000Y-52060000D01*
X103781000Y-54940000D02*
X103781000Y-59956000D01*
X103821000Y-47052000D02*
X103821000Y-52060000D01*
X103821000Y-54940000D02*
X103821000Y-59948000D01*
X103861000Y-47061000D02*
X103861000Y-52060000D01*
X103861000Y-54940000D02*
X103861000Y-59939000D01*
X103901000Y-47069000D02*
X103901000Y-52060000D01*
X103901000Y-54940000D02*
X103901000Y-59931000D01*
X103941000Y-47078000D02*
X103941000Y-52060000D01*
X103941000Y-54940000D02*
X103941000Y-59922000D01*
X103981000Y-47087000D02*
X103981000Y-52060000D01*
X103981000Y-54940000D02*
X103981000Y-59913000D01*
X104021000Y-47096000D02*
X104021000Y-52060000D01*
X104021000Y-54940000D02*
X104021000Y-59904000D01*
X104061000Y-47106000D02*
X104061000Y-52060000D01*
X104061000Y-54940000D02*
X104061000Y-59894000D01*
X104101000Y-47116000D02*
X104101000Y-52060000D01*
X104101000Y-54940000D02*
X104101000Y-59884000D01*
X104141000Y-47126000D02*
X104141000Y-52060000D01*
X104141000Y-54940000D02*
X104141000Y-59874000D01*
X104181000Y-47136000D02*
X104181000Y-52060000D01*
X104181000Y-54940000D02*
X104181000Y-59864000D01*
X104221000Y-47147000D02*
X104221000Y-52060000D01*
X104221000Y-54940000D02*
X104221000Y-59853000D01*
X104261000Y-47158000D02*
X104261000Y-52060000D01*
X104261000Y-54940000D02*
X104261000Y-59842000D01*
X104301000Y-47169000D02*
X104301000Y-52060000D01*
X104301000Y-54940000D02*
X104301000Y-59831000D01*
X104341000Y-47180000D02*
X104341000Y-52060000D01*
X104341000Y-54940000D02*
X104341000Y-59820000D01*
X104381000Y-47192000D02*
X104381000Y-52060000D01*
X104381000Y-54940000D02*
X104381000Y-59808000D01*
X104421000Y-47204000D02*
X104421000Y-52060000D01*
X104421000Y-54940000D02*
X104421000Y-59796000D01*
X104461000Y-47216000D02*
X104461000Y-52060000D01*
X104461000Y-54940000D02*
X104461000Y-59784000D01*
X104501000Y-47229000D02*
X104501000Y-52060000D01*
X104501000Y-54940000D02*
X104501000Y-59771000D01*
X104541000Y-47242000D02*
X104541000Y-52060000D01*
X104541000Y-54940000D02*
X104541000Y-59758000D01*
X104581000Y-47255000D02*
X104581000Y-52060000D01*
X104581000Y-54940000D02*
X104581000Y-59745000D01*
X104621000Y-47268000D02*
X104621000Y-52060000D01*
X104621000Y-54940000D02*
X104621000Y-59732000D01*
X104661000Y-47282000D02*
X104661000Y-52060000D01*
X104661000Y-54940000D02*
X104661000Y-59718000D01*
X104701000Y-47296000D02*
X104701000Y-52060000D01*
X104701000Y-54940000D02*
X104701000Y-59704000D01*
X104741000Y-47310000D02*
X104741000Y-52060000D01*
X104741000Y-54940000D02*
X104741000Y-59690000D01*
X104781000Y-47325000D02*
X104781000Y-52060000D01*
X104781000Y-54940000D02*
X104781000Y-59675000D01*
X104821000Y-47339000D02*
X104821000Y-52060000D01*
X104821000Y-54940000D02*
X104821000Y-59661000D01*
X104861000Y-47354000D02*
X104861000Y-52060000D01*
X104861000Y-54940000D02*
X104861000Y-59646000D01*
X104901000Y-47370000D02*
X104901000Y-52060000D01*
X104901000Y-54940000D02*
X104901000Y-59630000D01*
X104941000Y-47386000D02*
X104941000Y-52060000D01*
X104941000Y-54940000D02*
X104941000Y-59614000D01*
X104981000Y-47402000D02*
X104981000Y-52060000D01*
X104981000Y-54940000D02*
X104981000Y-59598000D01*
X105021000Y-47418000D02*
X105021000Y-52060000D01*
X105021000Y-54940000D02*
X105021000Y-59582000D01*
X105061000Y-47435000D02*
X105061000Y-52060000D01*
X105061000Y-54940000D02*
X105061000Y-59565000D01*
X105101000Y-47451000D02*
X105101000Y-52060000D01*
X105101000Y-54940000D02*
X105101000Y-59549000D01*
X105141000Y-47469000D02*
X105141000Y-52060000D01*
X105141000Y-54940000D02*
X105141000Y-59531000D01*
X105181000Y-47486000D02*
X105181000Y-52060000D01*
X105181000Y-54940000D02*
X105181000Y-59514000D01*
X105221000Y-47504000D02*
X105221000Y-52060000D01*
X105221000Y-54940000D02*
X105221000Y-59496000D01*
X105261000Y-47522000D02*
X105261000Y-52060000D01*
X105261000Y-54940000D02*
X105261000Y-59478000D01*
X105301000Y-47541000D02*
X105301000Y-52060000D01*
X105301000Y-54940000D02*
X105301000Y-59459000D01*
X105341000Y-47560000D02*
X105341000Y-52060000D01*
X105341000Y-54940000D02*
X105341000Y-59440000D01*
X105381000Y-47579000D02*
X105381000Y-52060000D01*
X105381000Y-54940000D02*
X105381000Y-59421000D01*
X105421000Y-47598000D02*
X105421000Y-52060000D01*
X105421000Y-54940000D02*
X105421000Y-59402000D01*
X105461000Y-47618000D02*
X105461000Y-52060000D01*
X105461000Y-54940000D02*
X105461000Y-59382000D01*
X105501000Y-47638000D02*
X105501000Y-52060000D01*
X105501000Y-54940000D02*
X105501000Y-59362000D01*
X105541000Y-47659000D02*
X105541000Y-52060000D01*
X105541000Y-54940000D02*
X105541000Y-59341000D01*
X105581000Y-47680000D02*
X105581000Y-52060000D01*
X105581000Y-54940000D02*
X105581000Y-59320000D01*
X105621000Y-47701000D02*
X105621000Y-52060000D01*
X105621000Y-54940000D02*
X105621000Y-59299000D01*
X105661000Y-47722000D02*
X105661000Y-52060000D01*
X105661000Y-54940000D02*
X105661000Y-59278000D01*
X105701000Y-47744000D02*
X105701000Y-52060000D01*
X105701000Y-54940000D02*
X105701000Y-59256000D01*
X105741000Y-47767000D02*
X105741000Y-52060000D01*
X105741000Y-54940000D02*
X105741000Y-59233000D01*
X105781000Y-47789000D02*
X105781000Y-52060000D01*
X105781000Y-54940000D02*
X105781000Y-59211000D01*
X105821000Y-47812000D02*
X105821000Y-52060000D01*
X105821000Y-54940000D02*
X105821000Y-59188000D01*
X105861000Y-47836000D02*
X105861000Y-52060000D01*
X105861000Y-54940000D02*
X105861000Y-59164000D01*
X105901000Y-47859000D02*
X105901000Y-52060000D01*
X105901000Y-54940000D02*
X105901000Y-59141000D01*
X105941000Y-47883000D02*
X105941000Y-52060000D01*
X105941000Y-54940000D02*
X105941000Y-59117000D01*
X105981000Y-47908000D02*
X105981000Y-52060000D01*
X105981000Y-54940000D02*
X105981000Y-59092000D01*
X106021000Y-47933000D02*
X106021000Y-52060000D01*
X106021000Y-54940000D02*
X106021000Y-59067000D01*
X106061000Y-47958000D02*
X106061000Y-52060000D01*
X106061000Y-54940000D02*
X106061000Y-59042000D01*
X106101000Y-47984000D02*
X106101000Y-52060000D01*
X106101000Y-54940000D02*
X106101000Y-59016000D01*
X106141000Y-48010000D02*
X106141000Y-52060000D01*
X106141000Y-54940000D02*
X106141000Y-58990000D01*
X106181000Y-48037000D02*
X106181000Y-52060000D01*
X106181000Y-54940000D02*
X106181000Y-58963000D01*
X106221000Y-48064000D02*
X106221000Y-52060000D01*
X106221000Y-54940000D02*
X106221000Y-58936000D01*
X106261000Y-48091000D02*
X106261000Y-52060000D01*
X106261000Y-54940000D02*
X106261000Y-58909000D01*
X106301000Y-48119000D02*
X106301000Y-52060000D01*
X106301000Y-54940000D02*
X106301000Y-58881000D01*
X106341000Y-48147000D02*
X106341000Y-52060000D01*
X106341000Y-54940000D02*
X106341000Y-58853000D01*
X106381000Y-48176000D02*
X106381000Y-52060000D01*
X106381000Y-54940000D02*
X106381000Y-58824000D01*
X106421000Y-48205000D02*
X106421000Y-52060000D01*
X106421000Y-54940000D02*
X106421000Y-58795000D01*
X106461000Y-48235000D02*
X106461000Y-58765000D01*
X106501000Y-48265000D02*
X106501000Y-58735000D01*
X106541000Y-48295000D02*
X106541000Y-58705000D01*
X106581000Y-48326000D02*
X106581000Y-58674000D01*
X106621000Y-48358000D02*
X106621000Y-58642000D01*
X106661000Y-48390000D02*
X106661000Y-58610000D01*
X106701000Y-48422000D02*
X106701000Y-58578000D01*
X106741000Y-48456000D02*
X106741000Y-58544000D01*
X106781000Y-48489000D02*
X106781000Y-58511000D01*
X106821000Y-48523000D02*
X106821000Y-58477000D01*
X106861000Y-48558000D02*
X106861000Y-58442000D01*
X106901000Y-48593000D02*
X106901000Y-58407000D01*
X106941000Y-48629000D02*
X106941000Y-58371000D01*
X106981000Y-48666000D02*
X106981000Y-58334000D01*
X107021000Y-48703000D02*
X107021000Y-58297000D01*
X107061000Y-48740000D02*
X107061000Y-58260000D01*
X107101000Y-48779000D02*
X107101000Y-58221000D01*
X107141000Y-48818000D02*
X107141000Y-58182000D01*
X107181000Y-48857000D02*
X107181000Y-58143000D01*
X107221000Y-48898000D02*
X107221000Y-58102000D01*
X107261000Y-48939000D02*
X107261000Y-58061000D01*
X107301000Y-48981000D02*
X107301000Y-58019000D01*
X107341000Y-49023000D02*
X107341000Y-57977000D01*
X107381000Y-49066000D02*
X107381000Y-57934000D01*
X107421000Y-49110000D02*
X107421000Y-57890000D01*
X107461000Y-49155000D02*
X107461000Y-57845000D01*
X107501000Y-49201000D02*
X107501000Y-57799000D01*
X107541000Y-49247000D02*
X107541000Y-57753000D01*
X107581000Y-49295000D02*
X107581000Y-57705000D01*
X107621000Y-49343000D02*
X107621000Y-57657000D01*
X107661000Y-49392000D02*
X107661000Y-57608000D01*
X107701000Y-49443000D02*
X107701000Y-57557000D01*
X107741000Y-49494000D02*
X107741000Y-57506000D01*
X107781000Y-49546000D02*
X107781000Y-57454000D01*
X107821000Y-49600000D02*
X107821000Y-57400000D01*
X107861000Y-49654000D02*
X107861000Y-57346000D01*
X107901000Y-49710000D02*
X107901000Y-57290000D01*
X107941000Y-49767000D02*
X107941000Y-57233000D01*
X107981000Y-49825000D02*
X107981000Y-57175000D01*
X108021000Y-49885000D02*
X108021000Y-57115000D01*
X108061000Y-49946000D02*
X108061000Y-57054000D01*
X108101000Y-50009000D02*
X108101000Y-56991000D01*
X108141000Y-50073000D02*
X108141000Y-56927000D01*
X108181000Y-50139000D02*
X108181000Y-56861000D01*
X108221000Y-50207000D02*
X108221000Y-56793000D01*
X108261000Y-50277000D02*
X108261000Y-56723000D01*
X108301000Y-50348000D02*
X108301000Y-56652000D01*
X108341000Y-50422000D02*
X108341000Y-56578000D01*
X108381000Y-50498000D02*
X108381000Y-56502000D01*
X108421000Y-50577000D02*
X108421000Y-56423000D01*
X108461000Y-50658000D02*
X108461000Y-56342000D01*
X108501000Y-50742000D02*
X108501000Y-56258000D01*
X108541000Y-50830000D02*
X108541000Y-56170000D01*
X108581000Y-50921000D02*
X108581000Y-56079000D01*
X108621000Y-51016000D02*
X108621000Y-55984000D01*
X108661000Y-51115000D02*
X108661000Y-55885000D01*
X108701000Y-51219000D02*
X108701000Y-55781000D01*
X108741000Y-51329000D02*
X108741000Y-55671000D01*
X108781000Y-51445000D02*
X108781000Y-55555000D01*
X108821000Y-51569000D02*
X108821000Y-55431000D01*
X108861000Y-51702000D02*
X108861000Y-55298000D01*
X108901000Y-51847000D02*
X108901000Y-55153000D01*
X108941000Y-52006000D02*
X108941000Y-54994000D01*
X108981000Y-52185000D02*
X108981000Y-54815000D01*
X109021000Y-52393000D02*
X109021000Y-54607000D01*
X109061000Y-52650000D02*
X109061000Y-54350000D01*
X109101000Y-53025000D02*
X109101000Y-53975000D01*
X109120000Y-53500000D02*
G75*
G02*
X95880000Y-53500000I-6620000J0D01*
G01*
X95880000Y-53500000D02*
G75*
G02*
X109120000Y-53500000I6620000J0D01*
G01*
%TO.C,Q31*%
X30990000Y-29000000D02*
X30990000Y-28350000D01*
X30990000Y-29000000D02*
X30990000Y-29650000D01*
X34110000Y-29000000D02*
X34110000Y-28350000D01*
X34110000Y-29000000D02*
X34110000Y-29650000D01*
X31040000Y-30162500D02*
X30710000Y-30402500D01*
X30710000Y-29922500D01*
X31040000Y-30162500D01*
G36*
X31040000Y-30162500D02*
G01*
X30710000Y-30402500D01*
X30710000Y-29922500D01*
X31040000Y-30162500D01*
G37*
%TO.C,Q7*%
X85940000Y-28937500D02*
X85940000Y-28287500D01*
X85940000Y-28937500D02*
X85940000Y-29587500D01*
X89060000Y-28937500D02*
X89060000Y-28287500D01*
X89060000Y-28937500D02*
X89060000Y-29587500D01*
X85990000Y-30100000D02*
X85660000Y-30340000D01*
X85660000Y-29860000D01*
X85990000Y-30100000D01*
G36*
X85990000Y-30100000D02*
G01*
X85660000Y-30340000D01*
X85660000Y-29860000D01*
X85990000Y-30100000D01*
G37*
%TO.C,Q30*%
X36940000Y-24000000D02*
X36940000Y-23350000D01*
X36940000Y-24000000D02*
X36940000Y-24650000D01*
X40060000Y-24000000D02*
X40060000Y-23350000D01*
X40060000Y-24000000D02*
X40060000Y-24650000D01*
X36990000Y-25162500D02*
X36660000Y-25402500D01*
X36660000Y-24922500D01*
X36990000Y-25162500D01*
G36*
X36990000Y-25162500D02*
G01*
X36660000Y-25402500D01*
X36660000Y-24922500D01*
X36990000Y-25162500D01*
G37*
%TO.C,Q6*%
X81940000Y-24000000D02*
X81940000Y-23350000D01*
X81940000Y-24000000D02*
X81940000Y-24650000D01*
X85060000Y-24000000D02*
X85060000Y-23350000D01*
X85060000Y-24000000D02*
X85060000Y-24650000D01*
X81990000Y-25162500D02*
X81660000Y-25402500D01*
X81660000Y-24922500D01*
X81990000Y-25162500D01*
G36*
X81990000Y-25162500D02*
G01*
X81660000Y-25402500D01*
X81660000Y-24922500D01*
X81990000Y-25162500D01*
G37*
%TO.C,J1*%
X16670000Y-59090000D02*
X16670000Y-18390000D01*
X19330000Y-18390000D02*
X16670000Y-18390000D01*
X19330000Y-59090000D02*
X16670000Y-59090000D01*
X19330000Y-59090000D02*
X19330000Y-18390000D01*
X19330000Y-60360000D02*
X19330000Y-61690000D01*
X19330000Y-61690000D02*
X18000000Y-61690000D01*
D11*
%TO.C,U3*%
X30725000Y-36725000D02*
X30725000Y-37625000D01*
X30725000Y-43275000D02*
X30725000Y-42375000D01*
X36275000Y-36725000D02*
X30725000Y-36725000D01*
X36275000Y-36725000D02*
X36275000Y-37625000D01*
X36275000Y-43275000D02*
X30725000Y-43275000D01*
X36275000Y-43275000D02*
X36275000Y-42475000D01*
D12*
X37152500Y-42805000D02*
X36672500Y-42805000D01*
X36912500Y-42475000D01*
X37152500Y-42805000D01*
G36*
X37152500Y-42805000D02*
G01*
X36672500Y-42805000D01*
X36912500Y-42475000D01*
X37152500Y-42805000D01*
G37*
%TO.C,J9*%
X34090000Y-46670000D02*
X34090000Y-49330000D01*
X41770000Y-46670000D02*
X34090000Y-46670000D01*
X41770000Y-46670000D02*
X41770000Y-49330000D01*
X41770000Y-49330000D02*
X34090000Y-49330000D01*
X43040000Y-46670000D02*
X44370000Y-46670000D01*
X44370000Y-46670000D02*
X44370000Y-48000000D01*
%TO.C,Q8*%
X86940000Y-24000000D02*
X86940000Y-23350000D01*
X86940000Y-24000000D02*
X86940000Y-24650000D01*
X90060000Y-24000000D02*
X90060000Y-23350000D01*
X90060000Y-24000000D02*
X90060000Y-24650000D01*
X86990000Y-25162500D02*
X86660000Y-25402500D01*
X86660000Y-24922500D01*
X86990000Y-25162500D01*
G36*
X86990000Y-25162500D02*
G01*
X86660000Y-25402500D01*
X86660000Y-24922500D01*
X86990000Y-25162500D01*
G37*
%TO.C,Q33*%
X25990000Y-29000000D02*
X25990000Y-28350000D01*
X25990000Y-29000000D02*
X25990000Y-29650000D01*
X29110000Y-29000000D02*
X29110000Y-28350000D01*
X29110000Y-29000000D02*
X29110000Y-29650000D01*
X26040000Y-30162500D02*
X25710000Y-30402500D01*
X25710000Y-29922500D01*
X26040000Y-30162500D01*
G36*
X26040000Y-30162500D02*
G01*
X25710000Y-30402500D01*
X25710000Y-29922500D01*
X26040000Y-30162500D01*
G37*
%TO.C,J10*%
X78170000Y-42170000D02*
X79500000Y-42170000D01*
X78170000Y-43500000D02*
X78170000Y-42170000D01*
X78170000Y-44770000D02*
X78170000Y-44830000D01*
X78170000Y-44770000D02*
X80830000Y-44770000D01*
X78170000Y-44830000D02*
X80830000Y-44830000D01*
X80830000Y-44770000D02*
X80830000Y-44830000D01*
%TO.C,Q15*%
X105940000Y-28937500D02*
X105940000Y-28287500D01*
X105940000Y-28937500D02*
X105940000Y-29587500D01*
X109060000Y-28937500D02*
X109060000Y-28287500D01*
X109060000Y-28937500D02*
X109060000Y-29587500D01*
X105990000Y-30100000D02*
X105660000Y-30340000D01*
X105660000Y-29860000D01*
X105990000Y-30100000D01*
G36*
X105990000Y-30100000D02*
G01*
X105660000Y-30340000D01*
X105660000Y-29860000D01*
X105990000Y-30100000D01*
G37*
%TO.C,J8*%
X88170000Y-42170000D02*
X89500000Y-42170000D01*
X88170000Y-43500000D02*
X88170000Y-42170000D01*
X88170000Y-44770000D02*
X88170000Y-44830000D01*
X88170000Y-44770000D02*
X90830000Y-44770000D01*
X88170000Y-44830000D02*
X90830000Y-44830000D01*
X90830000Y-44770000D02*
X90830000Y-44830000D01*
%TO.C,J3*%
X91895000Y-75830000D02*
X91895000Y-74500000D01*
X93225000Y-75830000D02*
X91895000Y-75830000D01*
X94495000Y-73170000D02*
X97095000Y-73170000D01*
X94495000Y-75830000D02*
X94495000Y-73170000D01*
X94495000Y-75830000D02*
X97095000Y-75830000D01*
X97095000Y-75830000D02*
X97095000Y-73170000D01*
%TO.C,Q22*%
X56940000Y-23937500D02*
X56940000Y-23287500D01*
X56940000Y-23937500D02*
X56940000Y-24587500D01*
X60060000Y-23937500D02*
X60060000Y-23287500D01*
X60060000Y-23937500D02*
X60060000Y-24587500D01*
X56990000Y-25100000D02*
X56660000Y-25340000D01*
X56660000Y-24860000D01*
X56990000Y-25100000D01*
G36*
X56990000Y-25100000D02*
G01*
X56660000Y-25340000D01*
X56660000Y-24860000D01*
X56990000Y-25100000D01*
G37*
%TO.C,Q16*%
X106940000Y-24000000D02*
X106940000Y-23350000D01*
X106940000Y-24000000D02*
X106940000Y-24650000D01*
X110060000Y-24000000D02*
X110060000Y-23350000D01*
X110060000Y-24000000D02*
X110060000Y-24650000D01*
X106990000Y-25162500D02*
X106660000Y-25402500D01*
X106660000Y-24922500D01*
X106990000Y-25162500D01*
G36*
X106990000Y-25162500D02*
G01*
X106660000Y-25402500D01*
X106660000Y-24922500D01*
X106990000Y-25162500D01*
G37*
%TO.C,Q1*%
X70940000Y-28937500D02*
X70940000Y-28287500D01*
X70940000Y-28937500D02*
X70940000Y-29587500D01*
X74060000Y-28937500D02*
X74060000Y-28287500D01*
X74060000Y-28937500D02*
X74060000Y-29587500D01*
X70990000Y-30100000D02*
X70660000Y-30340000D01*
X70660000Y-29860000D01*
X70990000Y-30100000D01*
G36*
X70990000Y-30100000D02*
G01*
X70660000Y-30340000D01*
X70660000Y-29860000D01*
X70990000Y-30100000D01*
G37*
%TO.C,Q26*%
X46990000Y-24125000D02*
X46990000Y-23475000D01*
X46990000Y-24125000D02*
X46990000Y-24775000D01*
X50110000Y-24125000D02*
X50110000Y-23475000D01*
X50110000Y-24125000D02*
X50110000Y-24775000D01*
X47040000Y-25287500D02*
X46710000Y-25527500D01*
X46710000Y-25047500D01*
X47040000Y-25287500D01*
G36*
X47040000Y-25287500D02*
G01*
X46710000Y-25527500D01*
X46710000Y-25047500D01*
X47040000Y-25287500D01*
G37*
%TO.C,J2*%
X52870000Y-55830000D02*
X52870000Y-54500000D01*
X54200000Y-55830000D02*
X52870000Y-55830000D01*
X55470000Y-53170000D02*
X63150000Y-53170000D01*
X55470000Y-55830000D02*
X55470000Y-53170000D01*
X55470000Y-55830000D02*
X63150000Y-55830000D01*
X63150000Y-55830000D02*
X63150000Y-53170000D01*
%TO.C,Q4*%
X76940000Y-23937500D02*
X76940000Y-23287500D01*
X76940000Y-23937500D02*
X76940000Y-24587500D01*
X80060000Y-23937500D02*
X80060000Y-23287500D01*
X80060000Y-23937500D02*
X80060000Y-24587500D01*
X76990000Y-25100000D02*
X76660000Y-25340000D01*
X76660000Y-24860000D01*
X76990000Y-25100000D01*
G36*
X76990000Y-25100000D02*
G01*
X76660000Y-25340000D01*
X76660000Y-24860000D01*
X76990000Y-25100000D01*
G37*
%TO.C,Q9*%
X90940000Y-28937500D02*
X90940000Y-28287500D01*
X90940000Y-28937500D02*
X90940000Y-29587500D01*
X94060000Y-28937500D02*
X94060000Y-28287500D01*
X94060000Y-28937500D02*
X94060000Y-29587500D01*
X90990000Y-30100000D02*
X90660000Y-30340000D01*
X90660000Y-29860000D01*
X90990000Y-30100000D01*
G36*
X90990000Y-30100000D02*
G01*
X90660000Y-30340000D01*
X90660000Y-29860000D01*
X90990000Y-30100000D01*
G37*
%TO.C,Q32*%
X32040000Y-24125000D02*
X32040000Y-23475000D01*
X32040000Y-24125000D02*
X32040000Y-24775000D01*
X35160000Y-24125000D02*
X35160000Y-23475000D01*
X35160000Y-24125000D02*
X35160000Y-24775000D01*
X32090000Y-25287500D02*
X31760000Y-25527500D01*
X31760000Y-25047500D01*
X32090000Y-25287500D01*
G36*
X32090000Y-25287500D02*
G01*
X31760000Y-25527500D01*
X31760000Y-25047500D01*
X32090000Y-25287500D01*
G37*
%TO.C,Q19*%
X60940000Y-28937500D02*
X60940000Y-28287500D01*
X60940000Y-28937500D02*
X60940000Y-29587500D01*
X64060000Y-28937500D02*
X64060000Y-28287500D01*
X64060000Y-28937500D02*
X64060000Y-29587500D01*
X60990000Y-30100000D02*
X60660000Y-30340000D01*
X60660000Y-29860000D01*
X60990000Y-30100000D01*
G36*
X60990000Y-30100000D02*
G01*
X60660000Y-30340000D01*
X60660000Y-29860000D01*
X60990000Y-30100000D01*
G37*
%TO.C,J7*%
X78170000Y-57170000D02*
X79500000Y-57170000D01*
X78170000Y-58500000D02*
X78170000Y-57170000D01*
X78170000Y-59770000D02*
X78170000Y-59830000D01*
X78170000Y-59770000D02*
X80830000Y-59770000D01*
X78170000Y-59830000D02*
X80830000Y-59830000D01*
X80830000Y-59770000D02*
X80830000Y-59830000D01*
%TO.C,Q12*%
X96940000Y-24000000D02*
X96940000Y-23350000D01*
X96940000Y-24000000D02*
X96940000Y-24650000D01*
X100060000Y-24000000D02*
X100060000Y-23350000D01*
X100060000Y-24000000D02*
X100060000Y-24650000D01*
X96990000Y-25162500D02*
X96660000Y-25402500D01*
X96660000Y-24922500D01*
X96990000Y-25162500D01*
G36*
X96990000Y-25162500D02*
G01*
X96660000Y-25402500D01*
X96660000Y-24922500D01*
X96990000Y-25162500D01*
G37*
%TO.C,Q34*%
X26990000Y-24000000D02*
X26990000Y-23350000D01*
X26990000Y-24000000D02*
X26990000Y-24650000D01*
X30110000Y-24000000D02*
X30110000Y-23350000D01*
X30110000Y-24000000D02*
X30110000Y-24650000D01*
X27040000Y-25162500D02*
X26710000Y-25402500D01*
X26710000Y-24922500D01*
X27040000Y-25162500D01*
G36*
X27040000Y-25162500D02*
G01*
X26710000Y-25402500D01*
X26710000Y-24922500D01*
X27040000Y-25162500D01*
G37*
%TO.C,Q28*%
X41940000Y-24000000D02*
X41940000Y-23350000D01*
X41940000Y-24000000D02*
X41940000Y-24650000D01*
X45060000Y-24000000D02*
X45060000Y-23350000D01*
X45060000Y-24000000D02*
X45060000Y-24650000D01*
X41990000Y-25162500D02*
X41660000Y-25402500D01*
X41660000Y-24922500D01*
X41990000Y-25162500D01*
G36*
X41990000Y-25162500D02*
G01*
X41660000Y-25402500D01*
X41660000Y-24922500D01*
X41990000Y-25162500D01*
G37*
%TO.C,Q24*%
X51990000Y-24062500D02*
X51990000Y-23412500D01*
X51990000Y-24062500D02*
X51990000Y-24712500D01*
X55110000Y-24062500D02*
X55110000Y-23412500D01*
X55110000Y-24062500D02*
X55110000Y-24712500D01*
X52040000Y-25225000D02*
X51710000Y-25465000D01*
X51710000Y-24985000D01*
X52040000Y-25225000D01*
G36*
X52040000Y-25225000D02*
G01*
X51710000Y-25465000D01*
X51710000Y-24985000D01*
X52040000Y-25225000D01*
G37*
%TO.C,J5*%
X16670000Y-15830000D02*
X16670000Y-14500000D01*
X18000000Y-15830000D02*
X16670000Y-15830000D01*
X19270000Y-13170000D02*
X19330000Y-13170000D01*
X19270000Y-15830000D02*
X19270000Y-13170000D01*
X19270000Y-15830000D02*
X19330000Y-15830000D01*
X19330000Y-15830000D02*
X19330000Y-13170000D01*
%TO.C,Q5*%
X80940000Y-28937500D02*
X80940000Y-28287500D01*
X80940000Y-28937500D02*
X80940000Y-29587500D01*
X84060000Y-28937500D02*
X84060000Y-28287500D01*
X84060000Y-28937500D02*
X84060000Y-29587500D01*
X80990000Y-30100000D02*
X80660000Y-30340000D01*
X80660000Y-29860000D01*
X80990000Y-30100000D01*
G36*
X80990000Y-30100000D02*
G01*
X80660000Y-30340000D01*
X80660000Y-29860000D01*
X80990000Y-30100000D01*
G37*
%TO.C,D1*%
X70530000Y-40280000D02*
X70530000Y-45720000D01*
X70530000Y-44700000D02*
X73470000Y-44700000D01*
X70530000Y-44820000D02*
X73470000Y-44820000D01*
X70530000Y-44940000D02*
X73470000Y-44940000D01*
X70530000Y-45720000D02*
X73470000Y-45720000D01*
X72000000Y-39260000D02*
X72000000Y-40280000D01*
X72000000Y-46740000D02*
X72000000Y-45720000D01*
X73470000Y-40280000D02*
X70530000Y-40280000D01*
X73470000Y-45720000D02*
X73470000Y-40280000D01*
%TO.C,Q29*%
X35877500Y-29012500D02*
X35877500Y-28362500D01*
X35877500Y-29012500D02*
X35877500Y-29662500D01*
X38997500Y-29012500D02*
X38997500Y-28362500D01*
X38997500Y-29012500D02*
X38997500Y-29662500D01*
X35927500Y-30175000D02*
X35597500Y-30415000D01*
X35597500Y-29935000D01*
X35927500Y-30175000D01*
G36*
X35927500Y-30175000D02*
G01*
X35597500Y-30415000D01*
X35597500Y-29935000D01*
X35927500Y-30175000D01*
G37*
%TO.C,D3*%
X70800000Y-57940000D02*
X74400000Y-57940000D01*
X70800000Y-59940000D02*
X70800000Y-57940000D01*
X70800000Y-65040000D02*
X70800000Y-63040000D01*
X70800000Y-70040000D02*
X70800000Y-68140000D01*
X70800000Y-74740000D02*
X70800000Y-73240000D01*
X70800000Y-80240000D02*
X70800000Y-78740000D01*
X74400000Y-57940000D02*
X74400000Y-80240000D01*
X74400000Y-77040000D02*
X73900000Y-77040000D01*
X74400000Y-80240000D02*
X70800000Y-80240000D01*
%TO.C,Q25*%
X45940000Y-29000000D02*
X45940000Y-28350000D01*
X45940000Y-29000000D02*
X45940000Y-29650000D01*
X49060000Y-29000000D02*
X49060000Y-28350000D01*
X49060000Y-29000000D02*
X49060000Y-29650000D01*
X45990000Y-30162500D02*
X45660000Y-30402500D01*
X45660000Y-29922500D01*
X45990000Y-30162500D01*
G36*
X45990000Y-30162500D02*
G01*
X45660000Y-30402500D01*
X45660000Y-29922500D01*
X45990000Y-30162500D01*
G37*
%TO.C,C1*%
X55920000Y-71787700D02*
X66080000Y-71787700D01*
X55920000Y-71827700D02*
X66080000Y-71827700D01*
X55920000Y-71867700D02*
X66080000Y-71867700D01*
X55921000Y-71747700D02*
X66079000Y-71747700D01*
X55922000Y-71707700D02*
X66078000Y-71707700D01*
X55923000Y-71667700D02*
X66077000Y-71667700D01*
X55925000Y-71627700D02*
X66075000Y-71627700D01*
X55927000Y-71587700D02*
X66073000Y-71587700D01*
X55930000Y-71547700D02*
X66070000Y-71547700D01*
X55932000Y-71507700D02*
X66068000Y-71507700D01*
X55935000Y-71467700D02*
X66065000Y-71467700D01*
X55938000Y-71427700D02*
X66062000Y-71427700D01*
X55942000Y-71387700D02*
X66058000Y-71387700D01*
X55946000Y-71347700D02*
X66054000Y-71347700D01*
X55950000Y-71307700D02*
X66050000Y-71307700D01*
X55955000Y-71267700D02*
X66045000Y-71267700D01*
X55960000Y-71227700D02*
X66040000Y-71227700D01*
X55965000Y-71187700D02*
X66035000Y-71187700D01*
X55970000Y-71146700D02*
X66030000Y-71146700D01*
X55976000Y-71106700D02*
X66024000Y-71106700D01*
X55982000Y-71066700D02*
X66018000Y-71066700D01*
X55989000Y-71026700D02*
X66011000Y-71026700D01*
X55996000Y-70986700D02*
X66004000Y-70986700D01*
X56003000Y-70946700D02*
X65997000Y-70946700D01*
X56010000Y-70906700D02*
X65990000Y-70906700D01*
X56018000Y-70866700D02*
X65982000Y-70866700D01*
X56026000Y-70826700D02*
X65974000Y-70826700D01*
X56035000Y-70786700D02*
X65965000Y-70786700D01*
X56044000Y-70746700D02*
X65956000Y-70746700D01*
X56053000Y-70706700D02*
X65947000Y-70706700D01*
X56062000Y-70666700D02*
X65938000Y-70666700D01*
X56072000Y-70626700D02*
X65928000Y-70626700D01*
X56082000Y-70586700D02*
X59759000Y-70586700D01*
X56093000Y-70546700D02*
X59759000Y-70546700D01*
X56103000Y-70506700D02*
X59759000Y-70506700D01*
X56115000Y-70466700D02*
X59759000Y-70466700D01*
X56126000Y-70426700D02*
X59759000Y-70426700D01*
X56138000Y-70386700D02*
X59759000Y-70386700D01*
X56150000Y-70346700D02*
X59759000Y-70346700D01*
X56163000Y-70306700D02*
X59759000Y-70306700D01*
X56176000Y-70266700D02*
X59759000Y-70266700D01*
X56189000Y-70226700D02*
X59759000Y-70226700D01*
X56203000Y-70186700D02*
X59759000Y-70186700D01*
X56217000Y-70146700D02*
X59759000Y-70146700D01*
X56232000Y-70106700D02*
X59759000Y-70106700D01*
X56246000Y-70066700D02*
X59759000Y-70066700D01*
X56262000Y-70026700D02*
X59759000Y-70026700D01*
X56277000Y-69986700D02*
X59759000Y-69986700D01*
X56293000Y-69946700D02*
X59759000Y-69946700D01*
X56310000Y-69906700D02*
X59759000Y-69906700D01*
X56326000Y-69866700D02*
X59759000Y-69866700D01*
X56343000Y-69826700D02*
X59759000Y-69826700D01*
X56361000Y-69786700D02*
X59759000Y-69786700D01*
X56379000Y-69746700D02*
X59759000Y-69746700D01*
X56397000Y-69706700D02*
X59759000Y-69706700D01*
X56416000Y-69666700D02*
X59759000Y-69666700D01*
X56436000Y-69626700D02*
X59759000Y-69626700D01*
X56455000Y-69586700D02*
X59759000Y-69586700D01*
X56475000Y-69546700D02*
X59759000Y-69546700D01*
X56496000Y-69506700D02*
X59759000Y-69506700D01*
X56517000Y-69466700D02*
X59759000Y-69466700D01*
X56538000Y-69426700D02*
X59759000Y-69426700D01*
X56560000Y-69386700D02*
X59759000Y-69386700D01*
X56583000Y-69346700D02*
X59759000Y-69346700D01*
X56605000Y-69306700D02*
X59759000Y-69306700D01*
X56629000Y-69266700D02*
X59759000Y-69266700D01*
X56653000Y-69226700D02*
X59759000Y-69226700D01*
X56677000Y-69186700D02*
X59759000Y-69186700D01*
X56702000Y-69146700D02*
X59759000Y-69146700D01*
X56727000Y-69106700D02*
X59759000Y-69106700D01*
X56753000Y-69066700D02*
X59759000Y-69066700D01*
X56779000Y-69026700D02*
X59759000Y-69026700D01*
X56806000Y-68986700D02*
X59759000Y-68986700D01*
X56834000Y-68946700D02*
X59759000Y-68946700D01*
X56862000Y-68906700D02*
X59759000Y-68906700D01*
X56890000Y-68866700D02*
X59759000Y-68866700D01*
X56920000Y-68826700D02*
X59759000Y-68826700D01*
X56950000Y-68786700D02*
X59759000Y-68786700D01*
X56980000Y-68746700D02*
X59759000Y-68746700D01*
X57011000Y-68706700D02*
X59759000Y-68706700D01*
X57043000Y-68666700D02*
X59759000Y-68666700D01*
X57075000Y-68626700D02*
X59759000Y-68626700D01*
X57108000Y-68586700D02*
X59759000Y-68586700D01*
X57142000Y-68546700D02*
X59759000Y-68546700D01*
X57176000Y-68506700D02*
X59759000Y-68506700D01*
X57211000Y-68466700D02*
X59759000Y-68466700D01*
X57247000Y-68426700D02*
X59759000Y-68426700D01*
X57284000Y-68386700D02*
X59759000Y-68386700D01*
X57321000Y-68346700D02*
X59759000Y-68346700D01*
X57360000Y-68306700D02*
X59759000Y-68306700D01*
X57399000Y-68266700D02*
X59759000Y-68266700D01*
X57439000Y-68226700D02*
X59759000Y-68226700D01*
X57480000Y-68186700D02*
X59759000Y-68186700D01*
X57522000Y-68146700D02*
X59759000Y-68146700D01*
X57564000Y-68106700D02*
X64436000Y-68106700D01*
X57608000Y-68066700D02*
X64392000Y-68066700D01*
X57625000Y-76847346D02*
X58625000Y-76847346D01*
X57653000Y-68026700D02*
X64347000Y-68026700D01*
X57699000Y-67986700D02*
X64301000Y-67986700D01*
X57746000Y-67946700D02*
X64254000Y-67946700D01*
X57794000Y-67906700D02*
X64206000Y-67906700D01*
X57844000Y-67866700D02*
X64156000Y-67866700D01*
X57894000Y-67826700D02*
X64106000Y-67826700D01*
X57946000Y-67786700D02*
X64054000Y-67786700D01*
X58000000Y-67746700D02*
X64000000Y-67746700D01*
X58055000Y-67706700D02*
X63945000Y-67706700D01*
X58111000Y-67666700D02*
X63889000Y-67666700D01*
X58125000Y-77347346D02*
X58125000Y-76347346D01*
X58170000Y-67626700D02*
X63830000Y-67626700D01*
X58230000Y-67586700D02*
X63770000Y-67586700D01*
X58291000Y-67546700D02*
X63709000Y-67546700D01*
X58355000Y-67506700D02*
X63645000Y-67506700D01*
X58421000Y-67466700D02*
X63579000Y-67466700D01*
X58490000Y-67426700D02*
X63510000Y-67426700D01*
X58561000Y-67386700D02*
X63439000Y-67386700D01*
X58635000Y-67346700D02*
X63365000Y-67346700D01*
X58711000Y-67306700D02*
X63289000Y-67306700D01*
X58791000Y-67266700D02*
X63209000Y-67266700D01*
X58875000Y-67226700D02*
X63125000Y-67226700D01*
X58963000Y-67186700D02*
X63037000Y-67186700D01*
X59056000Y-67146700D02*
X62944000Y-67146700D01*
X59154000Y-67106700D02*
X62846000Y-67106700D01*
X59258000Y-67066700D02*
X62742000Y-67066700D01*
X59370000Y-67026700D02*
X62630000Y-67026700D01*
X59490000Y-66986700D02*
X62510000Y-66986700D01*
X59622000Y-66946700D02*
X62378000Y-66946700D01*
X59770000Y-66906700D02*
X62230000Y-66906700D01*
X59938000Y-66866700D02*
X62062000Y-66866700D01*
X60138000Y-66826700D02*
X61862000Y-66826700D01*
X60401000Y-66786700D02*
X61599000Y-66786700D01*
X62241000Y-68146700D02*
X64478000Y-68146700D01*
X62241000Y-68186700D02*
X64520000Y-68186700D01*
X62241000Y-68226700D02*
X64561000Y-68226700D01*
X62241000Y-68266700D02*
X64601000Y-68266700D01*
X62241000Y-68306700D02*
X64640000Y-68306700D01*
X62241000Y-68346700D02*
X64679000Y-68346700D01*
X62241000Y-68386700D02*
X64716000Y-68386700D01*
X62241000Y-68426700D02*
X64753000Y-68426700D01*
X62241000Y-68466700D02*
X64789000Y-68466700D01*
X62241000Y-68506700D02*
X64824000Y-68506700D01*
X62241000Y-68546700D02*
X64858000Y-68546700D01*
X62241000Y-68586700D02*
X64892000Y-68586700D01*
X62241000Y-68626700D02*
X64925000Y-68626700D01*
X62241000Y-68666700D02*
X64957000Y-68666700D01*
X62241000Y-68706700D02*
X64989000Y-68706700D01*
X62241000Y-68746700D02*
X65020000Y-68746700D01*
X62241000Y-68786700D02*
X65050000Y-68786700D01*
X62241000Y-68826700D02*
X65080000Y-68826700D01*
X62241000Y-68866700D02*
X65110000Y-68866700D01*
X62241000Y-68906700D02*
X65138000Y-68906700D01*
X62241000Y-68946700D02*
X65166000Y-68946700D01*
X62241000Y-68986700D02*
X65194000Y-68986700D01*
X62241000Y-69026700D02*
X65221000Y-69026700D01*
X62241000Y-69066700D02*
X65247000Y-69066700D01*
X62241000Y-69106700D02*
X65273000Y-69106700D01*
X62241000Y-69146700D02*
X65298000Y-69146700D01*
X62241000Y-69186700D02*
X65323000Y-69186700D01*
X62241000Y-69226700D02*
X65347000Y-69226700D01*
X62241000Y-69266700D02*
X65371000Y-69266700D01*
X62241000Y-69306700D02*
X65395000Y-69306700D01*
X62241000Y-69346700D02*
X65417000Y-69346700D01*
X62241000Y-69386700D02*
X65440000Y-69386700D01*
X62241000Y-69426700D02*
X65462000Y-69426700D01*
X62241000Y-69466700D02*
X65483000Y-69466700D01*
X62241000Y-69506700D02*
X65504000Y-69506700D01*
X62241000Y-69546700D02*
X65525000Y-69546700D01*
X62241000Y-69586700D02*
X65545000Y-69586700D01*
X62241000Y-69626700D02*
X65564000Y-69626700D01*
X62241000Y-69666700D02*
X65584000Y-69666700D01*
X62241000Y-69706700D02*
X65603000Y-69706700D01*
X62241000Y-69746700D02*
X65621000Y-69746700D01*
X62241000Y-69786700D02*
X65639000Y-69786700D01*
X62241000Y-69826700D02*
X65657000Y-69826700D01*
X62241000Y-69866700D02*
X65674000Y-69866700D01*
X62241000Y-69906700D02*
X65690000Y-69906700D01*
X62241000Y-69946700D02*
X65707000Y-69946700D01*
X62241000Y-69986700D02*
X65723000Y-69986700D01*
X62241000Y-70026700D02*
X65738000Y-70026700D01*
X62241000Y-70066700D02*
X65754000Y-70066700D01*
X62241000Y-70106700D02*
X65768000Y-70106700D01*
X62241000Y-70146700D02*
X65783000Y-70146700D01*
X62241000Y-70186700D02*
X65797000Y-70186700D01*
X62241000Y-70226700D02*
X65811000Y-70226700D01*
X62241000Y-70266700D02*
X65824000Y-70266700D01*
X62241000Y-70306700D02*
X65837000Y-70306700D01*
X62241000Y-70346700D02*
X65850000Y-70346700D01*
X62241000Y-70386700D02*
X65862000Y-70386700D01*
X62241000Y-70426700D02*
X65874000Y-70426700D01*
X62241000Y-70466700D02*
X65885000Y-70466700D01*
X62241000Y-70506700D02*
X65897000Y-70506700D01*
X62241000Y-70546700D02*
X65907000Y-70546700D01*
X62241000Y-70586700D02*
X65918000Y-70586700D01*
X66120000Y-71867700D02*
G75*
G02*
X55880000Y-71867700I-5120000J0D01*
G01*
X55880000Y-71867700D02*
G75*
G02*
X66120000Y-71867700I5120000J0D01*
G01*
%TO.C,Q11*%
X95940000Y-28937500D02*
X95940000Y-28287500D01*
X95940000Y-28937500D02*
X95940000Y-29587500D01*
X99060000Y-28937500D02*
X99060000Y-28287500D01*
X99060000Y-28937500D02*
X99060000Y-29587500D01*
X95990000Y-30100000D02*
X95660000Y-30340000D01*
X95660000Y-29860000D01*
X95990000Y-30100000D01*
G36*
X95990000Y-30100000D02*
G01*
X95660000Y-30340000D01*
X95660000Y-29860000D01*
X95990000Y-30100000D01*
G37*
%TO.C,J4*%
X82670000Y-74505000D02*
X82670000Y-71905000D01*
X85330000Y-71905000D02*
X82670000Y-71905000D01*
X85330000Y-74505000D02*
X82670000Y-74505000D01*
X85330000Y-74505000D02*
X85330000Y-71905000D01*
X85330000Y-75775000D02*
X85330000Y-77105000D01*
X85330000Y-77105000D02*
X84000000Y-77105000D01*
%TO.C,J6*%
X88170000Y-57170000D02*
X89500000Y-57170000D01*
X88170000Y-58500000D02*
X88170000Y-57170000D01*
X88170000Y-59770000D02*
X88170000Y-59830000D01*
X88170000Y-59770000D02*
X90830000Y-59770000D01*
X88170000Y-59830000D02*
X90830000Y-59830000D01*
X90830000Y-59770000D02*
X90830000Y-59830000D01*
%TO.C,Q18*%
X66940000Y-23937500D02*
X66940000Y-23287500D01*
X66940000Y-23937500D02*
X66940000Y-24587500D01*
X70060000Y-23937500D02*
X70060000Y-23287500D01*
X70060000Y-23937500D02*
X70060000Y-24587500D01*
X66990000Y-25100000D02*
X66660000Y-25340000D01*
X66660000Y-24860000D01*
X66990000Y-25100000D01*
G36*
X66990000Y-25100000D02*
G01*
X66660000Y-25340000D01*
X66660000Y-24860000D01*
X66990000Y-25100000D01*
G37*
D11*
%TO.C,U1*%
X43775000Y-36830000D02*
X43775000Y-37730000D01*
X43775000Y-43380000D02*
X43775000Y-42480000D01*
X49325000Y-36830000D02*
X43775000Y-36830000D01*
X49325000Y-36830000D02*
X49325000Y-37730000D01*
X49325000Y-43380000D02*
X43775000Y-43380000D01*
X49325000Y-43380000D02*
X49325000Y-42580000D01*
D12*
X50202500Y-42910000D02*
X49722500Y-42910000D01*
X49962500Y-42580000D01*
X50202500Y-42910000D01*
G36*
X50202500Y-42910000D02*
G01*
X49722500Y-42910000D01*
X49962500Y-42580000D01*
X50202500Y-42910000D01*
G37*
%TO.C,Q17*%
X65940000Y-28937500D02*
X65940000Y-28287500D01*
X65940000Y-28937500D02*
X65940000Y-29587500D01*
X69060000Y-28937500D02*
X69060000Y-28287500D01*
X69060000Y-28937500D02*
X69060000Y-29587500D01*
X65990000Y-30100000D02*
X65660000Y-30340000D01*
X65660000Y-29860000D01*
X65990000Y-30100000D01*
G36*
X65990000Y-30100000D02*
G01*
X65660000Y-30340000D01*
X65660000Y-29860000D01*
X65990000Y-30100000D01*
G37*
%TO.C,U2*%
X59000000Y-36770000D02*
X56800000Y-36770000D01*
X59000000Y-36770000D02*
X61200000Y-36770000D01*
X59000000Y-43540000D02*
X56800000Y-43540000D01*
X59000000Y-43540000D02*
X61200000Y-43540000D01*
X55140000Y-37230000D02*
X54810000Y-37470000D01*
X54810000Y-36990000D01*
X55140000Y-37230000D01*
G36*
X55140000Y-37230000D02*
G01*
X54810000Y-37470000D01*
X54810000Y-36990000D01*
X55140000Y-37230000D01*
G37*
%TO.C,Q2*%
X71940000Y-24000000D02*
X71940000Y-23350000D01*
X71940000Y-24000000D02*
X71940000Y-24650000D01*
X75060000Y-24000000D02*
X75060000Y-23350000D01*
X75060000Y-24000000D02*
X75060000Y-24650000D01*
X71990000Y-25162500D02*
X71660000Y-25402500D01*
X71660000Y-24922500D01*
X71990000Y-25162500D01*
G36*
X71990000Y-25162500D02*
G01*
X71660000Y-25402500D01*
X71660000Y-24922500D01*
X71990000Y-25162500D01*
G37*
%TO.C,Q21*%
X55940000Y-28937500D02*
X55940000Y-28287500D01*
X55940000Y-28937500D02*
X55940000Y-29587500D01*
X59060000Y-28937500D02*
X59060000Y-28287500D01*
X59060000Y-28937500D02*
X59060000Y-29587500D01*
X55990000Y-30100000D02*
X55660000Y-30340000D01*
X55660000Y-29860000D01*
X55990000Y-30100000D01*
G36*
X55990000Y-30100000D02*
G01*
X55660000Y-30340000D01*
X55660000Y-29860000D01*
X55990000Y-30100000D01*
G37*
%TO.C,Q3*%
X75940000Y-28937500D02*
X75940000Y-28287500D01*
X75940000Y-28937500D02*
X75940000Y-29587500D01*
X79060000Y-28937500D02*
X79060000Y-28287500D01*
X79060000Y-28937500D02*
X79060000Y-29587500D01*
X75990000Y-30100000D02*
X75660000Y-30340000D01*
X75660000Y-29860000D01*
X75990000Y-30100000D01*
G36*
X75990000Y-30100000D02*
G01*
X75660000Y-30340000D01*
X75660000Y-29860000D01*
X75990000Y-30100000D01*
G37*
%TO.C,Q10*%
X91890000Y-24062500D02*
X91890000Y-23412500D01*
X91890000Y-24062500D02*
X91890000Y-24712500D01*
X95010000Y-24062500D02*
X95010000Y-23412500D01*
X95010000Y-24062500D02*
X95010000Y-24712500D01*
X91940000Y-25225000D02*
X91610000Y-25465000D01*
X91610000Y-24985000D01*
X91940000Y-25225000D01*
G36*
X91940000Y-25225000D02*
G01*
X91610000Y-25465000D01*
X91610000Y-24985000D01*
X91940000Y-25225000D01*
G37*
%TO.C,D2*%
X85760000Y-65300000D02*
X87260000Y-65300000D01*
X85760000Y-68900000D02*
X85760000Y-65300000D01*
X88960000Y-68900000D02*
X88960000Y-68400000D01*
X91260000Y-65300000D02*
X92760000Y-65300000D01*
X95960000Y-65300000D02*
X97860000Y-65300000D01*
X100960000Y-65300000D02*
X102960000Y-65300000D01*
X106060000Y-65300000D02*
X108060000Y-65300000D01*
X108060000Y-65300000D02*
X108060000Y-68900000D01*
X108060000Y-68900000D02*
X85760000Y-68900000D01*
%TO.C,Q14*%
X101940000Y-24000000D02*
X101940000Y-23350000D01*
X101940000Y-24000000D02*
X101940000Y-24650000D01*
X105060000Y-24000000D02*
X105060000Y-23350000D01*
X105060000Y-24000000D02*
X105060000Y-24650000D01*
X101990000Y-25162500D02*
X101660000Y-25402500D01*
X101660000Y-24922500D01*
X101990000Y-25162500D01*
G36*
X101990000Y-25162500D02*
G01*
X101660000Y-25402500D01*
X101660000Y-24922500D01*
X101990000Y-25162500D01*
G37*
%TO.C,Q27*%
X40940000Y-29000000D02*
X40940000Y-28350000D01*
X40940000Y-29000000D02*
X40940000Y-29650000D01*
X44060000Y-29000000D02*
X44060000Y-28350000D01*
X44060000Y-29000000D02*
X44060000Y-29650000D01*
X40990000Y-30162500D02*
X40660000Y-30402500D01*
X40660000Y-29922500D01*
X40990000Y-30162500D01*
G36*
X40990000Y-30162500D02*
G01*
X40660000Y-30402500D01*
X40660000Y-29922500D01*
X40990000Y-30162500D01*
G37*
%TD*%
%LPC*%
D13*
%TO.C,Q13*%
X101550000Y-29875000D03*
X103450000Y-29875000D03*
X102500000Y-28000000D03*
%TD*%
%TO.C,Q20*%
X62550000Y-24875000D03*
X64450000Y-24875000D03*
X63500000Y-23000000D03*
%TD*%
%TO.C,Q23*%
X51550000Y-29875000D03*
X53450000Y-29875000D03*
X52500000Y-28000000D03*
%TD*%
D14*
%TO.C,C2*%
X100000000Y-53500000D03*
D15*
X105000000Y-53500000D03*
%TD*%
D16*
%TO.C,R62*%
X33550000Y-31587500D03*
X33550000Y-32227500D03*
%TD*%
%TO.C,R23*%
X99500000Y-20680000D03*
X99500000Y-21320000D03*
%TD*%
D17*
%TO.C,R40*%
X15320000Y-42500000D03*
X14680000Y-42500000D03*
%TD*%
D16*
%TO.C,R51*%
X49845000Y-20587500D03*
X49845000Y-21227500D03*
%TD*%
%TO.C,R11*%
X84500000Y-20680000D03*
X84500000Y-21320000D03*
%TD*%
%TO.C,R13*%
X87500000Y-20680000D03*
X87500000Y-21320000D03*
%TD*%
D13*
%TO.C,Q31*%
X31600000Y-29937500D03*
X33500000Y-29937500D03*
X32550000Y-28062500D03*
%TD*%
%TO.C,Q7*%
X86550000Y-29875000D03*
X88450000Y-29875000D03*
X87500000Y-28000000D03*
%TD*%
%TO.C,Q30*%
X37550000Y-24937500D03*
X39450000Y-24937500D03*
X38500000Y-23062500D03*
%TD*%
D16*
%TO.C,R58*%
X38500000Y-31587500D03*
X38500000Y-32227500D03*
%TD*%
%TO.C,R3*%
X73500000Y-31525000D03*
X73500000Y-32165000D03*
%TD*%
D13*
%TO.C,Q6*%
X82550000Y-24937500D03*
X84450000Y-24937500D03*
X83500000Y-23062500D03*
%TD*%
D18*
%TO.C,J1*%
X18000000Y-60360000D03*
D19*
X18000000Y-57820000D03*
X18000000Y-55280000D03*
X18000000Y-52740000D03*
X18000000Y-50200000D03*
X18000000Y-47660000D03*
X18000000Y-45120000D03*
X18000000Y-42580000D03*
X18000000Y-40040000D03*
X18000000Y-37500000D03*
X18000000Y-34960000D03*
X18000000Y-32420000D03*
X18000000Y-29880000D03*
X18000000Y-27340000D03*
X18000000Y-24800000D03*
X18000000Y-22260000D03*
X18000000Y-19720000D03*
%TD*%
D20*
%TO.C,U3*%
X36950000Y-41950000D03*
X36950000Y-41300000D03*
X36950000Y-40650000D03*
X36950000Y-40000000D03*
X36950000Y-39350000D03*
X36950000Y-38700000D03*
X36950000Y-38050000D03*
X30050000Y-38050000D03*
X30050000Y-38700000D03*
X30050000Y-39350000D03*
X30050000Y-40000000D03*
X30050000Y-40650000D03*
X30050000Y-41300000D03*
X30050000Y-41950000D03*
%TD*%
D18*
%TO.C,J9*%
X43040000Y-48000000D03*
D19*
X40500000Y-48000000D03*
X37960000Y-48000000D03*
X35420000Y-48000000D03*
%TD*%
D16*
%TO.C,R55*%
X44500000Y-20587500D03*
X44500000Y-21227500D03*
%TD*%
D17*
%TO.C,R56*%
X15320000Y-52500000D03*
X14680000Y-52500000D03*
%TD*%
D16*
%TO.C,R38*%
X63500000Y-31525000D03*
X63500000Y-32165000D03*
%TD*%
%TO.C,R34*%
X68500000Y-31525000D03*
X68500000Y-32165000D03*
%TD*%
D13*
%TO.C,Q8*%
X87550000Y-24937500D03*
X89450000Y-24937500D03*
X88500000Y-23062500D03*
%TD*%
D16*
%TO.C,R14*%
X88500000Y-31525000D03*
X88500000Y-32165000D03*
%TD*%
D13*
%TO.C,Q33*%
X26600000Y-29937500D03*
X28500000Y-29937500D03*
X27550000Y-28062500D03*
%TD*%
D16*
%TO.C,R21*%
X97500000Y-20680000D03*
X97500000Y-21320000D03*
%TD*%
%TO.C,R41*%
X57500000Y-20617500D03*
X57500000Y-21257500D03*
%TD*%
D18*
%TO.C,J10*%
X79500000Y-43500000D03*
%TD*%
D13*
%TO.C,Q15*%
X106550000Y-29875000D03*
X108450000Y-29875000D03*
X107500000Y-28000000D03*
%TD*%
D16*
%TO.C,R6*%
X78500000Y-31525000D03*
X78500000Y-32165000D03*
%TD*%
%TO.C,R9*%
X82500000Y-20680000D03*
X82500000Y-21320000D03*
%TD*%
D18*
%TO.C,J8*%
X89500000Y-43500000D03*
%TD*%
%TO.C,J3*%
X93225000Y-74500000D03*
D19*
X95765000Y-74500000D03*
%TD*%
D13*
%TO.C,Q22*%
X57550000Y-24875000D03*
X59450000Y-24875000D03*
X58500000Y-23000000D03*
%TD*%
%TO.C,Q16*%
X107550000Y-24937500D03*
X109450000Y-24937500D03*
X108500000Y-23062500D03*
%TD*%
D16*
%TO.C,R37*%
X62500000Y-20680000D03*
X62500000Y-21320000D03*
%TD*%
D13*
%TO.C,Q1*%
X71550000Y-29875000D03*
X73450000Y-29875000D03*
X72500000Y-28000000D03*
%TD*%
%TO.C,Q26*%
X47600000Y-25062500D03*
X49500000Y-25062500D03*
X48550000Y-23187500D03*
%TD*%
D16*
%TO.C,R10*%
X83500000Y-31525000D03*
X83500000Y-32165000D03*
%TD*%
D17*
%TO.C,R60*%
X15320000Y-55155000D03*
X14680000Y-55155000D03*
%TD*%
D18*
%TO.C,J2*%
X54200000Y-54500000D03*
D19*
X56740000Y-54500000D03*
X59280000Y-54500000D03*
X61820000Y-54500000D03*
%TD*%
D13*
%TO.C,Q4*%
X77550000Y-24875000D03*
X79450000Y-24875000D03*
X78500000Y-23000000D03*
%TD*%
%TO.C,Q9*%
X91550000Y-29875000D03*
X93450000Y-29875000D03*
X92500000Y-28000000D03*
%TD*%
%TO.C,Q32*%
X32650000Y-25062500D03*
X34550000Y-25062500D03*
X33600000Y-23187500D03*
%TD*%
D16*
%TO.C,R5*%
X77500000Y-20680000D03*
X77500000Y-21320000D03*
%TD*%
D13*
%TO.C,Q19*%
X61550000Y-29875000D03*
X63450000Y-29875000D03*
X62500000Y-28000000D03*
%TD*%
D16*
%TO.C,R1*%
X72500000Y-20680000D03*
X72500000Y-21320000D03*
%TD*%
D18*
%TO.C,J7*%
X79500000Y-58500000D03*
%TD*%
D16*
%TO.C,R39*%
X64500000Y-20680000D03*
X64500000Y-21320000D03*
%TD*%
D17*
%TO.C,R28*%
X15320000Y-22500000D03*
X14680000Y-22500000D03*
%TD*%
D16*
%TO.C,R42*%
X58500000Y-31500000D03*
X58500000Y-32140000D03*
%TD*%
%TO.C,R19*%
X94500000Y-20680000D03*
X94500000Y-21320000D03*
%TD*%
D13*
%TO.C,Q12*%
X97550000Y-24937500D03*
X99450000Y-24937500D03*
X98500000Y-23062500D03*
%TD*%
D17*
%TO.C,R36*%
X15320000Y-40000000D03*
X14680000Y-40000000D03*
%TD*%
D13*
%TO.C,Q34*%
X27600000Y-24937500D03*
X29500000Y-24937500D03*
X28550000Y-23062500D03*
%TD*%
D16*
%TO.C,R59*%
X39500000Y-20587500D03*
X39500000Y-21227500D03*
%TD*%
%TO.C,R33*%
X67500000Y-20680000D03*
X67500000Y-21320000D03*
%TD*%
%TO.C,R25*%
X102500000Y-20617500D03*
X102500000Y-21257500D03*
%TD*%
%TO.C,R31*%
X109500000Y-20680000D03*
X109500000Y-21320000D03*
%TD*%
%TO.C,R22*%
X98500000Y-31525000D03*
X98500000Y-32165000D03*
%TD*%
%TO.C,R15*%
X89500000Y-20680000D03*
X89500000Y-21320000D03*
%TD*%
D17*
%TO.C,R16*%
X15320000Y-30000000D03*
X14680000Y-30000000D03*
%TD*%
%TO.C,R68*%
X15320000Y-60000000D03*
X14680000Y-60000000D03*
%TD*%
D16*
%TO.C,R50*%
X48500000Y-31587500D03*
X48500000Y-32227500D03*
%TD*%
%TO.C,R30*%
X108500000Y-31525000D03*
X108500000Y-32165000D03*
%TD*%
%TO.C,R67*%
X29550000Y-20562500D03*
X29550000Y-21202500D03*
%TD*%
%TO.C,R7*%
X79500000Y-20680000D03*
X79500000Y-21320000D03*
%TD*%
D17*
%TO.C,R48*%
X15320000Y-47500000D03*
X14680000Y-47500000D03*
%TD*%
D16*
%TO.C,R27*%
X104500000Y-20680000D03*
X104500000Y-21320000D03*
%TD*%
D13*
%TO.C,Q28*%
X42550000Y-24937500D03*
X44450000Y-24937500D03*
X43500000Y-23062500D03*
%TD*%
D17*
%TO.C,R20*%
X15320000Y-27500000D03*
X14680000Y-27500000D03*
%TD*%
%TO.C,R8*%
X15320000Y-35000000D03*
X14680000Y-35000000D03*
%TD*%
D13*
%TO.C,Q24*%
X52600000Y-25000000D03*
X54500000Y-25000000D03*
X53550000Y-23125000D03*
%TD*%
D18*
%TO.C,J5*%
X18000000Y-14500000D03*
%TD*%
D16*
%TO.C,R65*%
X27370000Y-20587500D03*
X27370000Y-21227500D03*
%TD*%
%TO.C,R2*%
X74500000Y-20680000D03*
X74500000Y-21320000D03*
%TD*%
D17*
%TO.C,R32*%
X15320000Y-20000000D03*
X14680000Y-20000000D03*
%TD*%
D13*
%TO.C,Q5*%
X81550000Y-29875000D03*
X83450000Y-29875000D03*
X82500000Y-28000000D03*
%TD*%
D21*
%TO.C,D1*%
X72000000Y-48080000D03*
D22*
X72000000Y-37920000D03*
%TD*%
D13*
%TO.C,Q29*%
X36487500Y-29950000D03*
X38387500Y-29950000D03*
X37437500Y-28075000D03*
%TD*%
D17*
%TO.C,R52*%
X15320000Y-50000000D03*
X14680000Y-50000000D03*
%TD*%
D16*
%TO.C,R43*%
X59500000Y-20680000D03*
X59500000Y-21320000D03*
%TD*%
D23*
%TO.C,D3*%
X72000000Y-76740000D03*
D24*
X72000000Y-71660000D03*
X72000000Y-66580000D03*
X72000000Y-61500000D03*
%TD*%
D17*
%TO.C,R4*%
X15320000Y-37500000D03*
X14680000Y-37500000D03*
%TD*%
D16*
%TO.C,R61*%
X32550000Y-20587500D03*
X32550000Y-21227500D03*
%TD*%
%TO.C,R49*%
X47500000Y-20587500D03*
X47500000Y-21227500D03*
%TD*%
D17*
%TO.C,R44*%
X15320000Y-45000000D03*
X14680000Y-45000000D03*
%TD*%
D13*
%TO.C,Q25*%
X46550000Y-29937500D03*
X48450000Y-29937500D03*
X47500000Y-28062500D03*
%TD*%
D16*
%TO.C,R63*%
X34730000Y-20587500D03*
X34730000Y-21227500D03*
%TD*%
%TO.C,R47*%
X54500000Y-20680000D03*
X54500000Y-21320000D03*
%TD*%
D25*
%TO.C,C1*%
X61000000Y-74367700D03*
D26*
X61000000Y-69367700D03*
%TD*%
D13*
%TO.C,Q11*%
X96550000Y-29875000D03*
X98450000Y-29875000D03*
X97500000Y-28000000D03*
%TD*%
D18*
%TO.C,J4*%
X84000000Y-75775000D03*
D19*
X84000000Y-73235000D03*
%TD*%
D18*
%TO.C,J6*%
X89500000Y-58500000D03*
%TD*%
D13*
%TO.C,Q18*%
X67550000Y-24875000D03*
X69450000Y-24875000D03*
X68500000Y-23000000D03*
%TD*%
D20*
%TO.C,U1*%
X50000000Y-42055000D03*
X50000000Y-41405000D03*
X50000000Y-40755000D03*
X50000000Y-40105000D03*
X50000000Y-39455000D03*
X50000000Y-38805000D03*
X50000000Y-38155000D03*
X43100000Y-38155000D03*
X43100000Y-38805000D03*
X43100000Y-39455000D03*
X43100000Y-40105000D03*
X43100000Y-40755000D03*
X43100000Y-41405000D03*
X43100000Y-42055000D03*
%TD*%
D13*
%TO.C,Q17*%
X66550000Y-29875000D03*
X68450000Y-29875000D03*
X67500000Y-28000000D03*
%TD*%
D16*
%TO.C,R53*%
X42500000Y-20587500D03*
X42500000Y-21227500D03*
%TD*%
%TO.C,R54*%
X43500000Y-31587500D03*
X43500000Y-32227500D03*
%TD*%
D27*
%TO.C,U2*%
X56137500Y-37230000D03*
X56137500Y-37880000D03*
X56137500Y-38530000D03*
X56137500Y-39180000D03*
X56137500Y-39830000D03*
X56137500Y-40480000D03*
X56137500Y-41130000D03*
X56137500Y-41780000D03*
X56137500Y-42430000D03*
X56137500Y-43080000D03*
X61862500Y-43080000D03*
X61862500Y-42430000D03*
X61862500Y-41780000D03*
X61862500Y-41130000D03*
X61862500Y-40480000D03*
X61862500Y-39830000D03*
X61862500Y-39180000D03*
X61862500Y-38530000D03*
X61862500Y-37880000D03*
X61862500Y-37230000D03*
%TD*%
D16*
%TO.C,R17*%
X92500000Y-20680000D03*
X92500000Y-21320000D03*
%TD*%
D13*
%TO.C,Q2*%
X72550000Y-24937500D03*
X74450000Y-24937500D03*
X73500000Y-23062500D03*
%TD*%
D16*
%TO.C,R18*%
X93500000Y-31525000D03*
X93500000Y-32165000D03*
%TD*%
D17*
%TO.C,R12*%
X15320000Y-32500000D03*
X14680000Y-32500000D03*
%TD*%
D16*
%TO.C,R57*%
X37345000Y-20587500D03*
X37345000Y-21227500D03*
%TD*%
%TO.C,R26*%
X103500000Y-31525000D03*
X103500000Y-32165000D03*
%TD*%
D13*
%TO.C,Q21*%
X56550000Y-29875000D03*
X58450000Y-29875000D03*
X57500000Y-28000000D03*
%TD*%
%TO.C,Q3*%
X76550000Y-29875000D03*
X78450000Y-29875000D03*
X77500000Y-28000000D03*
%TD*%
D16*
%TO.C,R29*%
X107500000Y-20680000D03*
X107500000Y-21320000D03*
%TD*%
D13*
%TO.C,Q10*%
X92500000Y-25000000D03*
X94400000Y-25000000D03*
X93450000Y-23125000D03*
%TD*%
D23*
%TO.C,D2*%
X89260000Y-66500000D03*
D24*
X94340000Y-66500000D03*
X99420000Y-66500000D03*
X104500000Y-66500000D03*
%TD*%
D13*
%TO.C,Q14*%
X102550000Y-24937500D03*
X104450000Y-24937500D03*
X103500000Y-23062500D03*
%TD*%
D16*
%TO.C,R46*%
X53500000Y-31525000D03*
X53500000Y-32165000D03*
%TD*%
%TO.C,R66*%
X28550000Y-31587500D03*
X28550000Y-32227500D03*
%TD*%
%TO.C,R35*%
X69500000Y-20680000D03*
X69500000Y-21320000D03*
%TD*%
%TO.C,R45*%
X52500000Y-20680000D03*
X52500000Y-21320000D03*
%TD*%
D17*
%TO.C,R24*%
X15320000Y-25000000D03*
X14680000Y-25000000D03*
%TD*%
D13*
%TO.C,Q27*%
X41550000Y-29937500D03*
X43450000Y-29937500D03*
X42500000Y-28062500D03*
%TD*%
D17*
%TO.C,R64*%
X15320000Y-57820000D03*
X14680000Y-57820000D03*
%TD*%
%LPD*%
M02*
