M48
; DRILL file {KiCad 8.0.5} date 2024-09-28T17:35:59+0200
; FORMAT={-:-/ absolute / inch / decimal}
; #@! TF.CreationDate,2024-09-28T17:35:59+02:00
; #@! TF.GenerationSoftware,Kicad,Pcbnew,8.0.5
; #@! TF.FileFunction,Plated,1,2,PTH
FMAT,2
INCH
; #@! TA.AperFunction,Plated,PTH,ComponentDrill
T1C0.0394
%
G90
G05
T1
X0.6693Y-0.6677
X0.6693Y-0.7677
X0.6693Y-0.8677
X0.6693Y-0.9677
X0.6693Y-1.0677
X0.6693Y-1.1677
X0.6693Y-1.2677
X0.6693Y-1.3677
X0.6693Y-1.4677
X0.6693Y-1.5677
X1.3692Y-0.6678
X1.3692Y-0.7678
X1.3692Y-0.8678
X1.3692Y-0.9678
X1.3692Y-1.0678
X1.3692Y-1.1678
X1.3692Y-1.2678
X1.3692Y-1.3678
X1.3692Y-1.4678
X1.3692Y-1.5678
M30
