%TF.GenerationSoftware,KiCad,Pcbnew,8.0.5*%
%TF.CreationDate,2024-09-28T17:35:52+02:00*%
%TF.ProjectId,adapterch32v003,61646170-7465-4726-9368-333276303033,rev?*%
%TF.SameCoordinates,Original*%
%TF.FileFunction,Soldermask,Top*%
%TF.FilePolarity,Negative*%
%FSLAX46Y46*%
G04 Gerber Fmt 4.6, Leading zero omitted, Abs format (unit mm)*
G04 Created by KiCad (PCBNEW 8.0.5) date 2024-09-28 17:35:52*
%MOMM*%
%LPD*%
G01*
G04 APERTURE LIST*
G04 Aperture macros list*
%AMRoundRect*
0 Rectangle with rounded corners*
0 $1 Rounding radius*
0 $2 $3 $4 $5 $6 $7 $8 $9 X,Y pos of 4 corners*
0 Add a 4 corners polygon primitive as box body*
4,1,4,$2,$3,$4,$5,$6,$7,$8,$9,$2,$3,0*
0 Add four circle primitives for the rounded corners*
1,1,$1+$1,$2,$3*
1,1,$1+$1,$4,$5*
1,1,$1+$1,$6,$7*
1,1,$1+$1,$8,$9*
0 Add four rect primitives between the rounded corners*
20,1,$1+$1,$2,$3,$4,$5,0*
20,1,$1+$1,$4,$5,$6,$7,0*
20,1,$1+$1,$6,$7,$8,$9,0*
20,1,$1+$1,$8,$9,$2,$3,0*%
G04 Aperture macros list end*
%ADD10R,1.700000X1.700000*%
%ADD11O,1.700000X1.700000*%
%ADD12RoundRect,0.100000X-0.637500X-0.100000X0.637500X-0.100000X0.637500X0.100000X-0.637500X0.100000X0*%
G04 APERTURE END LIST*
D10*
%TO.C,J1*%
X17000000Y-16960000D03*
D11*
X17000000Y-19500000D03*
X17000000Y-22040000D03*
X17000000Y-24580000D03*
X17000000Y-27120000D03*
X17000000Y-29660000D03*
X17000000Y-32200000D03*
X17000000Y-34740000D03*
X17000000Y-37280000D03*
X17000000Y-39820000D03*
%TD*%
D10*
%TO.C,J2*%
X34776982Y-16961934D03*
D11*
X34776982Y-19501934D03*
X34776982Y-22041934D03*
X34776982Y-24581934D03*
X34776982Y-27121934D03*
X34776982Y-29661934D03*
X34776982Y-32201934D03*
X34776982Y-34741934D03*
X34776982Y-37281934D03*
X34776982Y-39821934D03*
%TD*%
D12*
%TO.C,U1*%
X23137500Y-25575000D03*
X23137500Y-26225000D03*
X23137500Y-26875000D03*
X23137500Y-27525000D03*
X23137500Y-28175000D03*
X23137500Y-28825000D03*
X23137500Y-29475000D03*
X23137500Y-30125000D03*
X23137500Y-30775000D03*
X23137500Y-31425000D03*
X28862500Y-31425000D03*
X28862500Y-30775000D03*
X28862500Y-30125000D03*
X28862500Y-29475000D03*
X28862500Y-28825000D03*
X28862500Y-28175000D03*
X28862500Y-27525000D03*
X28862500Y-26875000D03*
X28862500Y-26225000D03*
X28862500Y-25575000D03*
%TD*%
M02*
